<svg width="100%" viewBox="0 0 98 73" height="100%" xmlns="http://www.w3.org/2000/svg">
	<g fill="none" fill-rule="evenodd" stroke="#000" stroke-width=".5">
		<g fill="#95d99f">
			<path d="m25.25.25h7.5v7.5h-7.5z" />
			<path d="m32.75.25h7.5v7.5h-7.5z" />
			<path d="m40.25.25h7.5v7.5h-7.5z" />
			<path d="m25.25 7.75h7.5v7.5h-7.5z" />
			<path d="m32.75 7.75h7.5v7.5h-7.5z" />
			<path d="m40.25 7.75h7.5v7.5h-7.5z" />
			<path d="m25.25 15.25h7.5v7.5h-7.5z" />
			<path d="m32.75 15.25h7.5v7.5h-7.5z" />
			<path d="m40.25 15.25h7.5v7.5h-7.5z" />
		</g>
		<g fill="#fc9f9b">
			<path d="m.25 25.25h7.5v7.5h-7.5z" />
			<path d="m7.75 25.25h7.5v7.5h-7.5z" />
			<path d="m15.25 25.25h7.5v7.5h-7.5z" />
			<path d="m.25 32.75h7.5v7.5h-7.5z" />
			<path d="m7.75 32.75h7.5v7.5h-7.5z" />
			<path d="m15.25 32.75h7.5v7.5h-7.5z" />
			<path d="m.25 40.25h7.5v7.5h-7.5z" />
			<path d="m7.75 40.25h7.5v7.5h-7.5z" />
			<path d="m15.25 40.25h7.5v7.5h-7.5z" />
		</g>
		<g fill="#f7efa4">
			<path d="m25.25 25.25h7.5v7.5h-7.5z" />
			<path d="m32.75 25.25h7.5v7.5h-7.5z" />
			<path d="m40.25 25.25h7.5v7.5h-7.5z" />
			<path d="m25.25 32.75h7.5v7.5h-7.5z" />
			<path d="m32.75 32.75h7.5v7.5h-7.5z" />
			<path d="m40.25 32.75h7.5v7.5h-7.5z" />
			<path d="m25.25 40.25h7.5v7.5h-7.5z" />
			<path d="m32.75 40.25h7.5v7.5h-7.5z" />
			<path d="m40.25 40.25h7.5v7.5h-7.5z" />
		</g>
		<g fill="#91bffe">
			<path d="m25.25 50.25h7.5v7.5h-7.5z" />
			<path d="m32.75 50.25h7.5v7.5h-7.5z" />
			<path d="m40.25 50.25h7.5v7.5h-7.5z" />
			<path d="m25.25 57.75h7.5v7.5h-7.5z" />
			<path d="m32.75 57.75h7.5v7.5h-7.5z" />
			<path d="m40.25 57.75h7.5v7.5h-7.5z" />
			<path d="m25.25 65.25h7.5v7.5h-7.5z" />
			<path d="m32.75 65.25h7.5v7.5h-7.5z" />
			<path d="m40.25 65.25h7.5v7.5h-7.5z" />
		</g>
		<g fill="#f7be95">
			<path d="m50.25 25.25h7.5v7.5h-7.5z" />
			<path d="m57.75 25.25h7.5v7.5h-7.5z" />
			<path d="m65.25 25.25h7.5v7.5h-7.5z" />
			<path d="m50.25 32.75h7.5v7.5h-7.5z" />
			<path d="m57.75 32.75h7.5v7.5h-7.5z" />
			<path d="m65.25 32.75h7.5v7.5h-7.5z" />
			<path d="m50.25 40.25h7.5v7.5h-7.5z" />
			<path d="m57.75 40.25h7.5v7.5h-7.5z" />
			<path d="m65.25 40.25h7.5v7.5h-7.5z" />
		</g>
		<g fill="#fff">
			<path d="m75.25 25.25h7.5v7.5h-7.5z" />
			<path d="m82.75 25.25h7.5v7.5h-7.5z" />
			<path d="m90.25 25.25h7.5v7.5h-7.5z" />
			<path d="m75.25 32.75h7.5v7.5h-7.5z" />
			<path d="m82.75 32.75h7.5v7.5h-7.5z" />
			<path d="m90.25 32.75h7.5v7.5h-7.5z" />
			<path d="m75.25 40.25h7.5v7.5h-7.5z" />
			<path d="m82.75 40.25h7.5v7.5h-7.5z" />
			<path d="m90.25 40.25h7.5v7.5h-7.5z" />
		</g>
	</g>
</svg>
