<svg width="64" viewBox="0 0 64 64" xmlns="http://www.w3.org/2000/svg">
	<linearGradient id="cube8-gradient" x1="10.390811%" x2="92.190306%" y1="2.611609%" y2="97.606691%">
		<stop stop-color="var(--gradient-start,#69BFFF)" offset="0%" />
		<stop stop-color="var(--gradient-end,#388BFD)" offset="100%" />
	</linearGradient>
	<g fill="none" fill-rule="evenodd">
		<path d="M6,0 L58,0 C61.3137085,0 64,2.6862915 64,6 L64,58 C64,61.3137085 61.3137085,64 58,64 L6,64 C2.6862915,64 0,61.3137085 0,58 L0,6 C0,2.6862915 2.6862915,0 6,0 Z" fill="var(--background-color,transparent)">
		</path>
		<path d="M58,0 C61.3137085,0 64,2.6862915 64,6 L64,58 C64,61.3137085 61.3137085,64 58,64 L6,64 C2.6862915,64 0,61.3137085 0,58 L0,6 C0,2.6862915 2.6862915,0 6,0 L58,0 Z M32.3037109,14 C29.1624349,14 26.6315104,14.8789062 24.7109375,16.6367188 C22.7903646,18.3945312 21.8300781,20.7708333 21.8300781,23.765625 C21.8300781,25.5234375 22.2858073,27.0940755 23.1972656,28.4775391 C24.108724,29.8610026 25.3538411,30.9433594 26.9326172,31.7246094 C25.0771484,32.5221354 23.6245117,33.6940104 22.574707,35.2402344 C21.5249023,36.7864583 21,38.5198568 21,40.4404297 C21,43.5003255 22.0294596,45.9458008 24.0883789,47.7768555 C26.1472982,49.6079102 28.8857422,50.5234375 32.3037109,50.5234375 C35.6891276,50.5234375 38.4194336,49.6119792 40.4946289,47.7890625 C42.5698242,45.9661458 43.6074219,43.5166016 43.6074219,40.4404297 C43.6074219,38.5035807 43.0662435,36.7701823 41.9838867,35.2402344 C40.9015299,33.7102865 39.4326172,32.5465495 37.5771484,31.7490234 C39.1722005,30.9677734 40.4376628,29.8854167 41.3735352,28.5019531 C42.3094076,27.1184896 42.7773438,25.5397135 42.7773438,23.765625 C42.7773438,20.7708333 41.8129883,18.3945312 39.8842773,16.6367188 C37.9555664,14.8789062 35.4287109,14 32.3037109,14 Z M32.2548828,33.6044922 C34.289388,33.6044922 35.9373372,34.2311198 37.1987305,35.484375 C38.4601237,36.7376302 39.0908203,38.3570964 39.0908203,40.3427734 C39.0908203,42.3447266 38.4886068,43.9275716 37.2841797,45.0913086 C36.0797526,46.2550456 34.4195964,46.8369141 32.3037109,46.8369141 C30.1715495,46.8369141 28.5073242,46.2591146 27.3110352,45.1035156 C26.1147461,43.9479167 25.5166016,42.3610026 25.5166016,40.3427734 C25.5166016,38.3245443 26.1310221,36.6969401 27.3598633,35.4599609 C28.5887044,34.2229818 30.2203776,33.6044922 32.2548828,33.6044922 Z M32.3037109,17.7109375 C34.0289714,17.7109375 35.453125,18.280599 36.5761719,19.4199219 C37.6992188,20.5592448 38.2607422,22.0322266 38.2607422,23.8388672 C38.2607422,25.6455078 37.7195638,27.1062826 36.637207,28.2211914 C35.5548503,29.3361003 34.1103516,29.8935547 32.3037109,29.8935547 C30.4970703,29.8935547 29.0525716,29.3361003 27.9702148,28.2211914 C26.8878581,27.1062826 26.3466797,25.6455078 26.3466797,23.8388672 C26.3466797,21.9508464 26.8959961,20.4575195 27.9946289,19.3588867 C29.0932617,18.2602539 30.5296224,17.7109375 32.3037109,17.7109375 Z" fill="url(#cube8-gradient)">
		</path>
	</g>
</svg>
