<svg width="64" viewBox="0 0 64 64" xmlns="http://www.w3.org/2000/svg">
	<linearGradient x1="11.4867604%" y1="2.611609%" x2="91.0229397%" y2="97.606691%" id="megaminx-gradient">
		<stop stop-color="var(--gradient-start,#69BFFF)" offset="0%" />
		<stop stop-color="var(--gradient-end,#388BFD)" offset="100%" />
	</linearGradient>
	<g stroke="none" stroke-width="1" fill="none" fill-rule="evenodd">
		<path d="M47.6984301,0 C50.3664073,0 52.7345626,1.70851624 53.5759353,4.24035236 L63.2309942,33.294097 C64.0109112,35.6410022 63.3199036,38.2269195 61.4732616,39.8719569 L36.1815435,62.4024864 C33.8371468,64.4909369 30.3008992,64.4947559 27.951997,62.411374 L2.55115658,39.8818494 C0.691564325,38.2324658 -0.00180430452,35.6311236 0.790146963,33.2749906 L10.556126,4.22024108 C11.4036756,1.69869759 13.7667363,0 16.4269096,0 L47.6984301,0 Z" fill="var(--background-color,transparent)">
		</path>
		<path d="M47.6984301,0 C50.3664073,0 52.7345626,1.70851624 53.5759353,4.24035236 L63.2309942,33.294097 C64.0109112,35.6410022 63.3199036,38.2269195 61.4732616,39.8719569 L36.1815435,62.4024864 C33.8371468,64.4909369 30.3008992,64.4947559 27.951997,62.411374 L2.55115658,39.8818494 C0.691564325,38.2324658 -0.00180430452,35.6311236 0.790146963,33.2749906 L10.556126,4.22024108 C11.4036756,1.69869759 13.7667363,0 16.4269096,0 L47.6984301,0 Z M40.909668,13.0078125 L24.5180664,13.0078125 L22.8920898,28.9599609 L26.144043,29.7949219 L27.2207031,28.9160156 C28.7368164,27.7514648 28.7368164,27.7514648 31.3955078,27.7514648 C34.2958984,27.7514648 34.2958984,27.7514648 36.0427246,29.6960449 C37.7895508,31.640625 37.7895508,31.640625 37.7895508,34.8486328 C37.7895508,38.2543945 37.7895508,38.2543945 36.1745605,40.1879883 C34.5595703,42.121582 34.5595703,42.121582 31.7250977,42.121582 C29.1323242,42.121582 29.1323242,42.121582 27.550293,40.7263184 C26.0671387,39.4182587 26.0671387,39.4182587 25.6461391,36.9225168 L25.5947266,36.5844727 L21.7495117,36.5844727 C22.1230469,40.7373047 22.1230469,40.7373047 24.8037109,43.0883789 C27.484375,45.4394531 27.484375,45.4394531 31.7250977,45.4394531 C36.5151367,45.4394531 36.5151367,45.4394531 39.1848145,42.5939941 C41.8544922,39.7485352 41.8544922,39.7485352 41.8544922,34.8046875 C41.8544922,29.8828125 41.8544922,29.8828125 39.2836914,26.9934082 C36.7128906,24.1040039 36.7128906,24.1040039 32.340332,24.1040039 C29.5512695,24.1040039 29.5512695,24.1040039 27.3172852,25.3098633 L27.0009766,25.4882812 L27.9677734,16.7651367 L40.909668,16.7651367 L40.909668,13.0078125 Z" id="Combined-Shape" fill="url(#megaminx-gradient)">
		</path>
	</g>
</svg>
