<svg height="75" viewBox="0 0 100 75" width="100" xmlns="http://www.w3.org/2000/svg">
	<g fill="none" stroke="var(--colors-black-main)" stroke-width=".5">
		<g fill="var(--colors-green-main)" transform="translate(26.0625 1.0625)">
			<path d="m0 0v2.25h2.25v-2.25z" fill="var(--sticker-300)" />
			<path d="m2.25 0v2.25h2.25v-2.25z" fill="var(--sticker-301)" />
			<path d="m4.5 0v2.25h2.25v-2.25z" fill="var(--sticker-302)" />
			<path d="m6.75 0v2.25h2.25v-2.25z" fill="var(--sticker-303)" />
			<path d="m9 0v2.25h2.25v-2.25z" fill="var(--sticker-304)" />
			<path d="m11.25 0v2.25h2.375v-2.25z" fill="var(--sticker-305)" />
			<path d="m13.625 0v2.25h2.25v-2.25z" fill="var(--sticker-306)" />
			<path d="m15.875 0v2.25h2.25v-2.25z" fill="var(--sticker-307)" />
			<path d="m18.125 0v2.25h2.25v-2.25z" fill="var(--sticker-308)" />
			<path d="m20.375 0v2.25h2.25v-2.25z" fill="var(--sticker-309)" />
			<path d="m0 2.25v2.25h2.25v-2.25z" fill="var(--sticker-310)" />
			<path d="m2.25 2.25v2.25h2.25v-2.25z" fill="var(--sticker-311)" />
			<path d="m4.5 2.25v2.25h2.25v-2.25z" fill="var(--sticker-312)" />
			<path d="m6.75 2.25v2.25h2.25v-2.25z" fill="var(--sticker-313)" />
			<path d="m9 2.25v2.25h2.25v-2.25z" fill="var(--sticker-314)" />
			<path d="m11.25 2.25v2.25h2.375v-2.25z" fill="var(--sticker-315)" />
			<path d="m13.625 2.25v2.25h2.25v-2.25z" fill="var(--sticker-316)" />
			<path d="m15.875 2.25v2.25h2.25v-2.25z" fill="var(--sticker-317)" />
			<path d="m18.125 2.25v2.25h2.25v-2.25z" fill="var(--sticker-318)" />
			<path d="m20.375 2.25v2.25h2.25v-2.25z" fill="var(--sticker-319)" />
			<path d="m0 4.5v2.25h2.25v-2.25z" fill="var(--sticker-320)" />
			<path d="m2.25 4.5v2.25h2.25v-2.25z" fill="var(--sticker-321)" />
			<path d="m4.5 4.5v2.25h2.25v-2.25z" fill="var(--sticker-322)" />
			<path d="m6.75 4.5v2.25h2.25v-2.25z" fill="var(--sticker-323)" />
			<path d="m9 4.5v2.25h2.25v-2.25z" fill="var(--sticker-324)" />
			<path d="m11.25 4.5v2.25h2.375v-2.25z" fill="var(--sticker-325)" />
			<path d="m13.625 4.5v2.25h2.25v-2.25z" fill="var(--sticker-326)" />
			<path d="m15.875 4.5v2.25h2.25v-2.25z" fill="var(--sticker-327)" />
			<path d="m18.125 4.5v2.25h2.25v-2.25z" fill="var(--sticker-328)" />
			<path d="m20.375 4.5v2.25h2.25v-2.25z" fill="var(--sticker-329)" />
			<path d="m0 6.75v2.25h2.25v-2.25z" fill="var(--sticker-330)" />
			<path d="m2.25 6.75v2.25h2.25v-2.25z" fill="var(--sticker-331)" />
			<path d="m4.5 6.75v2.25h2.25v-2.25z" fill="var(--sticker-332)" />
			<path d="m6.75 6.75v2.25h2.25v-2.25z" fill="var(--sticker-333)" />
			<path d="m9 6.75v2.25h2.25v-2.25z" fill="var(--sticker-334)" />
			<path d="m11.25 6.75v2.25h2.375v-2.25z" fill="var(--sticker-335)" />
			<path d="m13.625 6.75v2.25h2.25v-2.25z" fill="var(--sticker-336)" />
			<path d="m15.875 6.75v2.25h2.25v-2.25z" fill="var(--sticker-337)" />
			<path d="m18.125 6.75v2.25h2.25v-2.25z" fill="var(--sticker-338)" />
			<path d="m20.375 6.75v2.25h2.25v-2.25z" fill="var(--sticker-339)" />
			<path d="m0 9v2.375h2.25v-2.375z" fill="var(--sticker-340)" />
			<path d="m2.25 9v2.375h2.25v-2.375z" fill="var(--sticker-341)" />
			<path d="m4.5 9v2.375h2.25v-2.375z" fill="var(--sticker-342)" />
			<path d="m6.75 9v2.375h2.25v-2.375z" fill="var(--sticker-343)" />
			<path d="m9 9v2.375h2.25v-2.375z" fill="var(--sticker-344)" />
			<path d="m11.25 9v2.375h2.375v-2.375z" fill="var(--sticker-345)" />
			<path d="m13.625 9v2.375h2.25v-2.375z" fill="var(--sticker-346)" />
			<path d="m15.875 9v2.375h2.25v-2.375z" fill="var(--sticker-347)" />
			<path d="m18.125 9v2.375h2.25v-2.375z" fill="var(--sticker-348)" />
			<path d="m20.375 9v2.375h2.25v-2.375z" fill="var(--sticker-349)" />
			<path d="m0 11.375v2.25h2.25v-2.25z" fill="var(--sticker-350)" />
			<path d="m2.25 11.375v2.25h2.25v-2.25z" fill="var(--sticker-351)" />
			<path d="m4.5 11.375v2.25h2.25v-2.25z" fill="var(--sticker-352)" />
			<path d="m6.75 11.375v2.25h2.25v-2.25z" fill="var(--sticker-353)" />
			<path d="m9 11.375v2.25h2.25v-2.25z" fill="var(--sticker-354)" />
			<path d="m11.25 11.375v2.25h2.375v-2.25z" fill="var(--sticker-355)" />
			<path d="m13.625 11.375v2.25h2.25v-2.25z" fill="var(--sticker-356)" />
			<path d="m15.875 11.375v2.25h2.25v-2.25z" fill="var(--sticker-357)" />
			<path d="m18.125 11.375v2.25h2.25v-2.25z" fill="var(--sticker-358)" />
			<path d="m20.375 11.375v2.25h2.25v-2.25z" fill="var(--sticker-359)" />
			<path d="m0 13.625v2.25h2.25v-2.25z" fill="var(--sticker-360)" />
			<path d="m2.25 13.625v2.25h2.25v-2.25z" fill="var(--sticker-361)" />
			<path d="m4.5 13.625v2.25h2.25v-2.25z" fill="var(--sticker-362)" />
			<path d="m6.75 13.625v2.25h2.25v-2.25z" fill="var(--sticker-363)" />
			<path d="m9 13.625v2.25h2.25v-2.25z" fill="var(--sticker-364)" />
			<path d="m11.25 13.625v2.25h2.375v-2.25z" fill="var(--sticker-365)" />
			<path d="m13.625 13.625v2.25h2.25v-2.25z" fill="var(--sticker-366)" />
			<path d="m15.875 13.625v2.25h2.25v-2.25z" fill="var(--sticker-367)" />
			<path d="m18.125 13.625v2.25h2.25v-2.25z" fill="var(--sticker-368)" />
			<path d="m20.375 13.625v2.25h2.25v-2.25z" fill="var(--sticker-369)" />
			<path d="m0 15.875v2.25h2.25v-2.25z" fill="var(--sticker-370)" />
			<path d="m2.25 15.875v2.25h2.25v-2.25z" fill="var(--sticker-371)" />
			<path d="m4.5 15.875v2.25h2.25v-2.25z" fill="var(--sticker-372)" />
			<path d="m6.75 15.875v2.25h2.25v-2.25z" fill="var(--sticker-373)" />
			<path d="m9 15.875v2.25h2.25v-2.25z" fill="var(--sticker-374)" />
			<path d="m11.25 15.875v2.25h2.375v-2.25z" fill="var(--sticker-375)" />
			<path d="m13.625 15.875v2.25h2.25v-2.25z" fill="var(--sticker-376)" />
			<path d="m15.875 15.875v2.25h2.25v-2.25z" fill="var(--sticker-377)" />
			<path d="m18.125 15.875v2.25h2.25v-2.25z" fill="var(--sticker-378)" />
			<path d="m20.375 15.875v2.25h2.25v-2.25z" fill="var(--sticker-379)" />
			<path d="m0 18.125v2.25h2.25v-2.25z" fill="var(--sticker-380)" />
			<path d="m2.25 18.125v2.25h2.25v-2.25z" fill="var(--sticker-381)" />
			<path d="m4.5 18.125v2.25h2.25v-2.25z" fill="var(--sticker-382)" />
			<path d="m6.75 18.125v2.25h2.25v-2.25z" fill="var(--sticker-383)" />
			<path d="m9 18.125v2.25h2.25v-2.25z" fill="var(--sticker-384)" />
			<path d="m11.25 18.125v2.25h2.375v-2.25z" fill="var(--sticker-385)" />
			<path d="m13.625 18.125v2.25h2.25v-2.25z" fill="var(--sticker-386)" />
			<path d="m15.875 18.125v2.25h2.25v-2.25z" fill="var(--sticker-387)" />
			<path d="m18.125 18.125v2.25h2.25v-2.25z" fill="var(--sticker-388)" />
			<path d="m20.375 18.125v2.25h2.25v-2.25z" fill="var(--sticker-389)" />
			<path d="m0 20.375v2.25h2.25v-2.25z" fill="var(--sticker-390)" />
			<path d="m2.25 20.375v2.25h2.25v-2.25z" fill="var(--sticker-391)" />
			<path d="m4.5 20.375v2.25h2.25v-2.25z" fill="var(--sticker-392)" />
			<path d="m6.75 20.375v2.25h2.25v-2.25z" fill="var(--sticker-393)" />
			<path d="m9 20.375v2.25h2.25v-2.25z" fill="var(--sticker-394)" />
			<path d="m11.25 20.375v2.25h2.375v-2.25z" fill="var(--sticker-395)" />
			<path d="m13.625 20.375v2.25h2.25v-2.25z" fill="var(--sticker-396)" />
			<path d="m15.875 20.375v2.25h2.25v-2.25z" fill="var(--sticker-397)" />
			<path d="m18.125 20.375v2.25h2.25v-2.25z" fill="var(--sticker-398)" />
			<path d="m20.375 20.375v2.25h2.25v-2.25z" fill="var(--sticker-399)" />
		</g>
		<g fill="var(--colors-red-main)" transform="translate(1.0625 26.0625)">
			<path d="m0 0v2.25h2.25v-2.25z" fill="var(--sticker-109)" />
			<path d="m2.25 0v2.25h2.25v-2.25z" fill="var(--sticker-108)" />
			<path d="m4.5 0v2.25h2.25v-2.25z" fill="var(--sticker-107)" />
			<path d="m6.75 0v2.25h2.25v-2.25z" fill="var(--sticker-106)" />
			<path d="m9 0v2.25h2.25v-2.25z" fill="var(--sticker-105)" />
			<path d="m11.25 0v2.25h2.375v-2.25z" fill="var(--sticker-104)" />
			<path d="m13.625 0v2.25h2.25v-2.25z" fill="var(--sticker-103)" />
			<path d="m15.875 0v2.25h2.25v-2.25z" fill="var(--sticker-102)" />
			<path d="m18.125 0v2.25h2.25v-2.25z" fill="var(--sticker-101)" />
			<path d="m20.375 0v2.25h2.25v-2.25z" fill="var(--sticker-100)" />
			<path d="m0 2.25v2.25h2.25v-2.25z" fill="var(--sticker-119)" />
			<path d="m2.25 2.25v2.25h2.25v-2.25z" fill="var(--sticker-118)" />
			<path d="m4.5 2.25v2.25h2.25v-2.25z" fill="var(--sticker-117)" />
			<path d="m6.75 2.25v2.25h2.25v-2.25z" fill="var(--sticker-116)" />
			<path d="m9 2.25v2.25h2.25v-2.25z" fill="var(--sticker-115)" />
			<path d="m11.25 2.25v2.25h2.375v-2.25z" fill="var(--sticker-114)" />
			<path d="m13.625 2.25v2.25h2.25v-2.25z" fill="var(--sticker-113)" />
			<path d="m15.875 2.25v2.25h2.25v-2.25z" fill="var(--sticker-112)" />
			<path d="m18.125 2.25v2.25h2.25v-2.25z" fill="var(--sticker-111)" />
			<path d="m20.375 2.25v2.25h2.25v-2.25z" fill="var(--sticker-110)" />
			<path d="m0 4.5v2.25h2.25v-2.25z" fill="var(--sticker-129)" />
			<path d="m2.25 4.5v2.25h2.25v-2.25z" fill="var(--sticker-128)" />
			<path d="m4.5 4.5v2.25h2.25v-2.25z" fill="var(--sticker-127)" />
			<path d="m6.75 4.5v2.25h2.25v-2.25z" fill="var(--sticker-126)" />
			<path d="m9 4.5v2.25h2.25v-2.25z" fill="var(--sticker-125)" />
			<path d="m11.25 4.5v2.25h2.375v-2.25z" fill="var(--sticker-124)" />
			<path d="m13.625 4.5v2.25h2.25v-2.25z" fill="var(--sticker-123)" />
			<path d="m15.875 4.5v2.25h2.25v-2.25z" fill="var(--sticker-122)" />
			<path d="m18.125 4.5v2.25h2.25v-2.25z" fill="var(--sticker-121)" />
			<path d="m20.375 4.5v2.25h2.25v-2.25z" fill="var(--sticker-120)" />
			<path d="m0 6.75v2.25h2.25v-2.25z" fill="var(--sticker-139)" />
			<path d="m2.25 6.75v2.25h2.25v-2.25z" fill="var(--sticker-138)" />
			<path d="m4.5 6.75v2.25h2.25v-2.25z" fill="var(--sticker-137)" />
			<path d="m6.75 6.75v2.25h2.25v-2.25z" fill="var(--sticker-136)" />
			<path d="m9 6.75v2.25h2.25v-2.25z" fill="var(--sticker-135)" />
			<path d="m11.25 6.75v2.25h2.375v-2.25z" fill="var(--sticker-134)" />
			<path d="m13.625 6.75v2.25h2.25v-2.25z" fill="var(--sticker-133)" />
			<path d="m15.875 6.75v2.25h2.25v-2.25z" fill="var(--sticker-132)" />
			<path d="m18.125 6.75v2.25h2.25v-2.25z" fill="var(--sticker-131)" />
			<path d="m20.375 6.75v2.25h2.25v-2.25z" fill="var(--sticker-130)" />
			<path d="m0 9v2.375h2.25v-2.375z" fill="var(--sticker-149)" />
			<path d="m2.25 9v2.375h2.25v-2.375z" fill="var(--sticker-148)" />
			<path d="m4.5 9v2.375h2.25v-2.375z" fill="var(--sticker-147)" />
			<path d="m6.75 9v2.375h2.25v-2.375z" fill="var(--sticker-146)" />
			<path d="m9 9v2.375h2.25v-2.375z" fill="var(--sticker-145)" />
			<path d="m11.25 9v2.375h2.375v-2.375z" fill="var(--sticker-144)" />
			<path d="m13.625 9v2.375h2.25v-2.375z" fill="var(--sticker-143)" />
			<path d="m15.875 9v2.375h2.25v-2.375z" fill="var(--sticker-142)" />
			<path d="m18.125 9v2.375h2.25v-2.375z" fill="var(--sticker-141)" />
			<path d="m20.375 9v2.375h2.25v-2.375z" fill="var(--sticker-140)" />
			<path d="m0 11.375v2.25h2.25v-2.25z" fill="var(--sticker-159)" />
			<path d="m2.25 11.375v2.25h2.25v-2.25z" fill="var(--sticker-158)" />
			<path d="m4.5 11.375v2.25h2.25v-2.25z" fill="var(--sticker-157)" />
			<path d="m6.75 11.375v2.25h2.25v-2.25z" fill="var(--sticker-156)" />
			<path d="m9 11.375v2.25h2.25v-2.25z" fill="var(--sticker-155)" />
			<path d="m11.25 11.375v2.25h2.375v-2.25z" fill="var(--sticker-154)" />
			<path d="m13.625 11.375v2.25h2.25v-2.25z" fill="var(--sticker-153)" />
			<path d="m15.875 11.375v2.25h2.25v-2.25z" fill="var(--sticker-152)" />
			<path d="m18.125 11.375v2.25h2.25v-2.25z" fill="var(--sticker-151)" />
			<path d="m20.375 11.375v2.25h2.25v-2.25z" fill="var(--sticker-150)" />
			<path d="m0 13.625v2.25h2.25v-2.25z" fill="var(--sticker-169)" />
			<path d="m2.25 13.625v2.25h2.25v-2.25z" fill="var(--sticker-168)" />
			<path d="m4.5 13.625v2.25h2.25v-2.25z" fill="var(--sticker-167)" />
			<path d="m6.75 13.625v2.25h2.25v-2.25z" fill="var(--sticker-166)" />
			<path d="m9 13.625v2.25h2.25v-2.25z" fill="var(--sticker-165)" />
			<path d="m11.25 13.625v2.25h2.375v-2.25z" fill="var(--sticker-164)" />
			<path d="m13.625 13.625v2.25h2.25v-2.25z" fill="var(--sticker-163)" />
			<path d="m15.875 13.625v2.25h2.25v-2.25z" fill="var(--sticker-162)" />
			<path d="m18.125 13.625v2.25h2.25v-2.25z" fill="var(--sticker-161)" />
			<path d="m20.375 13.625v2.25h2.25v-2.25z" fill="var(--sticker-160)" />
			<path d="m0 15.875v2.25h2.25v-2.25z" fill="var(--sticker-179)" />
			<path d="m2.25 15.875v2.25h2.25v-2.25z" fill="var(--sticker-178)" />
			<path d="m4.5 15.875v2.25h2.25v-2.25z" fill="var(--sticker-177)" />
			<path d="m6.75 15.875v2.25h2.25v-2.25z" fill="var(--sticker-176)" />
			<path d="m9 15.875v2.25h2.25v-2.25z" fill="var(--sticker-175)" />
			<path d="m11.25 15.875v2.25h2.375v-2.25z" fill="var(--sticker-174)" />
			<path d="m13.625 15.875v2.25h2.25v-2.25z" fill="var(--sticker-173)" />
			<path d="m15.875 15.875v2.25h2.25v-2.25z" fill="var(--sticker-172)" />
			<path d="m18.125 15.875v2.25h2.25v-2.25z" fill="var(--sticker-171)" />
			<path d="m20.375 15.875v2.25h2.25v-2.25z" fill="var(--sticker-170)" />
			<path d="m0 18.125v2.25h2.25v-2.25z" fill="var(--sticker-189)" />
			<path d="m2.25 18.125v2.25h2.25v-2.25z" fill="var(--sticker-188)" />
			<path d="m4.5 18.125v2.25h2.25v-2.25z" fill="var(--sticker-187)" />
			<path d="m6.75 18.125v2.25h2.25v-2.25z" fill="var(--sticker-186)" />
			<path d="m9 18.125v2.25h2.25v-2.25z" fill="var(--sticker-185)" />
			<path d="m11.25 18.125v2.25h2.375v-2.25z" fill="var(--sticker-184)" />
			<path d="m13.625 18.125v2.25h2.25v-2.25z" fill="var(--sticker-183)" />
			<path d="m15.875 18.125v2.25h2.25v-2.25z" fill="var(--sticker-182)" />
			<path d="m18.125 18.125v2.25h2.25v-2.25z" fill="var(--sticker-181)" />
			<path d="m20.375 18.125v2.25h2.25v-2.25z" fill="var(--sticker-180)" />
			<path d="m0 20.375v2.25h2.25v-2.25z" fill="var(--sticker-199)" />
			<path d="m2.25 20.375v2.25h2.25v-2.25z" fill="var(--sticker-198)" />
			<path d="m4.5 20.375v2.25h2.25v-2.25z" fill="var(--sticker-197)" />
			<path d="m6.75 20.375v2.25h2.25v-2.25z" fill="var(--sticker-196)" />
			<path d="m9 20.375v2.25h2.25v-2.25z" fill="var(--sticker-195)" />
			<path d="m11.25 20.375v2.25h2.375v-2.25z" fill="var(--sticker-194)" />
			<path d="m13.625 20.375v2.25h2.25v-2.25z" fill="var(--sticker-193)" />
			<path d="m15.875 20.375v2.25h2.25v-2.25z" fill="var(--sticker-192)" />
			<path d="m18.125 20.375v2.25h2.25v-2.25z" fill="var(--sticker-191)" />
			<path d="m20.375 20.375v2.25h2.25v-2.25z" fill="var(--sticker-190)" />
		</g>
		<g fill="var(--colors-yellow-main)" transform="translate(26.0625 26.0625)">
			<path d="m0 0v2.25h2.25v-2.25z" fill="var(--sticker-500)" />
			<path d="m2.25 0v2.25h2.25v-2.25z" fill="var(--sticker-501)" />
			<path d="m4.5 0v2.25h2.25v-2.25z" fill="var(--sticker-502)" />
			<path d="m6.75 0v2.25h2.25v-2.25z" fill="var(--sticker-503)" />
			<path d="m9 0v2.25h2.25v-2.25z" fill="var(--sticker-504)" />
			<path d="m11.25 0v2.25h2.375v-2.25z" fill="var(--sticker-505)" />
			<path d="m13.625 0v2.25h2.25v-2.25z" fill="var(--sticker-506)" />
			<path d="m15.875 0v2.25h2.25v-2.25z" fill="var(--sticker-507)" />
			<path d="m18.125 0v2.25h2.25v-2.25z" fill="var(--sticker-508)" />
			<path d="m20.375 0v2.25h2.25v-2.25z" fill="var(--sticker-509)" />
			<path d="m0 2.25v2.25h2.25v-2.25z" fill="var(--sticker-510)" />
			<path d="m2.25 2.25v2.25h2.25v-2.25z" fill="var(--sticker-511)" />
			<path d="m4.5 2.25v2.25h2.25v-2.25z" fill="var(--sticker-512)" />
			<path d="m6.75 2.25v2.25h2.25v-2.25z" fill="var(--sticker-513)" />
			<path d="m9 2.25v2.25h2.25v-2.25z" fill="var(--sticker-514)" />
			<path d="m11.25 2.25v2.25h2.375v-2.25z" fill="var(--sticker-515)" />
			<path d="m13.625 2.25v2.25h2.25v-2.25z" fill="var(--sticker-516)" />
			<path d="m15.875 2.25v2.25h2.25v-2.25z" fill="var(--sticker-517)" />
			<path d="m18.125 2.25v2.25h2.25v-2.25z" fill="var(--sticker-518)" />
			<path d="m20.375 2.25v2.25h2.25v-2.25z" fill="var(--sticker-519)" />
			<path d="m0 4.5v2.25h2.25v-2.25z" fill="var(--sticker-520)" />
			<path d="m2.25 4.5v2.25h2.25v-2.25z" fill="var(--sticker-521)" />
			<path d="m4.5 4.5v2.25h2.25v-2.25z" fill="var(--sticker-522)" />
			<path d="m6.75 4.5v2.25h2.25v-2.25z" fill="var(--sticker-523)" />
			<path d="m9 4.5v2.25h2.25v-2.25z" fill="var(--sticker-524)" />
			<path d="m11.25 4.5v2.25h2.375v-2.25z" fill="var(--sticker-525)" />
			<path d="m13.625 4.5v2.25h2.25v-2.25z" fill="var(--sticker-526)" />
			<path d="m15.875 4.5v2.25h2.25v-2.25z" fill="var(--sticker-527)" />
			<path d="m18.125 4.5v2.25h2.25v-2.25z" fill="var(--sticker-528)" />
			<path d="m20.375 4.5v2.25h2.25v-2.25z" fill="var(--sticker-529)" />
			<path d="m0 6.75v2.25h2.25v-2.25z" fill="var(--sticker-530)" />
			<path d="m2.25 6.75v2.25h2.25v-2.25z" fill="var(--sticker-531)" />
			<path d="m4.5 6.75v2.25h2.25v-2.25z" fill="var(--sticker-532)" />
			<path d="m6.75 6.75v2.25h2.25v-2.25z" fill="var(--sticker-533)" />
			<path d="m9 6.75v2.25h2.25v-2.25z" fill="var(--sticker-534)" />
			<path d="m11.25 6.75v2.25h2.375v-2.25z" fill="var(--sticker-535)" />
			<path d="m13.625 6.75v2.25h2.25v-2.25z" fill="var(--sticker-536)" />
			<path d="m15.875 6.75v2.25h2.25v-2.25z" fill="var(--sticker-537)" />
			<path d="m18.125 6.75v2.25h2.25v-2.25z" fill="var(--sticker-538)" />
			<path d="m20.375 6.75v2.25h2.25v-2.25z" fill="var(--sticker-539)" />
			<path d="m0 9v2.375h2.25v-2.375z" fill="var(--sticker-540)" />
			<path d="m2.25 9v2.375h2.25v-2.375z" fill="var(--sticker-541)" />
			<path d="m4.5 9v2.375h2.25v-2.375z" fill="var(--sticker-542)" />
			<path d="m6.75 9v2.375h2.25v-2.375z" fill="var(--sticker-543)" />
			<path d="m9 9v2.375h2.25v-2.375z" fill="var(--sticker-544)" />
			<path d="m11.25 9v2.375h2.375v-2.375z" fill="var(--sticker-545)" />
			<path d="m13.625 9v2.375h2.25v-2.375z" fill="var(--sticker-546)" />
			<path d="m15.875 9v2.375h2.25v-2.375z" fill="var(--sticker-547)" />
			<path d="m18.125 9v2.375h2.25v-2.375z" fill="var(--sticker-548)" />
			<path d="m20.375 9v2.375h2.25v-2.375z" fill="var(--sticker-549)" />
			<path d="m0 11.375v2.25h2.25v-2.25z" fill="var(--sticker-550)" />
			<path d="m2.25 11.375v2.25h2.25v-2.25z" fill="var(--sticker-551)" />
			<path d="m4.5 11.375v2.25h2.25v-2.25z" fill="var(--sticker-552)" />
			<path d="m6.75 11.375v2.25h2.25v-2.25z" fill="var(--sticker-553)" />
			<path d="m9 11.375v2.25h2.25v-2.25z" fill="var(--sticker-554)" />
			<path d="m11.25 11.375v2.25h2.375v-2.25z" fill="var(--sticker-555)" />
			<path d="m13.625 11.375v2.25h2.25v-2.25z" fill="var(--sticker-556)" />
			<path d="m15.875 11.375v2.25h2.25v-2.25z" fill="var(--sticker-557)" />
			<path d="m18.125 11.375v2.25h2.25v-2.25z" fill="var(--sticker-558)" />
			<path d="m20.375 11.375v2.25h2.25v-2.25z" fill="var(--sticker-559)" />
			<path d="m0 13.625v2.25h2.25v-2.25z" fill="var(--sticker-560)" />
			<path d="m2.25 13.625v2.25h2.25v-2.25z" fill="var(--sticker-561)" />
			<path d="m4.5 13.625v2.25h2.25v-2.25z" fill="var(--sticker-562)" />
			<path d="m6.75 13.625v2.25h2.25v-2.25z" fill="var(--sticker-563)" />
			<path d="m9 13.625v2.25h2.25v-2.25z" fill="var(--sticker-564)" />
			<path d="m11.25 13.625v2.25h2.375v-2.25z" fill="var(--sticker-565)" />
			<path d="m13.625 13.625v2.25h2.25v-2.25z" fill="var(--sticker-566)" />
			<path d="m15.875 13.625v2.25h2.25v-2.25z" fill="var(--sticker-567)" />
			<path d="m18.125 13.625v2.25h2.25v-2.25z" fill="var(--sticker-568)" />
			<path d="m20.375 13.625v2.25h2.25v-2.25z" fill="var(--sticker-569)" />
			<path d="m0 15.875v2.25h2.25v-2.25z" fill="var(--sticker-570)" />
			<path d="m2.25 15.875v2.25h2.25v-2.25z" fill="var(--sticker-571)" />
			<path d="m4.5 15.875v2.25h2.25v-2.25z" fill="var(--sticker-572)" />
			<path d="m6.75 15.875v2.25h2.25v-2.25z" fill="var(--sticker-573)" />
			<path d="m9 15.875v2.25h2.25v-2.25z" fill="var(--sticker-574)" />
			<path d="m11.25 15.875v2.25h2.375v-2.25z" fill="var(--sticker-575)" />
			<path d="m13.625 15.875v2.25h2.25v-2.25z" fill="var(--sticker-576)" />
			<path d="m15.875 15.875v2.25h2.25v-2.25z" fill="var(--sticker-577)" />
			<path d="m18.125 15.875v2.25h2.25v-2.25z" fill="var(--sticker-578)" />
			<path d="m20.375 15.875v2.25h2.25v-2.25z" fill="var(--sticker-579)" />
			<path d="m0 18.125v2.25h2.25v-2.25z" fill="var(--sticker-580)" />
			<path d="m2.25 18.125v2.25h2.25v-2.25z" fill="var(--sticker-581)" />
			<path d="m4.5 18.125v2.25h2.25v-2.25z" fill="var(--sticker-582)" />
			<path d="m6.75 18.125v2.25h2.25v-2.25z" fill="var(--sticker-583)" />
			<path d="m9 18.125v2.25h2.25v-2.25z" fill="var(--sticker-584)" />
			<path d="m11.25 18.125v2.25h2.375v-2.25z" fill="var(--sticker-585)" />
			<path d="m13.625 18.125v2.25h2.25v-2.25z" fill="var(--sticker-586)" />
			<path d="m15.875 18.125v2.25h2.25v-2.25z" fill="var(--sticker-587)" />
			<path d="m18.125 18.125v2.25h2.25v-2.25z" fill="var(--sticker-588)" />
			<path d="m20.375 18.125v2.25h2.25v-2.25z" fill="var(--sticker-589)" />
			<path d="m0 20.375v2.25h2.25v-2.25z" fill="var(--sticker-590)" />
			<path d="m2.25 20.375v2.25h2.25v-2.25z" fill="var(--sticker-591)" />
			<path d="m4.5 20.375v2.25h2.25v-2.25z" fill="var(--sticker-592)" />
			<path d="m6.75 20.375v2.25h2.25v-2.25z" fill="var(--sticker-593)" />
			<path d="m9 20.375v2.25h2.25v-2.25z" fill="var(--sticker-594)" />
			<path d="m11.25 20.375v2.25h2.375v-2.25z" fill="var(--sticker-595)" />
			<path d="m13.625 20.375v2.25h2.25v-2.25z" fill="var(--sticker-596)" />
			<path d="m15.875 20.375v2.25h2.25v-2.25z" fill="var(--sticker-597)" />
			<path d="m18.125 20.375v2.25h2.25v-2.25z" fill="var(--sticker-598)" />
			<path d="m20.375 20.375v2.25h2.25v-2.25z" fill="var(--sticker-599)" />
		</g>
		<g fill="var(--colors-orange-main)" transform="translate(51.0625 26.0625)">
			<path d="m0 0v2.25h2.25v-2.25z" fill="var(--sticker-400)" />
			<path d="m2.25 0v2.25h2.25v-2.25z" fill="var(--sticker-401)" />
			<path d="m4.5 0v2.25h2.25v-2.25z" fill="var(--sticker-402)" />
			<path d="m6.75 0v2.25h2.25v-2.25z" fill="var(--sticker-403)" />
			<path d="m9 0v2.25h2.375v-2.25z" fill="var(--sticker-404)" />
			<path d="m11.375 0v2.25h2.25v-2.25z" fill="var(--sticker-405)" />
			<path d="m13.625 0v2.25h2.25v-2.25z" fill="var(--sticker-406)" />
			<path d="m15.875 0v2.25h2.25v-2.25z" fill="var(--sticker-407)" />
			<path d="m18.125 0v2.25h2.25v-2.25z" fill="var(--sticker-408)" />
			<path d="m20.375 0v2.25h2.25v-2.25z" fill="var(--sticker-409)" />
			<path d="m0 2.25v2.25h2.25v-2.25z" fill="var(--sticker-410)" />
			<path d="m2.25 2.25v2.25h2.25v-2.25z" fill="var(--sticker-411)" />
			<path d="m4.5 2.25v2.25h2.25v-2.25z" fill="var(--sticker-412)" />
			<path d="m6.75 2.25v2.25h2.25v-2.25z" fill="var(--sticker-413)" />
			<path d="m9 2.25v2.25h2.375v-2.25z" fill="var(--sticker-414)" />
			<path d="m11.375 2.25v2.25h2.25v-2.25z" fill="var(--sticker-415)" />
			<path d="m13.625 2.25v2.25h2.25v-2.25z" fill="var(--sticker-416)" />
			<path d="m15.875 2.25v2.25h2.25v-2.25z" fill="var(--sticker-417)" />
			<path d="m18.125 2.25v2.25h2.25v-2.25z" fill="var(--sticker-418)" />
			<path d="m20.375 2.25v2.25h2.25v-2.25z" fill="var(--sticker-419)" />
			<path d="m0 4.5v2.25h2.25v-2.25z" fill="var(--sticker-420)" />
			<path d="m2.25 4.5v2.25h2.25v-2.25z" fill="var(--sticker-421)" />
			<path d="m4.5 4.5v2.25h2.25v-2.25z" fill="var(--sticker-422)" />
			<path d="m6.75 4.5v2.25h2.25v-2.25z" fill="var(--sticker-423)" />
			<path d="m9 4.5v2.25h2.375v-2.25z" fill="var(--sticker-424)" />
			<path d="m11.375 4.5v2.25h2.25v-2.25z" fill="var(--sticker-425)" />
			<path d="m13.625 4.5v2.25h2.25v-2.25z" fill="var(--sticker-426)" />
			<path d="m15.875 4.5v2.25h2.25v-2.25z" fill="var(--sticker-427)" />
			<path d="m18.125 4.5v2.25h2.25v-2.25z" fill="var(--sticker-428)" />
			<path d="m20.375 4.5v2.25h2.25v-2.25z" fill="var(--sticker-429)" />
			<path d="m0 6.75v2.25h2.25v-2.25z" fill="var(--sticker-430)" />
			<path d="m2.25 6.75v2.25h2.25v-2.25z" fill="var(--sticker-431)" />
			<path d="m4.5 6.75v2.25h2.25v-2.25z" fill="var(--sticker-432)" />
			<path d="m6.75 6.75v2.25h2.25v-2.25z" fill="var(--sticker-433)" />
			<path d="m9 6.75v2.25h2.375v-2.25z" fill="var(--sticker-434)" />
			<path d="m11.375 6.75v2.25h2.25v-2.25z" fill="var(--sticker-435)" />
			<path d="m13.625 6.75v2.25h2.25v-2.25z" fill="var(--sticker-436)" />
			<path d="m15.875 6.75v2.25h2.25v-2.25z" fill="var(--sticker-437)" />
			<path d="m18.125 6.75v2.25h2.25v-2.25z" fill="var(--sticker-438)" />
			<path d="m20.375 6.75v2.25h2.25v-2.25z" fill="var(--sticker-439)" />
			<path d="m0 9v2.375h2.25v-2.375z" fill="var(--sticker-440)" />
			<path d="m2.25 9v2.375h2.25v-2.375z" fill="var(--sticker-441)" />
			<path d="m4.5 9v2.375h2.25v-2.375z" fill="var(--sticker-442)" />
			<path d="m6.75 9v2.375h2.25v-2.375z" fill="var(--sticker-443)" />
			<path d="m9 9v2.375h2.375v-2.375z" fill="var(--sticker-444)" />
			<path d="m11.375 9v2.375h2.25v-2.375z" fill="var(--sticker-445)" />
			<path d="m13.625 9v2.375h2.25v-2.375z" fill="var(--sticker-446)" />
			<path d="m15.875 9v2.375h2.25v-2.375z" fill="var(--sticker-447)" />
			<path d="m18.125 9v2.375h2.25v-2.375z" fill="var(--sticker-448)" />
			<path d="m20.375 9v2.375h2.25v-2.375z" fill="var(--sticker-449)" />
			<path d="m0 11.375v2.25h2.25v-2.25z" fill="var(--sticker-450)" />
			<path d="m2.25 11.375v2.25h2.25v-2.25z" fill="var(--sticker-451)" />
			<path d="m4.5 11.375v2.25h2.25v-2.25z" fill="var(--sticker-452)" />
			<path d="m6.75 11.375v2.25h2.25v-2.25z" fill="var(--sticker-453)" />
			<path d="m9 11.375v2.25h2.375v-2.25z" fill="var(--sticker-454)" />
			<path d="m11.375 11.375v2.25h2.25v-2.25z" fill="var(--sticker-455)" />
			<path d="m13.625 11.375v2.25h2.25v-2.25z" fill="var(--sticker-456)" />
			<path d="m15.875 11.375v2.25h2.25v-2.25z" fill="var(--sticker-457)" />
			<path d="m18.125 11.375v2.25h2.25v-2.25z" fill="var(--sticker-458)" />
			<path d="m20.375 11.375v2.25h2.25v-2.25z" fill="var(--sticker-459)" />
			<path d="m0 13.625v2.25h2.25v-2.25z" fill="var(--sticker-460)" />
			<path d="m2.25 13.625v2.25h2.25v-2.25z" fill="var(--sticker-461)" />
			<path d="m4.5 13.625v2.25h2.25v-2.25z" fill="var(--sticker-462)" />
			<path d="m6.75 13.625v2.25h2.25v-2.25z" fill="var(--sticker-463)" />
			<path d="m9 13.625v2.25h2.375v-2.25z" fill="var(--sticker-464)" />
			<path d="m11.375 13.625v2.25h2.25v-2.25z" fill="var(--sticker-465)" />
			<path d="m13.625 13.625v2.25h2.25v-2.25z" fill="var(--sticker-466)" />
			<path d="m15.875 13.625v2.25h2.25v-2.25z" fill="var(--sticker-467)" />
			<path d="m18.125 13.625v2.25h2.25v-2.25z" fill="var(--sticker-468)" />
			<path d="m20.375 13.625v2.25h2.25v-2.25z" fill="var(--sticker-469)" />
			<path d="m0 15.875v2.25h2.25v-2.25z" fill="var(--sticker-470)" />
			<path d="m2.25 15.875v2.25h2.25v-2.25z" fill="var(--sticker-471)" />
			<path d="m4.5 15.875v2.25h2.25v-2.25z" fill="var(--sticker-472)" />
			<path d="m6.75 15.875v2.25h2.25v-2.25z" fill="var(--sticker-473)" />
			<path d="m9 15.875v2.25h2.375v-2.25z" fill="var(--sticker-474)" />
			<path d="m11.375 15.875v2.25h2.25v-2.25z" fill="var(--sticker-475)" />
			<path d="m13.625 15.875v2.25h2.25v-2.25z" fill="var(--sticker-476)" />
			<path d="m15.875 15.875v2.25h2.25v-2.25z" fill="var(--sticker-477)" />
			<path d="m18.125 15.875v2.25h2.25v-2.25z" fill="var(--sticker-478)" />
			<path d="m20.375 15.875v2.25h2.25v-2.25z" fill="var(--sticker-479)" />
			<path d="m0 18.125v2.25h2.25v-2.25z" fill="var(--sticker-480)" />
			<path d="m2.25 18.125v2.25h2.25v-2.25z" fill="var(--sticker-481)" />
			<path d="m4.5 18.125v2.25h2.25v-2.25z" fill="var(--sticker-482)" />
			<path d="m6.75 18.125v2.25h2.25v-2.25z" fill="var(--sticker-483)" />
			<path d="m9 18.125v2.25h2.375v-2.25z" fill="var(--sticker-484)" />
			<path d="m11.375 18.125v2.25h2.25v-2.25z" fill="var(--sticker-485)" />
			<path d="m13.625 18.125v2.25h2.25v-2.25z" fill="var(--sticker-486)" />
			<path d="m15.875 18.125v2.25h2.25v-2.25z" fill="var(--sticker-487)" />
			<path d="m18.125 18.125v2.25h2.25v-2.25z" fill="var(--sticker-488)" />
			<path d="m20.375 18.125v2.25h2.25v-2.25z" fill="var(--sticker-489)" />
			<path d="m0 20.375v2.25h2.25v-2.25z" fill="var(--sticker-490)" />
			<path d="m2.25 20.375v2.25h2.25v-2.25z" fill="var(--sticker-491)" />
			<path d="m4.5 20.375v2.25h2.25v-2.25z" fill="var(--sticker-492)" />
			<path d="m6.75 20.375v2.25h2.25v-2.25z" fill="var(--sticker-493)" />
			<path d="m9 20.375v2.25h2.375v-2.25z" fill="var(--sticker-494)" />
			<path d="m11.375 20.375v2.25h2.25v-2.25z" fill="var(--sticker-495)" />
			<path d="m13.625 20.375v2.25h2.25v-2.25z" fill="var(--sticker-496)" />
			<path d="m15.875 20.375v2.25h2.25v-2.25z" fill="var(--sticker-497)" />
			<path d="m18.125 20.375v2.25h2.25v-2.25z" fill="var(--sticker-498)" />
			<path d="m20.375 20.375v2.25h2.25v-2.25z" fill="var(--sticker-499)" />
		</g>
		<g fill="var(--colors-white-main)" transform="translate(76.0625 26.0625)">
			<path d="m0 0v2.25h2.25v-2.25z" fill="var(--sticker-209)" />
			<path d="m2.25 0v2.25h2.25v-2.25z" fill="var(--sticker-208)" />
			<path d="m4.5 0v2.25h2.25v-2.25z" fill="var(--sticker-207)" />
			<path d="m6.75 0v2.25h2.25v-2.25z" fill="var(--sticker-206)" />
			<path d="m9 0v2.25h2.375v-2.25z" fill="var(--sticker-205)" />
			<path d="m11.375 0v2.25h2.25v-2.25z" fill="var(--sticker-204)" />
			<path d="m13.625 0v2.25h2.25v-2.25z" fill="var(--sticker-203)" />
			<path d="m15.875 0v2.25h2.25v-2.25z" fill="var(--sticker-202)" />
			<path d="m18.125 0v2.25h2.25v-2.25z" fill="var(--sticker-201)" />
			<path d="m20.375 0v2.25h2.25v-2.25z" fill="var(--sticker-200)" />
			<path d="m0 2.25v2.25h2.25v-2.25z" fill="var(--sticker-219)" />
			<path d="m2.25 2.25v2.25h2.25v-2.25z" fill="var(--sticker-218)" />
			<path d="m4.5 2.25v2.25h2.25v-2.25z" fill="var(--sticker-217)" />
			<path d="m6.75 2.25v2.25h2.25v-2.25z" fill="var(--sticker-216)" />
			<path d="m9 2.25v2.25h2.375v-2.25z" fill="var(--sticker-215)" />
			<path d="m11.375 2.25v2.25h2.25v-2.25z" fill="var(--sticker-214)" />
			<path d="m13.625 2.25v2.25h2.25v-2.25z" fill="var(--sticker-213)" />
			<path d="m15.875 2.25v2.25h2.25v-2.25z" fill="var(--sticker-212)" />
			<path d="m18.125 2.25v2.25h2.25v-2.25z" fill="var(--sticker-211)" />
			<path d="m20.375 2.25v2.25h2.25v-2.25z" fill="var(--sticker-210)" />
			<path d="m0 4.5v2.25h2.25v-2.25z" fill="var(--sticker-229)" />
			<path d="m2.25 4.5v2.25h2.25v-2.25z" fill="var(--sticker-228)" />
			<path d="m4.5 4.5v2.25h2.25v-2.25z" fill="var(--sticker-227)" />
			<path d="m6.75 4.5v2.25h2.25v-2.25z" fill="var(--sticker-226)" />
			<path d="m9 4.5v2.25h2.375v-2.25z" fill="var(--sticker-225)" />
			<path d="m11.375 4.5v2.25h2.25v-2.25z" fill="var(--sticker-224)" />
			<path d="m13.625 4.5v2.25h2.25v-2.25z" fill="var(--sticker-223)" />
			<path d="m15.875 4.5v2.25h2.25v-2.25z" fill="var(--sticker-222)" />
			<path d="m18.125 4.5v2.25h2.25v-2.25z" fill="var(--sticker-221)" />
			<path d="m20.375 4.5v2.25h2.25v-2.25z" fill="var(--sticker-220)" />
			<path d="m0 6.75v2.25h2.25v-2.25z" fill="var(--sticker-239)" />
			<path d="m2.25 6.75v2.25h2.25v-2.25z" fill="var(--sticker-238)" />
			<path d="m4.5 6.75v2.25h2.25v-2.25z" fill="var(--sticker-237)" />
			<path d="m6.75 6.75v2.25h2.25v-2.25z" fill="var(--sticker-236)" />
			<path d="m9 6.75v2.25h2.375v-2.25z" fill="var(--sticker-235)" />
			<path d="m11.375 6.75v2.25h2.25v-2.25z" fill="var(--sticker-234)" />
			<path d="m13.625 6.75v2.25h2.25v-2.25z" fill="var(--sticker-233)" />
			<path d="m15.875 6.75v2.25h2.25v-2.25z" fill="var(--sticker-232)" />
			<path d="m18.125 6.75v2.25h2.25v-2.25z" fill="var(--sticker-231)" />
			<path d="m20.375 6.75v2.25h2.25v-2.25z" fill="var(--sticker-230)" />
			<path d="m0 9v2.375h2.25v-2.375z" fill="var(--sticker-249)" />
			<path d="m2.25 9v2.375h2.25v-2.375z" fill="var(--sticker-248)" />
			<path d="m4.5 9v2.375h2.25v-2.375z" fill="var(--sticker-247)" />
			<path d="m6.75 9v2.375h2.25v-2.375z" fill="var(--sticker-246)" />
			<path d="m9 9v2.375h2.375v-2.375z" fill="var(--sticker-245)" />
			<path d="m11.375 9v2.375h2.25v-2.375z" fill="var(--sticker-244)" />
			<path d="m13.625 9v2.375h2.25v-2.375z" fill="var(--sticker-243)" />
			<path d="m15.875 9v2.375h2.25v-2.375z" fill="var(--sticker-242)" />
			<path d="m18.125 9v2.375h2.25v-2.375z" fill="var(--sticker-241)" />
			<path d="m20.375 9v2.375h2.25v-2.375z" fill="var(--sticker-240)" />
			<path d="m0 11.375v2.25h2.25v-2.25z" fill="var(--sticker-259)" />
			<path d="m2.25 11.375v2.25h2.25v-2.25z" fill="var(--sticker-258)" />
			<path d="m4.5 11.375v2.25h2.25v-2.25z" fill="var(--sticker-257)" />
			<path d="m6.75 11.375v2.25h2.25v-2.25z" fill="var(--sticker-256)" />
			<path d="m9 11.375v2.25h2.375v-2.25z" fill="var(--sticker-255)" />
			<path d="m11.375 11.375v2.25h2.25v-2.25z" fill="var(--sticker-254)" />
			<path d="m13.625 11.375v2.25h2.25v-2.25z" fill="var(--sticker-253)" />
			<path d="m15.875 11.375v2.25h2.25v-2.25z" fill="var(--sticker-252)" />
			<path d="m18.125 11.375v2.25h2.25v-2.25z" fill="var(--sticker-251)" />
			<path d="m20.375 11.375v2.25h2.25v-2.25z" fill="var(--sticker-250)" />
			<path d="m0 13.625v2.25h2.25v-2.25z" fill="var(--sticker-269)" />
			<path d="m2.25 13.625v2.25h2.25v-2.25z" fill="var(--sticker-268)" />
			<path d="m4.5 13.625v2.25h2.25v-2.25z" fill="var(--sticker-267)" />
			<path d="m6.75 13.625v2.25h2.25v-2.25z" fill="var(--sticker-266)" />
			<path d="m9 13.625v2.25h2.375v-2.25z" fill="var(--sticker-265)" />
			<path d="m11.375 13.625v2.25h2.25v-2.25z" fill="var(--sticker-264)" />
			<path d="m13.625 13.625v2.25h2.25v-2.25z" fill="var(--sticker-263)" />
			<path d="m15.875 13.625v2.25h2.25v-2.25z" fill="var(--sticker-262)" />
			<path d="m18.125 13.625v2.25h2.25v-2.25z" fill="var(--sticker-261)" />
			<path d="m20.375 13.625v2.25h2.25v-2.25z" fill="var(--sticker-260)" />
			<path d="m0 15.875v2.25h2.25v-2.25z" fill="var(--sticker-279)" />
			<path d="m2.25 15.875v2.25h2.25v-2.25z" fill="var(--sticker-278)" />
			<path d="m4.5 15.875v2.25h2.25v-2.25z" fill="var(--sticker-277)" />
			<path d="m6.75 15.875v2.25h2.25v-2.25z" fill="var(--sticker-276)" />
			<path d="m9 15.875v2.25h2.375v-2.25z" fill="var(--sticker-275)" />
			<path d="m11.375 15.875v2.25h2.25v-2.25z" fill="var(--sticker-274)" />
			<path d="m13.625 15.875v2.25h2.25v-2.25z" fill="var(--sticker-273)" />
			<path d="m15.875 15.875v2.25h2.25v-2.25z" fill="var(--sticker-272)" />
			<path d="m18.125 15.875v2.25h2.25v-2.25z" fill="var(--sticker-271)" />
			<path d="m20.375 15.875v2.25h2.25v-2.25z" fill="var(--sticker-270)" />
			<path d="m0 18.125v2.25h2.25v-2.25z" fill="var(--sticker-289)" />
			<path d="m2.25 18.125v2.25h2.25v-2.25z" fill="var(--sticker-288)" />
			<path d="m4.5 18.125v2.25h2.25v-2.25z" fill="var(--sticker-287)" />
			<path d="m6.75 18.125v2.25h2.25v-2.25z" fill="var(--sticker-286)" />
			<path d="m9 18.125v2.25h2.375v-2.25z" fill="var(--sticker-285)" />
			<path d="m11.375 18.125v2.25h2.25v-2.25z" fill="var(--sticker-284)" />
			<path d="m13.625 18.125v2.25h2.25v-2.25z" fill="var(--sticker-283)" />
			<path d="m15.875 18.125v2.25h2.25v-2.25z" fill="var(--sticker-282)" />
			<path d="m18.125 18.125v2.25h2.25v-2.25z" fill="var(--sticker-281)" />
			<path d="m20.375 18.125v2.25h2.25v-2.25z" fill="var(--sticker-280)" />
			<path d="m0 20.375v2.25h2.25v-2.25z" fill="var(--sticker-299)" />
			<path d="m2.25 20.375v2.25h2.25v-2.25z" fill="var(--sticker-298)" />
			<path d="m4.5 20.375v2.25h2.25v-2.25z" fill="var(--sticker-297)" />
			<path d="m6.75 20.375v2.25h2.25v-2.25z" fill="var(--sticker-296)" />
			<path d="m9 20.375v2.25h2.375v-2.25z" fill="var(--sticker-295)" />
			<path d="m11.375 20.375v2.25h2.25v-2.25z" fill="var(--sticker-294)" />
			<path d="m13.625 20.375v2.25h2.25v-2.25z" fill="var(--sticker-293)" />
			<path d="m15.875 20.375v2.25h2.25v-2.25z" fill="var(--sticker-292)" />
			<path d="m18.125 20.375v2.25h2.25v-2.25z" fill="var(--sticker-291)" />
			<path d="m20.375 20.375v2.25h2.25v-2.25z" fill="var(--sticker-290)" />
		</g>
		<g fill="var(--colors-blue-main)" transform="translate(26.0625 51.0625)">
			<path d="m0 0v2.25h2.25v-2.25z" fill="var(--sticker-90)" />
			<path d="m2.25 0v2.25h2.25v-2.25z" fill="var(--sticker-91)" />
			<path d="m4.5 0v2.25h2.25v-2.25z" fill="var(--sticker-92)" />
			<path d="m6.75 0v2.25h2.25v-2.25z" fill="var(--sticker-93)" />
			<path d="m9 0v2.25h2.25v-2.25z" fill="var(--sticker-94)" />
			<path d="m11.25 0v2.25h2.375v-2.25z" fill="var(--sticker-95)" />
			<path d="m13.625 0v2.25h2.25v-2.25z" fill="var(--sticker-96)" />
			<path d="m15.875 0v2.25h2.25v-2.25z" fill="var(--sticker-97)" />
			<path d="m18.125 0v2.25h2.25v-2.25z" fill="var(--sticker-98)" />
			<path d="m20.375 0v2.25h2.25v-2.25z" fill="var(--sticker-99)" />
			<path d="m0 2.25v2.25h2.25v-2.25z" fill="var(--sticker-80)" />
			<path d="m2.25 2.25v2.25h2.25v-2.25z" fill="var(--sticker-81)" />
			<path d="m4.5 2.25v2.25h2.25v-2.25z" fill="var(--sticker-82)" />
			<path d="m6.75 2.25v2.25h2.25v-2.25z" fill="var(--sticker-83)" />
			<path d="m9 2.25v2.25h2.25v-2.25z" fill="var(--sticker-84)" />
			<path d="m11.25 2.25v2.25h2.375v-2.25z" fill="var(--sticker-85)" />
			<path d="m13.625 2.25v2.25h2.25v-2.25z" fill="var(--sticker-86)" />
			<path d="m15.875 2.25v2.25h2.25v-2.25z" fill="var(--sticker-87)" />
			<path d="m18.125 2.25v2.25h2.25v-2.25z" fill="var(--sticker-88)" />
			<path d="m20.375 2.25v2.25h2.25v-2.25z" fill="var(--sticker-89)" />
			<path d="m0 4.5v2.25h2.25v-2.25z" fill="var(--sticker-70)" />
			<path d="m2.25 4.5v2.25h2.25v-2.25z" fill="var(--sticker-71)" />
			<path d="m4.5 4.5v2.25h2.25v-2.25z" fill="var(--sticker-72)" />
			<path d="m6.75 4.5v2.25h2.25v-2.25z" fill="var(--sticker-73)" />
			<path d="m9 4.5v2.25h2.25v-2.25z" fill="var(--sticker-74)" />
			<path d="m11.25 4.5v2.25h2.375v-2.25z" fill="var(--sticker-75)" />
			<path d="m13.625 4.5v2.25h2.25v-2.25z" fill="var(--sticker-76)" />
			<path d="m15.875 4.5v2.25h2.25v-2.25z" fill="var(--sticker-77)" />
			<path d="m18.125 4.5v2.25h2.25v-2.25z" fill="var(--sticker-78)" />
			<path d="m20.375 4.5v2.25h2.25v-2.25z" fill="var(--sticker-79)" />
			<path d="m0 6.75v2.25h2.25v-2.25z" fill="var(--sticker-60)" />
			<path d="m2.25 6.75v2.25h2.25v-2.25z" fill="var(--sticker-61)" />
			<path d="m4.5 6.75v2.25h2.25v-2.25z" fill="var(--sticker-62)" />
			<path d="m6.75 6.75v2.25h2.25v-2.25z" fill="var(--sticker-63)" />
			<path d="m9 6.75v2.25h2.25v-2.25z" fill="var(--sticker-64)" />
			<path d="m11.25 6.75v2.25h2.375v-2.25z" fill="var(--sticker-65)" />
			<path d="m13.625 6.75v2.25h2.25v-2.25z" fill="var(--sticker-66)" />
			<path d="m15.875 6.75v2.25h2.25v-2.25z" fill="var(--sticker-67)" />
			<path d="m18.125 6.75v2.25h2.25v-2.25z" fill="var(--sticker-68)" />
			<path d="m20.375 6.75v2.25h2.25v-2.25z" fill="var(--sticker-69)" />
			<path d="m0 9v2.375h2.25v-2.375z" fill="var(--sticker-50)" />
			<path d="m2.25 9v2.375h2.25v-2.375z" fill="var(--sticker-51)" />
			<path d="m4.5 9v2.375h2.25v-2.375z" fill="var(--sticker-52)" />
			<path d="m6.75 9v2.375h2.25v-2.375z" fill="var(--sticker-53)" />
			<path d="m9 9v2.375h2.25v-2.375z" fill="var(--sticker-54)" />
			<path d="m11.25 9v2.375h2.375v-2.375z" fill="var(--sticker-55)" />
			<path d="m13.625 9v2.375h2.25v-2.375z" fill="var(--sticker-56)" />
			<path d="m15.875 9v2.375h2.25v-2.375z" fill="var(--sticker-57)" />
			<path d="m18.125 9v2.375h2.25v-2.375z" fill="var(--sticker-58)" />
			<path d="m20.375 9v2.375h2.25v-2.375z" fill="var(--sticker-59)" />
			<path d="m0 11.375v2.25h2.25v-2.25z" fill="var(--sticker-40)" />
			<path d="m2.25 11.375v2.25h2.25v-2.25z" fill="var(--sticker-41)" />
			<path d="m4.5 11.375v2.25h2.25v-2.25z" fill="var(--sticker-42)" />
			<path d="m6.75 11.375v2.25h2.25v-2.25z" fill="var(--sticker-43)" />
			<path d="m9 11.375v2.25h2.25v-2.25z" fill="var(--sticker-44)" />
			<path d="m11.25 11.375v2.25h2.375v-2.25z" fill="var(--sticker-45)" />
			<path d="m13.625 11.375v2.25h2.25v-2.25z" fill="var(--sticker-46)" />
			<path d="m15.875 11.375v2.25h2.25v-2.25z" fill="var(--sticker-47)" />
			<path d="m18.125 11.375v2.25h2.25v-2.25z" fill="var(--sticker-48)" />
			<path d="m20.375 11.375v2.25h2.25v-2.25z" fill="var(--sticker-49)" />
			<path d="m0 13.625v2.25h2.25v-2.25z" fill="var(--sticker-30)" />
			<path d="m2.25 13.625v2.25h2.25v-2.25z" fill="var(--sticker-31)" />
			<path d="m4.5 13.625v2.25h2.25v-2.25z" fill="var(--sticker-32)" />
			<path d="m6.75 13.625v2.25h2.25v-2.25z" fill="var(--sticker-33)" />
			<path d="m9 13.625v2.25h2.25v-2.25z" fill="var(--sticker-34)" />
			<path d="m11.25 13.625v2.25h2.375v-2.25z" fill="var(--sticker-35)" />
			<path d="m13.625 13.625v2.25h2.25v-2.25z" fill="var(--sticker-36)" />
			<path d="m15.875 13.625v2.25h2.25v-2.25z" fill="var(--sticker-37)" />
			<path d="m18.125 13.625v2.25h2.25v-2.25z" fill="var(--sticker-38)" />
			<path d="m20.375 13.625v2.25h2.25v-2.25z" fill="var(--sticker-39)" />
			<path d="m0 15.875v2.25h2.25v-2.25z" fill="var(--sticker-20)" />
			<path d="m2.25 15.875v2.25h2.25v-2.25z" fill="var(--sticker-21)" />
			<path d="m4.5 15.875v2.25h2.25v-2.25z" fill="var(--sticker-22)" />
			<path d="m6.75 15.875v2.25h2.25v-2.25z" fill="var(--sticker-23)" />
			<path d="m9 15.875v2.25h2.25v-2.25z" fill="var(--sticker-24)" />
			<path d="m11.25 15.875v2.25h2.375v-2.25z" fill="var(--sticker-25)" />
			<path d="m13.625 15.875v2.25h2.25v-2.25z" fill="var(--sticker-26)" />
			<path d="m15.875 15.875v2.25h2.25v-2.25z" fill="var(--sticker-27)" />
			<path d="m18.125 15.875v2.25h2.25v-2.25z" fill="var(--sticker-28)" />
			<path d="m20.375 15.875v2.25h2.25v-2.25z" fill="var(--sticker-29)" />
			<path d="m0 18.125v2.25h2.25v-2.25z" fill="var(--sticker-10)" />
			<path d="m2.25 18.125v2.25h2.25v-2.25z" fill="var(--sticker-11)" />
			<path d="m4.5 18.125v2.25h2.25v-2.25z" fill="var(--sticker-12)" />
			<path d="m6.75 18.125v2.25h2.25v-2.25z" fill="var(--sticker-13)" />
			<path d="m9 18.125v2.25h2.25v-2.25z" fill="var(--sticker-14)" />
			<path d="m11.25 18.125v2.25h2.375v-2.25z" fill="var(--sticker-15)" />
			<path d="m13.625 18.125v2.25h2.25v-2.25z" fill="var(--sticker-16)" />
			<path d="m15.875 18.125v2.25h2.25v-2.25z" fill="var(--sticker-17)" />
			<path d="m18.125 18.125v2.25h2.25v-2.25z" fill="var(--sticker-18)" />
			<path d="m20.375 18.125v2.25h2.25v-2.25z" fill="var(--sticker-19)" />
			<path d="m0 20.375v2.25h2.25v-2.25z" fill="var(--sticker-0)" />
			<path d="m2.25 20.375v2.25h2.25v-2.25z" fill="var(--sticker-1)" />
			<path d="m4.5 20.375v2.25h2.25v-2.25z" fill="var(--sticker-2)" />
			<path d="m6.75 20.375v2.25h2.25v-2.25z" fill="var(--sticker-3)" />
			<path d="m9 20.375v2.25h2.25v-2.25z" fill="var(--sticker-4)" />
			<path d="m11.25 20.375v2.25h2.375v-2.25z" fill="var(--sticker-5)" />
			<path d="m13.625 20.375v2.25h2.25v-2.25z" fill="var(--sticker-6)" />
			<path d="m15.875 20.375v2.25h2.25v-2.25z" fill="var(--sticker-7)" />
			<path d="m18.125 20.375v2.25h2.25v-2.25z" fill="var(--sticker-8)" />
			<path d="m20.375 20.375v2.25h2.25v-2.25z" fill="var(--sticker-9)" />
		</g>
	</g>
</svg>
