<svg width="64" viewBox="0 0 64 64" xmlns="http://www.w3.org/2000/svg">
	<g fill="currentColor" fill-rule="nonzero">
		<path d="m45.488 12.502h-17.738a2.5 2.5 0 1 0 0 5h17.74a2.5 2.5 0 1 0 0-5zm0 10.001h-17.738a2.5 2.5 0 1 0 0 5.001h17.74a2.5 2.5 0 1 0 0-5zm-10.112 10.002h-7.627a2.5 2.5 0 1 0 0 5h7.627a2.5 2.5 0 1 0 0-5z" />
		<path d="m55.629 34.005a2.5 2.5 0 0 0 2.5-2.5v-21.503c0-5.515-4.487-10.002-10.002-10.002h-23.003c-5.512 0-9.996 4.482-10.001 9.992-5.515 0-10.002 4.487-10.002 10.002v34.005c0 5.514 4.487 10.001 10.002 10.001h24.253c5.515 0 10.002-4.486 10.002-10v-.076c4.926-.618 8.75-4.833 8.75-9.924a2.5 2.5 0 0 0 -5 0c0 2.757-2.243 5-5 5l-23.003.006a4.968 4.968 0 0 1 -3.537-1.464 4.968 4.968 0 0 1 -1.465-3.536v-34.006c0-2.757 2.244-5 5.001-5h23.003c2.758 0 5.001 2.243 5.001 5v21.504a2.5 2.5 0 0 0 2.5 2.5zm-30.505 20h.003l19.25-.004a5.006 5.006 0 0 1 -5.001 4.999h-24.253c-2.758 0-5.001-2.243-5.001-5v-34.007c0-2.758 2.243-5.001 5-5.001v29.011a9.936 9.936 0 0 0 2.93 7.073 9.935 9.935 0 0 0 7.072 2.929z" />
	</g>
</svg>
