<svg width="64" viewBox="0 0 64 64" xmlns="http://www.w3.org/2000/svg">
	<g stroke="none" stroke-width="1" fill-rule="nonzero">
		<path d="M32,59 C17.077,59 5,46.924125 5,32 C5,17.076875 17.075875,5 32,5 C46.923,5 59,17.075875 59,32 C59,46.923125 46.924125,59 32,59 Z" fill="var(--palette-text-secondary, white)">
		</path>
		<path d="M32,0 C14.3135,0 0,14.312125 0,32 C0,49.686625 14.312125,64 32,64 C49.6865,64 64,49.687875 64,32 C64,14.313375 49.687875,0 32,0 Z M32,56 C18.7351111,56 8,45.2658889 8,32 C8,18.735 18.7341111,8 32,8 C45.2648889,8 56,18.7341111 56,32 C56,45.265 45.2658889,56 32,56 Z" fill="var(--palette-background-secondary, black)">
		</path>
		<path d="M20.5630909,20.842219 C19.5284145,22.0206738 19.5734481,23.8161989 20.6982192,24.940826 L27.757,32 L20.6981966,39.0591966 C19.5265396,40.2308536 19.5264468,42.1303286 20.6980942,43.301826 L20.8421066,43.4367962 C22.0206575,44.4715623 23.8161784,44.4264474 24.940701,43.3017808 L32,36.242 L39.0593246,43.3018064 C40.2305806,44.4733624 42.130323,44.4734088 43.3019284,43.3018034 L43.4368991,43.1578079 C44.4716712,41.9793853 44.4265932,40.1838425 43.3017808,39.059174 L36.242,32 L43.3018034,24.9408034 C44.4733279,23.7692789 44.4734207,21.8698389 43.301951,20.6982192 L43.1579388,20.5632488 C41.9793888,19.5284769 40.1838661,19.5735081 39.059299,20.6982192 L32,27.757 L24.9406754,20.6981936 C23.7693299,19.5265481 21.8695701,19.5265481 20.698049,20.6982192 L20.5630909,20.842219 Z" fill="var(--palette-background-secondary, black)">
		</path>
	</g>
</svg>
