<svg width="64" viewBox="0 0 64 64" xmlns="http://www.w3.org/2000/svg">
	<g fill="none" fill-rule="evenodd">
		<circle cx="32" cy="32" r="29.5" stroke="var(--colors-red-main, #f85149)" stroke-width="5" />
		<g fill="var(--colors-red-main, #f85149)" fill-rule="nonzero">
			<path d="m41.527 44.758-22.857-22.856a2.284 2.284 0 1 1 3.232-3.232l22.857 22.857a2.284 2.284 0 0 1 -1.616 3.901c-.585 0-1.17-.223-1.616-.67z" />
			<path d="m18.67 44.759a2.284 2.284 0 0 1 0-3.232l22.857-22.857a2.284 2.284 0 1 1 3.232 3.232l-22.857 22.857a2.277 2.277 0 0 1 -1.616.67c-.585 0-1.17-.224-1.616-.67z" />
		</g>
	</g>
</svg>
