<svg xmlns="http://www.w3.org/2000/svg" viewBox="0 0 64 54">
	<g fill-rule="nonzero" fill="none">
		<path d="M36.923 30.99H4.103C1.836 30.99 0 28.976 0 26.49c0-2.485 1.836-4.5 4.103-4.5h32.82c2.266 0 4.103 2.014 4.103 4.5s-1.837 4.5-4.103 4.5z" fill="currentColor" />
		<path d="M59.833 30.99h-6.666c-2.302 0-4.167-2.014-4.167-4.5s1.865-4.5 4.167-4.5h6.666c2.302 0 4.167 2.014 4.167 4.5s-1.865 4.5-4.167 4.5z" fill="var(--colors-blue-main)" />
		<path d="M59.898 53.02H4.102C1.836 53.02 0 51.006 0 48.52s1.836-4.5 4.103-4.5h55.795c2.266 0 4.102 2.014 4.102 4.5s-1.836 4.5-4.102 4.5zM59.898 9H4.102C1.836 9 0 6.986 0 4.5S1.836 0 4.103 0h55.795C62.164 0 64 2.014 64 4.5S62.164 9 59.898 9z" fill="currentColor" />
	</g>
</svg>
