<svg width="64" xmlns="http://www.w3.org/2000/svg" viewBox="0 0 64 64">
	<g fill="currentColor" fill-rule="nonzero">
		<path d="M13.638 10.83H1.877C.84 10.83 0 9.95 0 8.863c0-1.088.84-1.97 1.877-1.97h11.761c1.037 0 1.877.882 1.877 1.97 0 1.087-.84 1.969-1.877 1.969z" />
		<path d="M20.364 17.723c-4.813 0-8.728-3.975-8.728-8.861C11.636 3.975 15.551 0 20.364 0c4.812 0 8.727 3.975 8.727 8.862 0 4.886-3.915 8.861-8.727 8.861zm0-13.854c-2.711 0-4.917 2.24-4.917 4.993s2.206 4.992 4.917 4.992c2.71 0 4.916-2.24 4.916-4.992 0-2.753-2.205-4.993-4.916-4.993zM62.112 10.83H33.888C32.845 10.83 32 9.95 32 8.863c0-1.088.845-1.97 1.888-1.97h28.224c1.043 0 1.888.882 1.888 1.97 0 1.087-.845 1.969-1.888 1.969zM45.576 41.354c-4.813 0-8.728-3.975-8.728-8.862 0-4.886 3.915-8.861 8.728-8.861 4.812 0 8.727 3.975 8.727 8.861 0 4.887-3.915 8.862-8.727 8.862zm0-13.854c-2.711 0-4.917 2.24-4.917 4.992 0 2.753 2.206 4.992 4.917 4.992 2.71 0 4.916-2.239 4.916-4.992S48.287 27.5 45.576 27.5zM32.06 33.477H1.88C.84 33.477 0 32.595 0 31.507c0-1.086.841-1.969 1.879-1.969H32.06c1.037 0 1.878.883 1.878 1.97s-.84 1.969-1.878 1.969z" />
		<path d="M62.1 33.477h-9.776c-1.05 0-1.9-.882-1.9-1.97 0-1.086.85-1.969 1.9-1.969H62.1c1.05 0 1.9.883 1.9 1.97s-.85 1.969-1.9 1.969zM18.424 64c-4.812 0-8.727-3.975-8.727-8.862 0-4.886 3.915-8.861 8.727-8.861 4.813 0 8.728 3.975 8.728 8.861 0 4.887-3.915 8.862-8.728 8.862zm0-13.854c-2.71 0-4.916 2.24-4.916 4.992 0 2.753 2.205 4.993 4.916 4.993 2.711 0 4.917-2.24 4.917-4.993s-2.206-4.992-4.917-4.992zM62.121 57.108H31.94c-1.037 0-1.878-.882-1.878-1.97 0-1.087.84-1.969 1.878-1.969h30.182c1.038 0 1.879.882 1.879 1.97 0 1.087-.841 1.969-1.879 1.969z" />
		<path d="M11.676 57.108H1.9c-1.05 0-1.9-.882-1.9-1.97 0-1.087.85-1.969 1.9-1.969h9.776c1.05 0 1.9.882 1.9 1.97 0 1.087-.85 1.969-1.9 1.969z" />
	</g>
</svg>
