<svg width="64" xmlns="http://www.w3.org/2000/svg" viewBox="0 0 64 62">
	<path d="M52.965 39.724c-4.277 0-7.953 2.473-9.783 6.04l-21.773-9.04c.4-1.14.66-2.346.66-3.62 0-1.378-.284-2.684-.747-3.9l23.006-11.387c2.022 2.569 5.123 4.252 8.637 4.252C59.05 22.069 64 17.119 64 11.035 64 4.95 59.05 0 52.965 0c-6.084 0-11.034 4.95-11.034 11.035 0 .986.172 1.925.416 2.837L18.954 25.45c-2.008-2.077-4.81-3.382-7.92-3.382C4.95 22.069 0 27.019 0 33.104c0 6.083 4.95 11.034 11.035 11.034 3.203 0 6.068-1.395 8.085-3.583l22.882 9.5c-.015.237-.07.463-.07.704 0 6.084 4.95 11.034 11.033 11.034C59.05 61.793 64 56.843 64 50.759c0-6.085-4.95-11.035-11.035-11.035zm0-35.31c3.651 0 6.621 2.97 6.621 6.62 0 3.651-2.97 6.621-6.62 6.621-3.651 0-6.621-2.97-6.621-6.62 0-3.651 2.97-6.621 6.62-6.621zm-41.93 35.31c-3.651 0-6.621-2.97-6.621-6.62s2.97-6.621 6.62-6.621c3.651 0 6.621 2.97 6.621 6.62s-2.97 6.621-6.62 6.621zm41.93 17.655c-3.65 0-6.62-2.97-6.62-6.62 0-3.651 2.97-6.621 6.62-6.621 3.651 0 6.621 2.97 6.621 6.62 0 3.651-2.97 6.621-6.62 6.621z" fill="currentColor" />
</svg>
