<svg width="64" viewBox="0 0 64 64" xmlns="http://www.w3.org/2000/svg">
	<path d="m4.262 29.955c16.643-7.197 27.741-11.942 33.294-14.234 15.854-6.546 19.149-7.683 21.296-7.721.472-.007 1.528.109 2.212.66.578.465.737 1.093.813 1.534s.17 1.446.095 2.23c-.859 8.961-4.576 30.705-6.468 40.741-.8 4.247-2.376 5.67-3.901 5.81-3.316.303-5.833-2.175-9.044-4.264-5.025-3.27-7.863-5.305-12.74-8.495-5.637-3.687-1.983-5.713 1.229-9.025.84-.866 15.448-14.054 15.73-15.25.036-.15.069-.708-.265-1.003-.334-.294-.826-.193-1.182-.113-.504.113-8.53 5.38-24.08 15.798-2.28 1.553-4.343 2.31-6.192 2.27-2.039-.044-5.96-1.144-8.875-2.084-3.574-1.154-6.416-1.764-6.169-3.723.129-1.02 1.545-2.064 4.247-3.13z" fill="#3390ec" />
</svg>
