<svg width="64" viewBox="0 0 64 64" xmlns="http://www.w3.org/2000/svg">
	<g fill="none" fill-rule="evenodd">
		<path d="m63.938 11.909a25.584 25.584 0 0 1 -7.424 2.065 13.128 13.128 0 0 0 5.684-7.264 25.576 25.576 0 0 1 -8.21 3.184c-2.358-2.547-5.716-4.142-9.435-4.142-7.138 0-12.928 5.878-12.928 13.131 0 1.026.117 2.023.333 2.987-10.748-.55-20.27-5.777-26.648-13.717a13.275 13.275 0 0 0 -1.748 6.6c0 4.553 2.284 8.574 5.75 10.927a12.75 12.75 0 0 1 -5.856-1.643v.169c0 6.36 4.455 11.666 10.372 12.872a12.838 12.838 0 0 1 -3.406.456c-.832 0-1.645-.079-2.434-.23 1.646 5.212 6.42 9.01 12.078 9.112-4.426 3.522-10.002 5.621-16.057 5.621-1.044 0-2.073-.062-3.086-.183 5.722 3.728 12.516 5.898 19.815 5.898 23.784 0 36.786-20 36.786-37.347 0-.564-.014-1.133-.039-1.697a26.51 26.51 0 0 0 6.447-6.79l.006-.01z" fill="#1da1f2" fill-rule="nonzero" />
	</g>
</svg>
