<svg width="64" viewBox="0 0 65 65" xmlns="http://www.w3.org/2000/svg">
	<g fill-rule="nonzero">
		<path d="m14.95 58.697 1.162.71a31.436 31.436 0 0 0 16.388 4.593c17.37 0 31.5-14.13 31.5-31.5s-14.13-31.5-31.5-31.5-31.5 14.13-31.5 31.5c0 6.052 1.72 11.93 4.974 16.996l.782 1.218-3.064 10.881 11.259-2.898z" fill="#1bd741" />
		<path d="m21.407 14.135-2.428-.13a2.96 2.96 0 0 0 -2.087.704c-1.177 1.009-3.06 2.959-3.637 5.5-.862 3.789.47 8.429 3.918 13.069s9.874 12.063 21.236 15.234c3.662 1.021 6.542.332 8.765-1.07a7.734 7.734 0 0 0 3.41-4.91l.388-1.787a1.237 1.237 0 0 0 -.704-1.388l-8.205-3.732a1.269 1.269 0 0 0 -1.523.369l-3.222 4.12a.93.93 0 0 1 -1.036.305c-2.206-.765-9.596-3.819-13.65-11.527a.91.91 0 0 1 .117-1.025l3.079-3.514c.314-.36.394-.864.205-1.3l-3.538-8.166a1.258 1.258 0 0 0 -1.088-.752z" fill="var(--colors-white-main, #fff)" />
	</g>
</svg>
