<svg height="73" viewBox="0 0 98 73" width="98" xmlns="http://www.w3.org/2000/svg">
	<g fill="none" fill-rule="evenodd" stroke="var(--colors-grey-main)" stroke-width=".5">
		<g fill="var(--colors-white-main)">
			<path d="m25.25.25h11.5v11.5h-11.5z" fill="var(--sticker-12)" />
			<path d="m36.25.25h11.5v11.5h-11.5z" fill="var(--sticker-13)" />
			<path d="m25.25 11.25h11.5v11.5h-11.5z" fill="var(--sticker-14)" />
			<path d="m36.25 11.25h11.5v11.5h-11.5z" fill="var(--sticker-15)" />
		</g>
		<g fill="var(--colors-orange-main)">
			<path d="m.25 25.25h11.5v11.5h-11.5z" fill="var(--sticker-5)" />
			<path d="m11.25 25.25h11.5v11.5h-11.5z" fill="var(--sticker-4)" />
			<path d="m.25 36.25h11.5v11.5h-11.5z" fill="var(--sticker-7)" />
			<path d="m11.25 36.25h11.5v11.5h-11.5z" fill="var(--sticker-6)" />
		</g>
		<g fill="var(--colors-green-main)">
			<path d="m25.25 25.25h11.5v11.5h-11.5z" fill="var(--sticker-20)" />
			<path d="m36.25 25.25h11.5v11.5h-11.5z" fill="var(--sticker-21)" />
			<path d="m25.25 36.25h11.5v11.5h-11.5z" fill="var(--sticker-22)" />
			<path d="m36.25 36.25h11.5v11.5h-11.5z" fill="var(--sticker-23)" />
		</g>
		<g fill="var(--colors-yellow-main)">
			<path d="m25.25 50.25h11.5v11.5h-11.5z" fill="var(--sticker-2)" />
			<path d="m36.25 50.25h11.5v11.5h-11.5z" fill="var(--sticker-3)" />
			<path d="m25.25 61.25h11.5v11.5h-11.5z" fill="var(--sticker-0)" />
			<path d="m36.25 61.25h11.5v11.5h-11.5z" fill="var(--sticker-1)" />
		</g>
		<g fill="var(--colors-red-main)">
			<path d="m50.25 25.25h11.5v11.5h-11.5z" fill="var(--sticker-16)" />
			<path d="m61.25 25.25h11.5v11.5h-11.5z" fill="var(--sticker-17)" />
			<path d="m50.25 36.25h11.5v11.5h-11.5z" fill="var(--sticker-18)" />
			<path d="m61.25 36.25h11.5v11.5h-11.5z" fill="var(--sticker-19)" />
		</g>
		<g fill="var(--colors-blue-main)">
			<path d="m75.25 25.25h11.5v11.5h-11.5z" fill="var(--sticker-9)" />
			<path d="m86.25 25.25h11.5v11.5h-11.5z" fill="var(--sticker-8)" />
			<path d="m75.25 36.25h11.5v11.5h-11.5z" fill="var(--sticker-11)" />
			<path d="m86.25 36.25h11.5v11.5h-11.5z" fill="var(--sticker-10)" />
		</g>
	</g>
</svg>
