<svg height="73" viewBox="0 0 98 73" width="98" xmlns="http://www.w3.org/2000/svg">
	<g fill="none" fill-rule="evenodd" stroke="#000" stroke-width=".5">
		<g fill="#95d99f">
			<path d="m25.25.25h11.5v11.5h-11.5z" />
			<path d="m36.25.25h11.5v11.5h-11.5z" />
			<path d="m25.25 11.25h11.5v11.5h-11.5z" />
			<path d="m36.25 11.25h11.5v11.5h-11.5z" />
		</g>
		<g fill="#fc9f9b">
			<path d="m.25 25.25h11.5v11.5h-11.5z" />
			<path d="m11.25 25.25h11.5v11.5h-11.5z" />
			<path d="m.25 36.25h11.5v11.5h-11.5z" />
			<path d="m11.25 36.25h11.5v11.5h-11.5z" />
		</g>
		<g fill="#f7efa4">
			<path d="m25.25 25.25h11.5v11.5h-11.5z" />
			<path d="m36.25 25.25h11.5v11.5h-11.5z" />
			<path d="m25.25 36.25h11.5v11.5h-11.5z" />
			<path d="m36.25 36.25h11.5v11.5h-11.5z" />
		</g>
		<g fill="#91bffe">
			<path d="m25.25 50.25h11.5v11.5h-11.5z" />
			<path d="m36.25 50.25h11.5v11.5h-11.5z" />
			<path d="m25.25 61.25h11.5v11.5h-11.5z" />
			<path d="m36.25 61.25h11.5v11.5h-11.5z" />
		</g>
		<g fill="#f7be95">
			<path d="m50.25 25.25h11.5v11.5h-11.5z" />
			<path d="m61.25 25.25h11.5v11.5h-11.5z" />
			<path d="m50.25 36.25h11.5v11.5h-11.5z" />
			<path d="m61.25 36.25h11.5v11.5h-11.5z" />
		</g>
		<g fill="#fff">
			<path d="m75.25 25.25h11.5v11.5h-11.5z" />
			<path d="m86.25 25.25h11.5v11.5h-11.5z" />
			<path d="m75.25 36.25h11.5v11.5h-11.5z" />
			<path d="m86.25 36.25h11.5v11.5h-11.5z" />
		</g>
	</g>
</svg>
