<svg height="64" viewBox="0 0 79 64" width="79" xmlns="http://www.w3.org/2000/svg">
	<g fill="none" stroke="var(--colors-black-main)" stroke-width=".5">
		<g fill="var(--colors-green-main)" transform="translate(1.25 1.25)">
			<path d="m5.5 9.5-5.5-9.5h11z" fill="var(--sticker-0)" />
			<path d="m11 0-5.5 9.5h11z" fill="var(--sticker-1)" />
			<path d="m16.5 9.5-5.5-9.5h10.5z" fill="var(--sticker-2)" />
			<path d="m21.5 0-5 9.5h10.5z" fill="var(--sticker-3)" />
			<path d="m27 9.5-5.5-9.5h11z" fill="var(--sticker-4)" />
			<path d="m11 19-5.5-9.5h11z" fill="var(--sticker-11)" />
			<path d="m16.5 9.5-5.5 9.5h10.5z" fill="var(--sticker-12)" />
			<path d="m21.5 19-5-9.5h10.5z" fill="var(--sticker-13)" />
			<path d="m16.5 28.5-5.5-9.5h10.5z" fill="var(--sticker-20)" />
		</g>
		<g fill="var(--colors-red-main)" transform="translate(22.75 1.25)">
			<path d="m5.5 19-5.5 9.5h11z" fill="var(--sticker-21)" />
			<path d="m16.5 0-5.5 9.5h11z" fill="var(--sticker-5)" />
			<path d="m11 9.5-5.5 9.5h11z" fill="var(--sticker-14)" />
			<path d="m16.5 19-5.5-9.5h11z" fill="var(--sticker-15)" />
			<path d="m22 9.5-5.5 9.5h10.5z" fill="var(--sticker-16)" />
			<path d="m11 28.5-5.5-9.5h11z" fill="var(--sticker-22)" />
			<path d="m16.5 19-5.5 9.5h11z" fill="var(--sticker-23)" />
			<path d="m22 28.5-5.5-9.5h10.5z" fill="var(--sticker-24)" />
			<path d="m27 19-5 9.5h10.5z" fill="var(--sticker-25)" />
		</g>
		<g fill="var(--colors-yellow-main)" transform="translate(44.75 1.25)">
			<path d="m5 9.5-5-9.5h10.5z" fill="var(--sticker-6)" />
			<path d="m10.5 0-5.5 9.5h11z" fill="var(--sticker-7)" />
			<path d="m16 9.5-5.5-9.5h11z" fill="var(--sticker-8)" />
			<path d="m21.5 0-5.5 9.5h11z" fill="var(--sticker-9)" />
			<path d="m27 9.5-5.5-9.5h11z" fill="var(--sticker-10)" />
			<path d="m10.5 19-5.5-9.5h11z" fill="var(--sticker-17)" />
			<path d="m16 9.5-5.5 9.5h11z" fill="var(--sticker-18)" />
			<path d="m21.5 19-5.5-9.5h11z" fill="var(--sticker-19)" />
			<path d="m16 28.5-5.5-9.5h11z" fill="var(--sticker-26)" />
		</g>
		<g fill="var(--colors-blue-main)" transform="translate(22.75 34.25)">
			<path d="m5.5 9.5-5.5-9.5h11z" fill="var(--sticker-27)" />
			<path d="m11 0-5.5 9.5h11z" fill="var(--sticker-28)" />
			<path d="m16.5 9.5-5.5-9.5h11z" fill="var(--sticker-29)" />
			<path d="m22 0-5.5 9.5h10.5z" fill="var(--sticker-30)" />
			<path d="m27 9.5-5-9.5h10.5z" fill="var(--sticker-31)" />
			<path d="m11 19-5.5-9.5h11z" fill="var(--sticker-32)" />
			<path d="m16.5 9.5-5.5 9.5h11z" fill="var(--sticker-33)" />
			<path d="m22 19-5.5-9.5h10.5z" fill="var(--sticker-34)" />
			<path d="m16.5 28-5.5-9h11z" fill="var(--sticker-35)" />
		</g>
	</g>
</svg>
