<svg height="75" viewBox="0 0 100 75" width="100" xmlns="http://www.w3.org/2000/svg">
	<g fill="none" stroke="var(--colors-black-main)" stroke-width="0.35">
		<g fill="var(--colors-green-main)" transform="translate(26.0625 1.0625)">
			<path d="m0 0v3.75h3.75v-3.75z" fill="var(--sticker-108)" />
			<path d="m3.75 0v3.75h3.75v-3.75z" fill="var(--sticker-109)" />
			<path d="m7.5 0v3.75h3.75v-3.75z" fill="var(--sticker-110)" />
			<path d="m11.25 0v3.75h3.875v-3.75z" fill="var(--sticker-111)" />
			<path d="m15.125 0v3.75h3.75v-3.75z" fill="var(--sticker-112)" />
			<path d="m18.875 0v3.75h3.75v-3.75z" fill="var(--sticker-113)" />
			<path d="m0 3.75v3.75h3.75v-3.75z" fill="var(--sticker-114)" />
			<path d="m3.75 3.75v3.75h3.75v-3.75z" fill="var(--sticker-115)" />
			<path d="m7.5 3.75v3.75h3.75v-3.75z" fill="var(--sticker-116)" />
			<path d="m11.25 3.75v3.75h3.875v-3.75z" fill="var(--sticker-117)" />
			<path d="m15.125 3.75v3.75h3.75v-3.75z" fill="var(--sticker-118)" />
			<path d="m18.875 3.75v3.75h3.75v-3.75z" fill="var(--sticker-119)" />
			<path d="m0 7.5v3.875h3.75v-3.875z" fill="var(--sticker-120)" />
			<path d="m3.75 7.5v3.875h3.75v-3.875z" fill="var(--sticker-121)" />
			<path d="m7.5 7.5v3.875h3.75v-3.875z" fill="var(--sticker-122)" />
			<path d="m11.25 7.5v3.875h3.875v-3.875z" fill="var(--sticker-123)" />
			<path d="m15.125 7.5v3.875h3.75v-3.875z" fill="var(--sticker-124)" />
			<path d="m18.875 7.5v3.875h3.75v-3.875z" fill="var(--sticker-125)" />
			<path d="m0 11.375v3.75h3.75v-3.75z" fill="var(--sticker-126)" />
			<path d="m3.75 11.375v3.75h3.75v-3.75z" fill="var(--sticker-127)" />
			<path d="m7.5 11.375v3.75h3.75v-3.75z" fill="var(--sticker-128)" />
			<path d="m11.25 11.375v3.75h3.875v-3.75z" fill="var(--sticker-129)" />
			<path d="m15.125 11.375v3.75h3.75v-3.75z" fill="var(--sticker-130)" />
			<path d="m18.875 11.375v3.75h3.75v-3.75z" fill="var(--sticker-131)" />
			<path d="m0 15.125v3.75h3.75v-3.75z" fill="var(--sticker-132)" />
			<path d="m3.75 15.125v3.75h3.75v-3.75z" fill="var(--sticker-133)" />
			<path d="m7.5 15.125v3.75h3.75v-3.75z" fill="var(--sticker-134)" />
			<path d="m11.25 15.125v3.75h3.875v-3.75z" fill="var(--sticker-135)" />
			<path d="m15.125 15.125v3.75h3.75v-3.75z" fill="var(--sticker-136)" />
			<path d="m18.875 15.125v3.75h3.75v-3.75z" fill="var(--sticker-137)" />
			<path d="m0 18.875v3.75h3.75v-3.75z" fill="var(--sticker-138)" />
			<path d="m3.75 18.875v3.75h3.75v-3.75z" fill="var(--sticker-139)" />
			<path d="m7.5 18.875v3.75h3.75v-3.75z" fill="var(--sticker-140)" />
			<path d="m11.25 18.875v3.75h3.875v-3.75z" fill="var(--sticker-141)" />
			<path d="m15.125 18.875v3.75h3.75v-3.75z" fill="var(--sticker-142)" />
			<path d="m18.875 18.875v3.75h3.75v-3.75z" fill="var(--sticker-143)" />
		</g>
		<g fill="var(--colors-red-main)" transform="translate(1.0625 26.0625)">
			<path d="m0 0v3.75h3.75v-3.75z" fill="var(--sticker-41)" />
			<path d="m3.75 0v3.75h3.75v-3.75z" fill="var(--sticker-40)" />
			<path d="m7.5 0v3.75h3.75v-3.75z" fill="var(--sticker-39)" />
			<path d="m11.25 0v3.75h3.875v-3.75z" fill="var(--sticker-38)" />
			<path d="m15.125 0v3.75h3.75v-3.75z" fill="var(--sticker-37)" />
			<path d="m18.875 0v3.75h3.75v-3.75z" fill="var(--sticker-36)" />
			<path d="m0 3.75v3.75h3.75v-3.75z" fill="var(--sticker-47)" />
			<path d="m3.75 3.75v3.75h3.75v-3.75z" fill="var(--sticker-46)" />
			<path d="m7.5 3.75v3.75h3.75v-3.75z" fill="var(--sticker-45)" />
			<path d="m11.25 3.75v3.75h3.875v-3.75z" fill="var(--sticker-44)" />
			<path d="m15.125 3.75v3.75h3.75v-3.75z" fill="var(--sticker-43)" />
			<path d="m18.875 3.75v3.75h3.75v-3.75z" fill="var(--sticker-42)" />
			<path d="m0 7.5v3.875h3.75v-3.875z" fill="var(--sticker-53)" />
			<path d="m3.75 7.5v3.875h3.75v-3.875z" fill="var(--sticker-52)" />
			<path d="m7.5 7.5v3.875h3.75v-3.875z" fill="var(--sticker-51)" />
			<path d="m11.25 7.5v3.875h3.875v-3.875z" fill="var(--sticker-50)" />
			<path d="m15.125 7.5v3.875h3.75v-3.875z" fill="var(--sticker-49)" />
			<path d="m18.875 7.5v3.875h3.75v-3.875z" fill="var(--sticker-48)" />
			<path d="m0 11.375v3.75h3.75v-3.75z" fill="var(--sticker-59)" />
			<path d="m3.75 11.375v3.75h3.75v-3.75z" fill="var(--sticker-58)" />
			<path d="m7.5 11.375v3.75h3.75v-3.75z" fill="var(--sticker-57)" />
			<path d="m11.25 11.375v3.75h3.875v-3.75z" fill="var(--sticker-56)" />
			<path d="m15.125 11.375v3.75h3.75v-3.75z" fill="var(--sticker-55)" />
			<path d="m18.875 11.375v3.75h3.75v-3.75z" fill="var(--sticker-54)" />
			<path d="m0 15.125v3.75h3.75v-3.75z" fill="var(--sticker-65)" />
			<path d="m3.75 15.125v3.75h3.75v-3.75z" fill="var(--sticker-64)" />
			<path d="m7.5 15.125v3.75h3.75v-3.75z" fill="var(--sticker-63)" />
			<path d="m11.25 15.125v3.75h3.875v-3.75z" fill="var(--sticker-62)" />
			<path d="m15.125 15.125v3.75h3.75v-3.75z" fill="var(--sticker-61)" />
			<path d="m18.875 15.125v3.75h3.75v-3.75z" fill="var(--sticker-60)" />
			<path d="m0 18.875v3.75h3.75v-3.75z" fill="var(--sticker-71)" />
			<path d="m3.75 18.875v3.75h3.75v-3.75z" fill="var(--sticker-70)" />
			<path d="m7.5 18.875v3.75h3.75v-3.75z" fill="var(--sticker-69)" />
			<path d="m11.25 18.875v3.75h3.875v-3.75z" fill="var(--sticker-68)" />
			<path d="m15.125 18.875v3.75h3.75v-3.75z" fill="var(--sticker-67)" />
			<path d="m18.875 18.875v3.75h3.75v-3.75z" fill="var(--sticker-66)" />
		</g>
		<g fill="var(--colors-yellow-main)" transform="translate(26.0625 26.0625)">
			<path d="m0 0v3.75h3.75v-3.75z" fill="var(--sticker-180)" />
			<path d="m3.75 0v3.75h3.75v-3.75z" fill="var(--sticker-181)" />
			<path d="m7.5 0v3.75h3.75v-3.75z" fill="var(--sticker-182)" />
			<path d="m11.25 0v3.75h3.875v-3.75z" fill="var(--sticker-183)" />
			<path d="m15.125 0v3.75h3.75v-3.75z" fill="var(--sticker-184)" />
			<path d="m18.875 0v3.75h3.75v-3.75z" fill="var(--sticker-185)" />
			<path d="m0 3.75v3.75h3.75v-3.75z" fill="var(--sticker-186)" />
			<path d="m3.75 3.75v3.75h3.75v-3.75z" fill="var(--sticker-187)" />
			<path d="m7.5 3.75v3.75h3.75v-3.75z" fill="var(--sticker-188)" />
			<path d="m11.25 3.75v3.75h3.875v-3.75z" fill="var(--sticker-189)" />
			<path d="m15.125 3.75v3.75h3.75v-3.75z" fill="var(--sticker-190)" />
			<path d="m18.875 3.75v3.75h3.75v-3.75z" fill="var(--sticker-191)" />
			<path d="m0 7.5v3.875h3.75v-3.875z" fill="var(--sticker-192)" />
			<path d="m3.75 7.5v3.875h3.75v-3.875z" fill="var(--sticker-193)" />
			<path d="m7.5 7.5v3.875h3.75v-3.875z" fill="var(--sticker-194)" />
			<path d="m11.25 7.5v3.875h3.875v-3.875z" fill="var(--sticker-195)" />
			<path d="m15.125 7.5v3.875h3.75v-3.875z" fill="var(--sticker-196)" />
			<path d="m18.875 7.5v3.875h3.75v-3.875z" fill="var(--sticker-197)" />
			<path d="m0 11.375v3.75h3.75v-3.75z" fill="var(--sticker-198)" />
			<path d="m3.75 11.375v3.75h3.75v-3.75z" fill="var(--sticker-199)" />
			<path d="m7.5 11.375v3.75h3.75v-3.75z" fill="var(--sticker-200)" />
			<path d="m11.25 11.375v3.75h3.875v-3.75z" fill="var(--sticker-201)" />
			<path d="m15.125 11.375v3.75h3.75v-3.75z" fill="var(--sticker-202)" />
			<path d="m18.875 11.375v3.75h3.75v-3.75z" fill="var(--sticker-203)" />
			<path d="m0 15.125v3.75h3.75v-3.75z" fill="var(--sticker-204)" />
			<path d="m3.75 15.125v3.75h3.75v-3.75z" fill="var(--sticker-205)" />
			<path d="m7.5 15.125v3.75h3.75v-3.75z" fill="var(--sticker-206)" />
			<path d="m11.25 15.125v3.75h3.875v-3.75z" fill="var(--sticker-207)" />
			<path d="m15.125 15.125v3.75h3.75v-3.75z" fill="var(--sticker-208)" />
			<path d="m18.875 15.125v3.75h3.75v-3.75z" fill="var(--sticker-209)" />
			<path d="m0 18.875v3.75h3.75v-3.75z" fill="var(--sticker-210)" />
			<path d="m3.75 18.875v3.75h3.75v-3.75z" fill="var(--sticker-211)" />
			<path d="m7.5 18.875v3.75h3.75v-3.75z" fill="var(--sticker-212)" />
			<path d="m11.25 18.875v3.75h3.875v-3.75z" fill="var(--sticker-213)" />
			<path d="m15.125 18.875v3.75h3.75v-3.75z" fill="var(--sticker-214)" />
			<path d="m18.875 18.875v3.75h3.75v-3.75z" fill="var(--sticker-215)" />
		</g>
		<g fill="var(--colors-orange-main)" transform="translate(51.0625 26.0625)">
			<path d="m0 0v3.75h3.75v-3.75z" fill="var(--sticker-144)" />
			<path d="m3.75 0v3.75h3.75v-3.75z" fill="var(--sticker-145)" />
			<path d="m7.5 0v3.75h3.875v-3.75z" fill="var(--sticker-146)" />
			<path d="m11.375 0v3.75h3.75v-3.75z" fill="var(--sticker-147)" />
			<path d="m15.125 0v3.75h3.75v-3.75z" fill="var(--sticker-148)" />
			<path d="m18.875 0v3.75h3.75v-3.75z" fill="var(--sticker-149)" />
			<path d="m0 3.75v3.75h3.75v-3.75z" fill="var(--sticker-150)" />
			<path d="m3.75 3.75v3.75h3.75v-3.75z" fill="var(--sticker-151)" />
			<path d="m7.5 3.75v3.75h3.875v-3.75z" fill="var(--sticker-152)" />
			<path d="m11.375 3.75v3.75h3.75v-3.75z" fill="var(--sticker-153)" />
			<path d="m15.125 3.75v3.75h3.75v-3.75z" fill="var(--sticker-154)" />
			<path d="m18.875 3.75v3.75h3.75v-3.75z" fill="var(--sticker-155)" />
			<path d="m0 7.5v3.875h3.75v-3.875z" fill="var(--sticker-156)" />
			<path d="m3.75 7.5v3.875h3.75v-3.875z" fill="var(--sticker-157)" />
			<path d="m7.5 7.5v3.875h3.875v-3.875z" fill="var(--sticker-158)" />
			<path d="m11.375 7.5v3.875h3.75v-3.875z" fill="var(--sticker-159)" />
			<path d="m15.125 7.5v3.875h3.75v-3.875z" fill="var(--sticker-160)" />
			<path d="m18.875 7.5v3.875h3.75v-3.875z" fill="var(--sticker-161)" />
			<path d="m0 11.375v3.75h3.75v-3.75z" fill="var(--sticker-162)" />
			<path d="m3.75 11.375v3.75h3.75v-3.75z" fill="var(--sticker-163)" />
			<path d="m7.5 11.375v3.75h3.875v-3.75z" fill="var(--sticker-164)" />
			<path d="m11.375 11.375v3.75h3.75v-3.75z" fill="var(--sticker-165)" />
			<path d="m15.125 11.375v3.75h3.75v-3.75z" fill="var(--sticker-166)" />
			<path d="m18.875 11.375v3.75h3.75v-3.75z" fill="var(--sticker-167)" />
			<path d="m0 15.125v3.75h3.75v-3.75z" fill="var(--sticker-168)" />
			<path d="m3.75 15.125v3.75h3.75v-3.75z" fill="var(--sticker-169)" />
			<path d="m7.5 15.125v3.75h3.875v-3.75z" fill="var(--sticker-170)" />
			<path d="m11.375 15.125v3.75h3.75v-3.75z" fill="var(--sticker-171)" />
			<path d="m15.125 15.125v3.75h3.75v-3.75z" fill="var(--sticker-172)" />
			<path d="m18.875 15.125v3.75h3.75v-3.75z" fill="var(--sticker-173)" />
			<path d="m0 18.875v3.75h3.75v-3.75z" fill="var(--sticker-174)" />
			<path d="m3.75 18.875v3.75h3.75v-3.75z" fill="var(--sticker-175)" />
			<path d="m7.5 18.875v3.75h3.875v-3.75z" fill="var(--sticker-176)" />
			<path d="m11.375 18.875v3.75h3.75v-3.75z" fill="var(--sticker-177)" />
			<path d="m15.125 18.875v3.75h3.75v-3.75z" fill="var(--sticker-178)" />
			<path d="m18.875 18.875v3.75h3.75v-3.75z" fill="var(--sticker-179)" />
		</g>
		<g fill="var(--colors-white-main)" transform="translate(76.0625 26.0625)">
			<path d="m0 0v3.75h3.75v-3.75z" fill="var(--sticker-77)" />
			<path d="m3.75 0v3.75h3.75v-3.75z" fill="var(--sticker-76)" />
			<path d="m7.5 0v3.75h3.875v-3.75z" fill="var(--sticker-75)" />
			<path d="m11.375 0v3.75h3.75v-3.75z" fill="var(--sticker-74)" />
			<path d="m15.125 0v3.75h3.75v-3.75z" fill="var(--sticker-73)" />
			<path d="m18.875 0v3.75h3.75v-3.75z" fill="var(--sticker-72)" />
			<path d="m0 3.75v3.75h3.75v-3.75z" fill="var(--sticker-83)" />
			<path d="m3.75 3.75v3.75h3.75v-3.75z" fill="var(--sticker-82)" />
			<path d="m7.5 3.75v3.75h3.875v-3.75z" fill="var(--sticker-81)" />
			<path d="m11.375 3.75v3.75h3.75v-3.75z" fill="var(--sticker-80)" />
			<path d="m15.125 3.75v3.75h3.75v-3.75z" fill="var(--sticker-79)" />
			<path d="m18.875 3.75v3.75h3.75v-3.75z" fill="var(--sticker-78)" />
			<path d="m0 7.5v3.875h3.75v-3.875z" fill="var(--sticker-89)" />
			<path d="m3.75 7.5v3.875h3.75v-3.875z" fill="var(--sticker-88)" />
			<path d="m7.5 7.5v3.875h3.875v-3.875z" fill="var(--sticker-87)" />
			<path d="m11.375 7.5v3.875h3.75v-3.875z" fill="var(--sticker-86)" />
			<path d="m15.125 7.5v3.875h3.75v-3.875z" fill="var(--sticker-85)" />
			<path d="m18.875 7.5v3.875h3.75v-3.875z" fill="var(--sticker-84)" />
			<path d="m0 11.375v3.75h3.75v-3.75z" fill="var(--sticker-95)" />
			<path d="m3.75 11.375v3.75h3.75v-3.75z" fill="var(--sticker-94)" />
			<path d="m7.5 11.375v3.75h3.875v-3.75z" fill="var(--sticker-93)" />
			<path d="m11.375 11.375v3.75h3.75v-3.75z" fill="var(--sticker-92)" />
			<path d="m15.125 11.375v3.75h3.75v-3.75z" fill="var(--sticker-91)" />
			<path d="m18.875 11.375v3.75h3.75v-3.75z" fill="var(--sticker-90)" />
			<path d="m0 15.125v3.75h3.75v-3.75z" fill="var(--sticker-101)" />
			<path d="m3.75 15.125v3.75h3.75v-3.75z" fill="var(--sticker-100)" />
			<path d="m7.5 15.125v3.75h3.875v-3.75z" fill="var(--sticker-99)" />
			<path d="m11.375 15.125v3.75h3.75v-3.75z" fill="var(--sticker-98)" />
			<path d="m15.125 15.125v3.75h3.75v-3.75z" fill="var(--sticker-97)" />
			<path d="m18.875 15.125v3.75h3.75v-3.75z" fill="var(--sticker-96)" />
			<path d="m0 18.875v3.75h3.75v-3.75z" fill="var(--sticker-107)" />
			<path d="m3.75 18.875v3.75h3.75v-3.75z" fill="var(--sticker-106)" />
			<path d="m7.5 18.875v3.75h3.875v-3.75z" fill="var(--sticker-105)" />
			<path d="m11.375 18.875v3.75h3.75v-3.75z" fill="var(--sticker-104)" />
			<path d="m15.125 18.875v3.75h3.75v-3.75z" fill="var(--sticker-103)" />
			<path d="m18.875 18.875v3.75h3.75v-3.75z" fill="var(--sticker-102)" />
		</g>
		<g fill="var(--colors-blue-main)" transform="translate(26.0625 51.0625)">
			<path d="m0 0v3.75h3.75v-3.75z" fill="var(--sticker-30)" />
			<path d="m3.75 0v3.75h3.75v-3.75z" fill="var(--sticker-31)" />
			<path d="m7.5 0v3.75h3.75v-3.75z" fill="var(--sticker-32)" />
			<path d="m11.25 0v3.75h3.875v-3.75z" fill="var(--sticker-33)" />
			<path d="m15.125 0v3.75h3.75v-3.75z" fill="var(--sticker-34)" />
			<path d="m18.875 0v3.75h3.75v-3.75z" fill="var(--sticker-35)" />
			<path d="m0 3.75v3.75h3.75v-3.75z" fill="var(--sticker-24)" />
			<path d="m3.75 3.75v3.75h3.75v-3.75z" fill="var(--sticker-25)" />
			<path d="m7.5 3.75v3.75h3.75v-3.75z" fill="var(--sticker-26)" />
			<path d="m11.25 3.75v3.75h3.875v-3.75z" fill="var(--sticker-27)" />
			<path d="m15.125 3.75v3.75h3.75v-3.75z" fill="var(--sticker-28)" />
			<path d="m18.875 3.75v3.75h3.75v-3.75z" fill="var(--sticker-29)" />
			<path d="m0 7.5v3.875h3.75v-3.875z" fill="var(--sticker-18)" />
			<path d="m3.75 7.5v3.875h3.75v-3.875z" fill="var(--sticker-19)" />
			<path d="m7.5 7.5v3.875h3.75v-3.875z" fill="var(--sticker-20)" />
			<path d="m11.25 7.5v3.875h3.875v-3.875z" fill="var(--sticker-21)" />
			<path d="m15.125 7.5v3.875h3.75v-3.875z" fill="var(--sticker-22)" />
			<path d="m18.875 7.5v3.875h3.75v-3.875z" fill="var(--sticker-23)" />
			<path d="m0 11.375v3.75h3.75v-3.75z" fill="var(--sticker-12)" />
			<path d="m3.75 11.375v3.75h3.75v-3.75z" fill="var(--sticker-13)" />
			<path d="m7.5 11.375v3.75h3.75v-3.75z" fill="var(--sticker-14)" />
			<path d="m11.25 11.375v3.75h3.875v-3.75z" fill="var(--sticker-15)" />
			<path d="m15.125 11.375v3.75h3.75v-3.75z" fill="var(--sticker-16)" />
			<path d="m18.875 11.375v3.75h3.75v-3.75z" fill="var(--sticker-17)" />
			<path d="m0 15.125v3.75h3.75v-3.75z" fill="var(--sticker-6)" />
			<path d="m3.75 15.125v3.75h3.75v-3.75z" fill="var(--sticker-7)" />
			<path d="m7.5 15.125v3.75h3.75v-3.75z" fill="var(--sticker-8)" />
			<path d="m11.25 15.125v3.75h3.875v-3.75z" fill="var(--sticker-9)" />
			<path d="m15.125 15.125v3.75h3.75v-3.75z" fill="var(--sticker-10)" />
			<path d="m18.875 15.125v3.75h3.75v-3.75z" fill="var(--sticker-11)" />
			<path d="m0 18.875v3.75h3.75v-3.75z" fill="var(--sticker-0)" />
			<path d="m3.75 18.875v3.75h3.75v-3.75z" fill="var(--sticker-1)" />
			<path d="m7.5 18.875v3.75h3.75v-3.75z" fill="var(--sticker-2)" />
			<path d="m11.25 18.875v3.75h3.875v-3.75z" fill="var(--sticker-3)" />
			<path d="m15.125 18.875v3.75h3.75v-3.75z" fill="var(--sticker-4)" />
			<path d="m18.875 18.875v3.75h3.75v-3.75z" fill="var(--sticker-5)" />
		</g>
	</g>
</svg>
