<svg height="55" viewBox="0 0 101 55" width="101" xmlns="http://www.w3.org/2000/svg">
	<g fill="none" stroke="var(--colors-black-main)" stroke-width=".5">
		<g fill="var(--colors-white-main)" transform="translate(16.870121 15.2222)">
			<path d="m10.574329 0 3.4409548 2.5-3.4409548 2.5-3.44095477-2.5z" fill="var(--sticker-0)" />
			<path d="m17.707579 5.18240974 3.4410791 2.50009026-3.4410791 2.5000903-3.441079-2.5000903z" fill="var(--sticker-1)" transform="matrix(.30898884 .95106566 -.95106566 .30898884 19.542697 -11.532377)" />
			<path d="m14.982829 13.5675127 3.4409374 2.4999873-3.4409374 2.4999873-3.4409373-2.4999873z" fill="var(--sticker-2)" transform="matrix(-.80900411 .58780299 -.58780299 -.80900411 36.548524 20.259222)" />
			<path d="m6.16582903 13.5675127 3.44093733 2.4999873-3.44093733 2.4999873-3.44093732-2.4999873z" fill="var(--sticker-3)" transform="matrix(-.80900411 -.58780299 .58780299 -.80900411 1.709486 32.690466)" />
			<path d="m3.44107903 5.18240974 3.44107904 2.50009026-3.44107904 2.5000903-3.44107903-2.5000903z" fill="var(--sticker-4)" transform="matrix(.30898884 -.95106566 .95106566 .30898884 -4.928738 8.581385)" />
			<path d="m16.6439394 4.40983006-2.6286556-1.90983006-3.4409548 2.5 4.7552826 3.45491503z" fill="var(--sticker-5)" />
			<path d="m18.8483887 10.4212716-2.6287504-1.90989903-3.4410791 2.50009023 4.7554543 3.4550398z" fill="var(--sticker-6)" transform="matrix(.30898884 .95106566 -.95106566 .30898884 21.854021 -7.100668)" />
			<path d="m13.8123119 14.3749733-2.6286422-1.9098203-3.44093735 2.4999873 4.75525845 3.4548974z" fill="var(--sticker-7)" transform="matrix(-.80900411 .58780299 -.58780299 -.80900411 28.573785 21.600658)" />
			<path d="m8.49561093 10.8072564-2.6286422-1.9098204-3.44093732 2.4999873 4.75525842 3.4548975z" fill="var(--sticker-8)" transform="matrix(-.80900411 -.58780299 .58780299 -.80900411 2.898559 24.69159)" />
			<path d="m10.2456084 4.64846516-2.62875044-1.90989901-3.44107903 2.50009026 4.75545426 3.45503977z" fill="var(--sticker-9)" transform="matrix(.30898884 -.95106566 .95106566 .30898884 -.453746 10.807754)" />
			<path d="m10.574329 5 4.7552826 3.45491503-1.8163563 5.59016997h-5.87785253l-1.81635632-5.59016997z" fill="var(--sticker-10)" />
		</g>
		<g fill="var(--colors-red-main)" transform="translate(16.870121 30.835063)">
			<path d="m17.707579 10.384897 3.4410791 2.5000903-3.4410791 2.5000903-3.441079-2.5000903z" fill="var(--sticker-22)" transform="matrix(-.30898884 .95106566 -.95106566 -.30898884 35.433492 .025234)" />
			<path d="m10.574329 15.5674873 3.4409548 2.5-3.4409548 2.5-3.44095477-2.5z" fill="var(--sticker-23)" transform="matrix(-1 0 0 -1 21.148658 36.134974)" />
			<path d="m3.44107903 10.384897 3.44107904 2.5000903-3.44107904 2.5000903-3.44107903-2.5000903z" fill="var(--sticker-24)" transform="matrix(-.30898884 -.95106566 .95106566 -.30898884 -7.750135 20.138996)" />
			<path d="m6.16582903 2 3.44093733 2.4999873-3.44093733 2.4999873-3.44093732-2.4999873z" fill="var(--sticker-25)" transform="matrix(.80900411 -.58780299 .58780299 .80900411 -1.467458 4.483772)" />
			<path d="m14.982829 2 3.4409374 2.4999873-3.4409374 2.4999873-3.4409373-2.4999873z" fill="var(--sticker-26)" transform="matrix(.80900411 .58780299 -.58780299 .80900411 5.506765 -7.947473)" />
			<path d="m16.9728791 13.7836901-2.6287504-1.909899-3.4410791 2.5000903 4.7554543 3.4550397z" fill="var(--sticker-27)" transform="matrix(-.30898884 .95106566 -.95106566 -.30898884 32.369254 6.18434)" />
			<path d="m10.574329 14.0224023-2.62865553-1.90983-3.4409548 2.5 4.75528258 3.454915z" fill="var(--sticker-28)" transform="matrix(-1 0 0 -1 15.079048 30.18006)" />
			<path d="m8.37009883 8.01088372-2.62875047-1.90989901-3.44107904 2.50009026 4.75545427 3.45503973z" fill="var(--sticker-29)" transform="matrix(-.30898884 -.95106566 .95106566 -.30898884 -1.650601 16.957831)" />
			<path d="m13.4059257 4.05726991-2.6286422-1.90982036-3.44093731 2.4999873 4.75525841 3.45489748z" fill="var(--sticker-30)" transform="matrix(.80900411 -.58780299 .58780299 .80900411 -1.031582 7.075018)" />
			<path d="m18.7226267 7.62498688-2.6286422-1.90982035-3.4409374 2.4999873 4.7552585 3.45489747z" fill="var(--sticker-31)" transform="matrix(.80900411 .58780299 -.58780299 .80900411 8.105854 -7.561105)" />
			<path d="m11.0284389 6.1923159 4.7554542 3.45503977-1.8164219 5.59037173h-5.87806469l-1.8164219-5.59037173z" fill="var(--sticker-32)" transform="matrix(-.30898884 .95106566 -.95106566 -.30898884 24.626793 3.537075)" />
		</g>
		<g fill="var(--colors-blue-main)" transform="translate(1.481721 19.654713)">
			<path d="m10.574329 15.5674873 3.4409548 2.5-3.4409548 2.5-3.44095477-2.5z" fill="var(--sticker-33)" transform="matrix(-1 0 0 -1 21.148658 36.134974)" />
			<path d="m3.44107903 10.384897 3.44107904 2.5000903-3.44107904 2.5000903-3.44107903-2.5000903z" fill="var(--sticker-34)" transform="matrix(-.30898884 -.95106566 .95106566 -.30898884 -7.750135 20.138996)" />
			<path d="m6.16582903 2 3.44093733 2.4999873-3.44093733 2.4999873-3.44093732-2.4999873z" fill="var(--sticker-35)" transform="matrix(.80900411 -.58780299 .58780299 .80900411 -1.467458 4.483772)" />
			<path d="m14.982829 2 3.4409374 2.4999873-3.4409374 2.4999873-3.4409373-2.4999873z" fill="var(--sticker-36)" transform="matrix(.80900411 .58780299 -.58780299 .80900411 5.506765 -7.947473)" />
			<path d="m17.707579 10.384897 3.4410791 2.5000903-3.4410791 2.5000903-3.441079-2.5000903z" fill="var(--sticker-37)" transform="matrix(-.30898884 .95106566 -.95106566 -.30898884 35.433492 .025234)" />
			<path d="m10.574329 14.0224023-2.62865553-1.90983-3.4409548 2.5 4.75528258 3.454915z" fill="var(--sticker-38)" transform="matrix(-1 0 0 -1 15.079048 30.18006)" />
			<path d="m8.37009883 8.01088372-2.62875047-1.90989901-3.44107904 2.50009026 4.75545427 3.45503973z" fill="var(--sticker-39)" transform="matrix(-.30898884 -.95106566 .95106566 -.30898884 -1.650601 16.957831)" />
			<path d="m13.4059257 4.05726991-2.6286422-1.90982036-3.44093731 2.4999873 4.75525841 3.45489748z" fill="var(--sticker-40)" transform="matrix(.80900411 -.58780299 .58780299 .80900411 -1.031582 7.075018)" />
			<path d="m18.7226267 7.62498688-2.6286422-1.90982035-3.4409374 2.4999873 4.7552585 3.45489747z" fill="var(--sticker-41)" transform="matrix(.80900411 .58780299 -.58780299 .80900411 8.105854 -7.561105)" />
			<path d="m16.9728791 13.7836901-2.6287504-1.909899-3.4410791 2.5000903 4.7554543 3.4550397z" fill="var(--sticker-42)" transform="matrix(-.30898884 .95106566 -.95106566 -.30898884 32.369254 6.18434)" />
			<path d="m10.574329 6.52240233 4.7552826 3.45491503-1.8163563 5.59016994h-5.87785253l-1.81635632-5.59016994z" fill="var(--sticker-43)" transform="matrix(-1 0 0 -1 21.148658 22.08989)" />
		</g>
		<g fill="var(--colors-yellow-dark)" transform="translate(7.359571 1.564563)">
			<path d="m10.574329 15.5674873 3.4409548 2.5-3.4409548 2.5-3.44095477-2.5z" fill="var(--sticker-48)" transform="matrix(-1 0 0 -1 21.148658 36.134974)" />
			<path d="m3.44107903 10.384897 3.44107904 2.5000903-3.44107904 2.5000903-3.44107903-2.5000903z" fill="var(--sticker-44)" transform="matrix(-.30898884 -.95106566 .95106566 -.30898884 -7.750135 20.138996)" />
			<path d="m6.16582903 2 3.44093733 2.4999873-3.44093733 2.4999873-3.44093732-2.4999873z" fill="var(--sticker-45)" transform="matrix(.80900411 -.58780299 .58780299 .80900411 -1.467458 4.483772)" />
			<path d="m14.982829 2 3.4409374 2.4999873-3.4409374 2.4999873-3.4409373-2.4999873z" fill="var(--sticker-46)" transform="matrix(.80900411 .58780299 -.58780299 .80900411 5.506765 -7.947473)" />
			<path d="m17.707579 10.384897 3.4410791 2.5000903-3.4410791 2.5000903-3.441079-2.5000903z" fill="var(--sticker-47)" transform="matrix(-.30898884 .95106566 -.95106566 -.30898884 35.433492 .025234)" />
			<path d="m8.37009883 8.01088372-2.62875047-1.90989901-3.44107904 2.50009026 4.75545427 3.45503973z" fill="var(--sticker-49)" transform="matrix(-.30898884 -.95106566 .95106566 -.30898884 -1.650601 16.957831)" />
			<path d="m13.4059257 4.05726991-2.6286422-1.90982036-3.44093731 2.4999873 4.75525841 3.45489748z" fill="var(--sticker-50)" transform="matrix(.80900411 -.58780299 .58780299 .80900411 -1.031582 7.075018)" />
			<path d="m18.7226267 7.62498688-2.6286422-1.90982035-3.4409374 2.4999873 4.7552585 3.45489747z" fill="var(--sticker-51)" transform="matrix(.80900411 .58780299 -.58780299 .80900411 8.105854 -7.561105)" />
			<path d="m16.9728791 13.7836901-2.6287504-1.909899-3.4410791 2.5000903 4.7554543 3.4550397z" fill="var(--sticker-52)" transform="matrix(-.30898884 .95106566 -.95106566 -.30898884 32.369254 6.18434)" />
			<path d="m10.574329 14.0224023-2.62865553-1.90983-3.4409548 2.5 4.75528258 3.454915z" fill="var(--sticker-53)" transform="matrix(-1 0 0 -1 15.079048 30.18006)" />
			<path d="m10.1202192 6.1923159 4.7554543 3.45503977-1.8164219 5.59037173h-5.87806478l-1.81642189-5.59037173z" fill="var(--sticker-54)" transform="matrix(-.30898884 -.95106566 .95106566 -.30898884 3.056564 23.650837)" />
		</g>
		<g fill="var(--colors-green-dark)" transform="translate(32.258521 19.654713)">
			<path d="m14.982829 2 3.4409374 2.4999873-3.4409374 2.4999873-3.4409373-2.4999873z" fill="var(--sticker-11)" transform="matrix(.80900411 .58780299 -.58780299 .80900411 5.506765 -7.947473)" />
			<path d="m17.707579 10.384897 3.4410791 2.5000903-3.4410791 2.5000903-3.441079-2.5000903z" fill="var(--sticker-12)" transform="matrix(-.30898884 .95106566 -.95106566 -.30898884 35.433492 .025234)" />
			<path d="m10.574329 15.5674873 3.4409548 2.5-3.4409548 2.5-3.44095477-2.5z" fill="var(--sticker-13)" transform="matrix(-1 0 0 -1 21.148658 36.134974)" />
			<path d="m3.44107903 10.384897 3.44107904 2.5000903-3.44107904 2.5000903-3.44107903-2.5000903z" fill="var(--sticker-14)" transform="matrix(-.30898884 -.95106566 .95106566 -.30898884 -7.750135 20.138996)" />
			<path d="m6.16582903 2 3.44093733 2.4999873-3.44093733 2.4999873-3.44093732-2.4999873z" fill="var(--sticker-15)" transform="matrix(.80900411 -.58780299 .58780299 .80900411 -1.467458 4.483772)" />
			<path d="m18.7226267 7.62498688-2.6286422-1.90982035-3.4409374 2.4999873 4.7552585 3.45489747z" fill="var(--sticker-16)" transform="matrix(.80900411 .58780299 -.58780299 .80900411 8.105854 -7.561105)" />
			<path d="m16.9728791 13.7836901-2.6287504-1.909899-3.4410791 2.5000903 4.7554543 3.4550397z" fill="var(--sticker-17)" transform="matrix(-.30898884 .95106566 -.95106566 -.30898884 32.369254 6.18434)" />
			<path d="m10.574329 14.0224023-2.62865553-1.90983-3.4409548 2.5 4.75528258 3.454915z" fill="var(--sticker-18)" transform="matrix(-1 0 0 -1 15.079048 30.18006)" />
			<path d="m8.37009883 8.01088372-2.62875047-1.90989901-3.44107904 2.50009026 4.75545427 3.45503973z" fill="var(--sticker-19)" transform="matrix(-.30898884 -.95106566 .95106566 -.30898884 -1.650601 16.957831)" />
			<path d="m13.4059257 4.05726991-2.6286422-1.90982036-3.44093731 2.4999873 4.75525841 3.45489748z" fill="var(--sticker-20)" transform="matrix(.80900411 -.58780299 .58780299 .80900411 -1.031582 7.075018)" />
			<path d="m10.8549786 5.65870466 4.7552584 3.45489748-1.8163471 5.59014156h-5.87782267l-1.81634709-5.59014156z" fill="var(--sticker-21)" transform="matrix(.80900411 .58780299 -.58780299 .80900411 8.05781 -4.436017)" />
		</g>
		<g fill="var(--colors-purple-main)" transform="translate(26.380671 1.564563)">
			<path d="m6.16582903 2 3.44093733 2.4999873-3.44093733 2.4999873-3.44093732-2.4999873z" fill="var(--sticker-55)" transform="matrix(.80900411 -.58780299 .58780299 .80900411 -1.467458 4.483772)" />
			<path d="m14.982829 2 3.4409374 2.4999873-3.4409374 2.4999873-3.4409373-2.4999873z" fill="var(--sticker-56)" transform="matrix(.80900411 .58780299 -.58780299 .80900411 5.506765 -7.947473)" />
			<path d="m17.707579 10.384897 3.4410791 2.5000903-3.4410791 2.5000903-3.441079-2.5000903z" fill="var(--sticker-57)" transform="matrix(-.30898884 .95106566 -.95106566 -.30898884 35.433492 .025234)" />
			<path d="m10.574329 15.5674873 3.4409548 2.5-3.4409548 2.5-3.44095477-2.5z" fill="var(--sticker-58)" transform="matrix(-1 0 0 -1 21.148658 36.134974)" />
			<path d="m3.44107903 10.384897 3.44107904 2.5000903-3.44107904 2.5000903-3.44107903-2.5000903z" fill="var(--sticker-59)" transform="matrix(-.30898884 -.95106566 .95106566 -.30898884 -7.750135 20.138996)" />
			<path d="m13.4059257 4.05726991-2.6286422-1.90982036-3.44093731 2.4999873 4.75525841 3.45489748z" fill="var(--sticker-60)" transform="matrix(.80900411 -.58780299 .58780299 .80900411 -1.031582 7.075018)" />
			<path d="m18.7226267 7.62498688-2.6286422-1.90982035-3.4409374 2.4999873 4.7552585 3.45489747z" fill="var(--sticker-61)" transform="matrix(.80900411 .58780299 -.58780299 .80900411 8.105854 -7.561105)" />
			<path d="m16.9728791 13.7836901-2.6287504-1.909899-3.4410791 2.5000903 4.7554543 3.4550397z" fill="var(--sticker-62)" transform="matrix(-.30898884 .95106566 -.95106566 -.30898884 32.369254 6.18434)" />
			<path d="m8.37009883 8.01088372-2.62875047-1.90989901-3.44107904 2.50009026 4.75545427 3.45503973z" fill="var(--sticker-64)" transform="matrix(-.30898884 -.95106566 .95106566 -.30898884 -1.650601 16.957831)" />
			<path d="m10.2936795 5.65870466 4.7552584 3.45489748-1.8163471 5.59014156h-5.87782262l-1.8163471-5.59014156z" fill="var(--sticker-65)" transform="matrix(.80900411 -.58780299 .58780299 .80900411 -4.018503 7.995228)" />
			<path d="m10.574329 14.0224023-2.62865553-1.90983-3.4409548 2.5 4.75528258 3.454915z" fill="var(--sticker-63)" transform="matrix(-1 0 0 -1 15.079048 30.18006)" />
		</g>
		<g fill="var(--colors-yellow-light)" transform="translate(53.524821 33.3124)">
			<path d="m10.574329 0 3.4409548 2.5-3.4409548 2.5-3.44095477-2.5z" fill="var(--sticker-66)" />
			<path d="m17.707579 5.18240974 3.4410791 2.50009026-3.4410791 2.5000903-3.441079-2.5000903z" fill="var(--sticker-67)" transform="matrix(.30898884 .95106566 -.95106566 .30898884 19.542697 -11.532377)" />
			<path d="m14.982829 13.5675127 3.4409374 2.4999873-3.4409374 2.4999873-3.4409373-2.4999873z" fill="var(--sticker-68)" transform="matrix(-.80900411 .58780299 -.58780299 -.80900411 36.548524 20.259222)" />
			<path d="m6.16582903 13.5675127 3.44093733 2.4999873-3.44093733 2.4999873-3.44093732-2.4999873z" fill="var(--sticker-69)" transform="matrix(-.80900411 -.58780299 .58780299 -.80900411 1.709486 32.690466)" />
			<path d="m3.44107903 5.18240974 3.44107904 2.50009026-3.44107904 2.5000903-3.44107903-2.5000903z" fill="var(--sticker-70)" transform="matrix(.30898884 -.95106566 .95106566 .30898884 -4.928738 8.581385)" />
			<path d="m16.6439394 4.40983006-2.6286556-1.90983006-3.4409548 2.5 4.7552826 3.45491503z" fill="var(--sticker-71)" />
			<path d="m18.8483887 10.4212716-2.6287504-1.90989903-3.4410791 2.50009023 4.7554543 3.4550398z" fill="var(--sticker-72)" transform="matrix(.30898884 .95106566 -.95106566 .30898884 21.854021 -7.100668)" />
			<path d="m13.8123119 14.3749733-2.6286422-1.9098203-3.44093735 2.4999873 4.75525845 3.4548974z" fill="var(--sticker-73)" transform="matrix(-.80900411 .58780299 -.58780299 -.80900411 28.573785 21.600658)" />
			<path d="m8.49561093 10.8072564-2.6286422-1.9098204-3.44093732 2.4999873 4.75525842 3.4548975z" fill="var(--sticker-74)" transform="matrix(-.80900411 -.58780299 .58780299 -.80900411 2.898559 24.69159)" />
			<path d="m10.2456084 4.64846516-2.62875044-1.90989901-3.44107903 2.50009026 4.75545426 3.45503977z" fill="var(--sticker-75)" transform="matrix(.30898884 -.95106566 .95106566 .30898884 -.453746 10.807754)" />
			<path d="m10.574329 5 4.7552826 3.45491503-1.8163563 5.59016997h-5.87785253l-1.81635632-5.59016997z" fill="var(--sticker-76)" />
		</g>
		<g fill="var(--colors-pink-main)" transform="translate(72.545921 33.3124)">
			<path d="m3.44107903 5.18240974 3.44107904 2.50009026-3.44107904 2.5000903-3.44107903-2.5000903z" fill="var(--sticker-77)" transform="matrix(.30898884 -.95106566 .95106566 .30898884 -4.928738 8.581385)" />
			<path d="m10.574329 0 3.4409548 2.5-3.4409548 2.5-3.44095477-2.5z" fill="var(--sticker-78)" />
			<path d="m17.707579 5.18240974 3.4410791 2.50009026-3.4410791 2.5000903-3.441079-2.5000903z" fill="var(--sticker-79)" transform="matrix(.30898884 .95106566 -.95106566 .30898884 19.542697 -11.532377)" />
			<path d="m14.982829 13.5675127 3.4409374 2.4999873-3.4409374 2.4999873-3.4409373-2.4999873z" fill="var(--sticker-80)" transform="matrix(-.80900411 .58780299 -.58780299 -.80900411 36.548524 20.259222)" />
			<path d="m6.16582903 13.5675127 3.44093733 2.4999873-3.44093733 2.4999873-3.44093732-2.4999873z" fill="var(--sticker-81)" transform="matrix(-.80900411 -.58780299 .58780299 -.80900411 1.709486 32.690466)" />
			<path d="m10.2456084 4.64846516-2.62875044-1.90989901-3.44107903 2.50009026 4.75545426 3.45503977z" fill="var(--sticker-82)" transform="matrix(.30898884 -.95106566 .95106566 .30898884 -.453746 10.807754)" />
			<path d="m16.6439394 4.40983006-2.6286556-1.90983006-3.4409548 2.5 4.7552826 3.45491503z" fill="var(--sticker-83)" />
			<path d="m18.8483887 10.4212716-2.6287504-1.90989903-3.4410791 2.50009023 4.7554543 3.4550398z" fill="var(--sticker-84)" transform="matrix(.30898884 .95106566 -.95106566 .30898884 21.854021 -7.100668)" />
			<path d="m13.8123119 14.3749733-2.6286422-1.9098203-3.44093735 2.4999873 4.75525845 3.4548974z" fill="var(--sticker-85)" transform="matrix(-.80900411 .58780299 -.58780299 -.80900411 28.573785 21.600658)" />
			<path d="m8.49561093 10.8072564-2.6286422-1.9098204-3.44093732 2.4999873 4.75525842 3.4548975z" fill="var(--sticker-86)" transform="matrix(-.80900411 -.58780299 .58780299 -.80900411 2.898559 24.69159)" />
			<path d="m10.1202192 5.32975986 4.7554543 3.45503976-1.8164219 5.59037178h-5.87806478l-1.81642189-5.59037178z" fill="var(--sticker-87)" transform="matrix(.30898884 -.95106566 .95106566 .30898884 -2.377158 16.433157)" />
		</g>
		<g fill="var(--colors-green-main)" transform="translate(78.423771 15.2222)">
			<path d="m6.16582903 13.5675127 3.44093733 2.4999873-3.44093733 2.4999873-3.44093732-2.4999873z" fill="var(--sticker-88)" transform="matrix(-.80900411 -.58780299 .58780299 -.80900411 1.709486 32.690466)" />
			<path d="m3.44107903 5.18240974 3.44107904 2.50009026-3.44107904 2.5000903-3.44107903-2.5000903z" fill="var(--sticker-89)" transform="matrix(.30898884 -.95106566 .95106566 .30898884 -4.928738 8.581385)" />
			<path d="m10.574329 0 3.4409548 2.5-3.4409548 2.5-3.44095477-2.5z" fill="var(--sticker-90)" />
			<path d="m17.707579 5.18240974 3.4410791 2.50009026-3.4410791 2.5000903-3.441079-2.5000903z" fill="var(--sticker-91)" transform="matrix(.30898884 .95106566 -.95106566 .30898884 19.542697 -11.532377)" />
			<path d="m14.982829 13.5675127 3.4409374 2.4999873-3.4409374 2.4999873-3.4409373-2.4999873z" fill="var(--sticker-92)" transform="matrix(-.80900411 .58780299 -.58780299 -.80900411 36.548524 20.259222)" />
			<path d="m8.49561093 10.8072564-2.6286422-1.9098204-3.44093732 2.4999873 4.75525842 3.4548975z" fill="var(--sticker-93)" transform="matrix(-.80900411 -.58780299 .58780299 -.80900411 2.898559 24.69159)" />
			<path d="m10.2456084 4.64846516-2.62875044-1.90989901-3.44107903 2.50009026 4.75545426 3.45503977z" fill="var(--sticker-94)" transform="matrix(.30898884 -.95106566 .95106566 .30898884 -.453746 10.807754)" />
			<path d="m16.6439394 4.40983006-2.6286556-1.90983006-3.4409548 2.5 4.7552826 3.45491503z" fill="var(--sticker-95)" />
			<path d="m13.8123119 14.3749733-2.6286422-1.9098203-3.44093735 2.4999873 4.75525845 3.4548974z" fill="var(--sticker-97)" transform="matrix(-.80900411 .58780299 -.58780299 -.80900411 28.573785 21.600658)" />
			<path d="m10.2936795 5.86374362 4.7552584 3.45489747-1.8163471 5.59014151h-5.87782262l-1.8163471-5.59014151z" fill="var(--sticker-98)" transform="matrix(-.80900411 -.58780299 .58780299 -.80900411 12.516233 24.839448)" />
			<path d="m18.8483887 10.4212716-2.6287504-1.90989903-3.4410791 2.50009023 4.7554543 3.4550398z" fill="var(--sticker-96)" transform="matrix(.30898884 .95106566 -.95106566 .30898884 21.854021 -7.100668)" />
		</g>
		<g fill="var(--colors-orange-main)" transform="translate(64.0987 4.0419)">
			<path d="m13.9195 13.5675127 3.4409373 2.4999873-3.4409373 2.4999873-3.4409373-2.4999873z" fill="var(--sticker-99)" transform="matrix(-.80900411 .58780299 -.58780299 -.80900411 34.624957 20.88425)" />
			<path d="m5.1025 13.5675127 3.44093732 2.4999873-3.44093732 2.4999873-3.44093732-2.4999873z" fill="var(--sticker-100)" transform="matrix(-.80900411 -.58780299 .58780299 -.80900411 -.214081 32.065438)" />
			<path d="m0 6.91 3.44100503-2.50019211 1.31449497 4.04519211-3.44100503 2.5001921z" fill="var(--sticker-101)" />
			<path d="m9.511 0 3.4409548 2.5-3.4409548 2.5-3.4409548-2.5z" fill="var(--sticker-102)" />
			<path d="m16.64425 5.18240974 3.441079 2.50009026-3.441079 2.5000903-3.441079-2.5000903z" fill="var(--sticker-103)" transform="matrix(.30898884 .95106566 -.95106566 .30898884 18.807924 -10.521081)" />
			<path d="m12.7489828 14.3749733-2.6286422-1.9098203-3.44093728 2.4999873 4.75525838 3.4548974z" fill="var(--sticker-104)" transform="matrix(-.80900411 .58780299 -.58780299 -.80900411 26.650219 22.225686)" />
			<path d="m7.4322819 10.8072564-2.62864221-1.9098204-3.44093732 2.4999873 4.75525843 3.4548975z" fill="var(--sticker-105)" transform="matrix(-.80900411 -.58780299 .58780299 -.80900411 .974992 24.066562)" />
			<path d="m6.06969897 2.49983107-2.62869394 1.90997682 1.31449497 4.04519211 4.755352-3.45518052z" fill="var(--sticker-106)" />
			<path d="m15.5806104 4.40983006-2.6286556-1.90983006-3.4409548 2.5 4.7552826 3.45491503z" fill="var(--sticker-107)" />
			<path d="m17.7850597 10.4212716-2.6287505-1.90989903-3.441079 2.50009023 4.7554543 3.4550398z" fill="var(--sticker-108)" transform="matrix(.30898884 .95106566 -.95106566 .30898884 21.119249 -6.089372)" />
			<path d="m9.79164953 5.86374362 4.75525847 3.45489747-1.8163471 5.59014151h-5.8778227l-1.8163471-5.59014151z" fill="var(--sticker-109)" transform="matrix(-.80900411 .58780299 -.58780299 -.80900411 23.818211 13.033231)" />
		</g>
		<g fill="var(--colors-blue-light)" transform="translate(47.646971 15.2222)">
			<path d="m17.707579 5.18240974 3.4410791 2.50009026-3.4410791 2.5000903-3.441079-2.5000903z" fill="var(--sticker-110)" transform="matrix(.30898884 .95106566 -.95106566 .30898884 19.542697 -11.532377)" />
			<path d="m14.982829 13.5675127 3.4409374 2.4999873-3.4409374 2.4999873-3.4409373-2.4999873z" fill="var(--sticker-111)" transform="matrix(-.80900411 .58780299 -.58780299 -.80900411 36.548524 20.259222)" />
			<path d="m6.16582903 13.5675127 3.44093733 2.4999873-3.44093733 2.4999873-3.44093732-2.4999873z" fill="var(--sticker-112)" transform="matrix(-.80900411 -.58780299 .58780299 -.80900411 1.709486 32.690466)" />
			<path d="m3.44107903 5.18240974 3.44107904 2.50009026-3.44107904 2.5000903-3.44107903-2.5000903z" fill="var(--sticker-113)" transform="matrix(.30898884 -.95106566 .95106566 .30898884 -4.928738 8.581385)" />
			<path d="m10.574329 0 3.4409548 2.5-3.4409548 2.5-3.44095477-2.5z" fill="var(--sticker-114)" />
			<path d="m18.8483887 10.4212716-2.6287504-1.90989903-3.4410791 2.50009023 4.7554543 3.4550398z" fill="var(--sticker-115)" transform="matrix(.30898884 .95106566 -.95106566 .30898884 21.854021 -7.100668)" />
			<path d="m13.8123119 14.3749733-2.6286422-1.9098203-3.44093735 2.4999873 4.75525845 3.4548974z" fill="var(--sticker-116)" transform="matrix(-.80900411 .58780299 -.58780299 -.80900411 28.573785 21.600658)" />
			<path d="m8.49561093 10.8072564-2.6286422-1.9098204-3.44093732 2.4999873 4.75525842 3.4548975z" fill="var(--sticker-117)" transform="matrix(-.80900411 -.58780299 .58780299 -.80900411 2.898559 24.69159)" />
			<path d="m10.2456084 4.64846516-2.62875044-1.90989901-3.44107903 2.50009026 4.75545426 3.45503977z" fill="var(--sticker-118)" transform="matrix(.30898884 -.95106566 .95106566 .30898884 -.453746 10.807754)" />
			<path d="m16.6439394 4.40983006-2.6286556-1.90983006-3.4409548 2.5 4.7552826 3.45491503z" fill="var(--sticker-119)" />
			<path d="m11.0284389 5.32975986 4.7554542 3.45503976-1.8164219 5.59037178h-5.87806469l-1.8164219-5.59037178z" fill="var(--sticker-120)" transform="matrix(.30898884 .95106566 -.95106566 .30898884 16.991117 -3.680606)" />
		</g>
		<g fill="var(--colors-grey-main)" transform="translate(63.035371 19.654713)">
			<path d="m10.574329 15.5674873 3.4409548 2.5-3.4409548 2.5-3.44095477-2.5z" fill="var(--sticker-121)" transform="matrix(-1 0 0 -1 21.148658 36.134974)" />
			<path d="m3.44107903 10.384897 3.44107904 2.5000903-3.44107904 2.5000903-3.44107903-2.5000903z" fill="var(--sticker-122)" transform="matrix(-.30898884 -.95106566 .95106566 -.30898884 -7.750135 20.138996)" />
			<path d="m6.16582903 2 3.44093733 2.4999873-3.44093733 2.4999873-3.44093732-2.4999873z" fill="var(--sticker-123)" transform="matrix(.80900411 -.58780299 .58780299 .80900411 -1.467458 4.483772)" />
			<path d="m14.982829 2 3.4409374 2.4999873-3.4409374 2.4999873-3.4409373-2.4999873z" fill="var(--sticker-124)" transform="matrix(.80900411 .58780299 -.58780299 .80900411 5.506765 -7.947473)" />
			<path d="m17.707579 10.384897 3.4410791 2.5000903-3.4410791 2.5000903-3.441079-2.5000903z" fill="var(--sticker-125)" transform="matrix(-.30898884 .95106566 -.95106566 -.30898884 35.433492 .025234)" />
			<path d="m10.574329 14.0224023-2.62865553-1.90983-3.4409548 2.5 4.75528258 3.454915z" fill="var(--sticker-126)" transform="matrix(-1 0 0 -1 15.079048 30.18006)" />
			<path d="m8.37009883 8.01088372-2.62875047-1.90989901-3.44107904 2.50009026 4.75545427 3.45503973z" fill="var(--sticker-127)" transform="matrix(-.30898884 -.95106566 .95106566 -.30898884 -1.650601 16.957831)" />
			<path d="m13.4059257 4.05726991-2.6286422-1.90982036-3.44093731 2.4999873 4.75525841 3.45489748z" fill="var(--sticker-128)" transform="matrix(.80900411 -.58780299 .58780299 .80900411 -1.031582 7.075018)" />
			<path d="m18.7226267 7.62498688-2.6286422-1.90982035-3.4409374 2.4999873 4.7552585 3.45489747z" fill="var(--sticker-129)" transform="matrix(.80900411 .58780299 -.58780299 .80900411 8.105854 -7.561105)" />
			<path d="m16.9728791 13.7836901-2.6287504-1.909899-3.4410791 2.5000903 4.7554543 3.4550397z" fill="var(--sticker-130)" transform="matrix(-.30898884 .95106566 -.95106566 -.30898884 32.369254 6.18434)" />
			<path d="m10.574329 6.52240233 4.7552826 3.45491503-1.8163563 5.59016994h-5.87785253l-1.81635632-5.59016994z" fill="var(--sticker-131)" transform="matrix(-1 0 0 -1 21.148658 22.08989)" />
		</g>
	</g>
</svg>
