<svg height="74" viewBox="0 0 99 74" width="99" xmlns="http://www.w3.org/2000/svg">
	<g fill="none" stroke="var(--colors-grey-main)" stroke-width=".5">
		<g fill="var(--colors-green-main)" transform="translate(25.25 .25)">
			<path d="m0 0v5.5h5.5v-5.5z" fill="var(--sticker-48)" />
			<path d="m5.5 0v5.5h5.5v-5.5z" fill="var(--sticker-49)" />
			<path d="m11 0v5.5h6v-5.5z" fill="var(--sticker-50)" />
			<path d="m17 0v5.5h5.5v-5.5z" fill="var(--sticker-51)" />
			<path d="m0 5.5v6h5.5v-6z" fill="var(--sticker-52)" />
			<path d="m5.5 5.5v6h5.5v-6z" fill="var(--sticker-53)" />
			<path d="m11 5.5v6h6v-6z" fill="var(--sticker-54)" />
			<path d="m17 5.5v6h5.5v-6z" fill="var(--sticker-55)" />
			<path d="m0 11.5v5.5h5.5v-5.5z" fill="var(--sticker-56)" />
			<path d="m5.5 11.5v5.5h5.5v-5.5z" fill="var(--sticker-57)" />
			<path d="m11 11.5v5.5h6v-5.5z" fill="var(--sticker-58)" />
			<path d="m17 11.5v5.5h5.5v-5.5z" fill="var(--sticker-59)" />
			<path d="m0 17v5.5h5.5v-5.5z" fill="var(--sticker-60)" />
			<path d="m5.5 17v5.5h5.5v-5.5z" fill="var(--sticker-61)" />
			<path d="m11 17v5.5h6v-5.5z" fill="var(--sticker-62)" />
			<path d="m17 17v5.5h5.5v-5.5z" fill="var(--sticker-63)" />
		</g>
		<g fill="var(--colors-red-main)" transform="translate(.25 25.25)">
			<path d="m0 0v5.5h5.5v-5.5z" fill="var(--sticker-19)" />
			<path d="m5.5 0v5.5h5.5v-5.5z" fill="var(--sticker-18)" />
			<path d="m11 0v5.5h6v-5.5z" fill="var(--sticker-17)" />
			<path d="m17 0v5.5h5.5v-5.5z" fill="var(--sticker-16)" />
			<path d="m0 5.5v6h5.5v-6z" fill="var(--sticker-23)" />
			<path d="m5.5 5.5v6h5.5v-6z" fill="var(--sticker-22)" />
			<path d="m11 5.5v6h6v-6z" fill="var(--sticker-21)" />
			<path d="m17 5.5v6h5.5v-6z" fill="var(--sticker-20)" />
			<path d="m0 11.5v5.5h5.5v-5.5z" fill="var(--sticker-27)" />
			<path d="m5.5 11.5v5.5h5.5v-5.5z" fill="var(--sticker-26)" />
			<path d="m11 11.5v5.5h6v-5.5z" fill="var(--sticker-25)" />
			<path d="m17 11.5v5.5h5.5v-5.5z" fill="var(--sticker-24)" />
			<path d="m0 17v5.5h5.5v-5.5z" fill="var(--sticker-31)" />
			<path d="m5.5 17v5.5h5.5v-5.5z" fill="var(--sticker-30)" />
			<path d="m11 17v5.5h6v-5.5z" fill="var(--sticker-29)" />
			<path d="m17 17v5.5h5.5v-5.5z" fill="var(--sticker-28)" />
		</g>
		<g fill="var(--colors-yellow-main)" transform="translate(25.25 25.25)">
			<path d="m0 0v5.5h5.5v-5.5z" fill="var(--sticker-80)" />
			<path d="m5.5 0v5.5h5.5v-5.5z" fill="var(--sticker-81)" />
			<path d="m11 0v5.5h6v-5.5z" fill="var(--sticker-82)" />
			<path d="m17 0v5.5h5.5v-5.5z" fill="var(--sticker-83)" />
			<path d="m0 5.5v6h5.5v-6z" fill="var(--sticker-84)" />
			<path d="m5.5 5.5v6h5.5v-6z" fill="var(--sticker-85)" />
			<path d="m11 5.5v6h6v-6z" fill="var(--sticker-86)" />
			<path d="m17 5.5v6h5.5v-6z" fill="var(--sticker-87)" />
			<path d="m0 11.5v5.5h5.5v-5.5z" fill="var(--sticker-88)" />
			<path d="m5.5 11.5v5.5h5.5v-5.5z" fill="var(--sticker-89)" />
			<path d="m11 11.5v5.5h6v-5.5z" fill="var(--sticker-90)" />
			<path d="m17 11.5v5.5h5.5v-5.5z" fill="var(--sticker-91)" />
			<path d="m0 17v5.5h5.5v-5.5z" fill="var(--sticker-92)" />
			<path d="m5.5 17v5.5h5.5v-5.5z" fill="var(--sticker-93)" />
			<path d="m11 17v5.5h6v-5.5z" fill="var(--sticker-94)" />
			<path d="m17 17v5.5h5.5v-5.5z" fill="var(--sticker-95)" />
		</g>
		<g fill="var(--colors-orange-main)" transform="translate(50.25 25.25)">
			<path d="m0 0v5.5h5.5v-5.5z" fill="var(--sticker-64)" />
			<path d="m5.5 0v5.5h6v-5.5z" fill="var(--sticker-65)" />
			<path d="m11.5 0v5.5h5.5v-5.5z" fill="var(--sticker-66)" />
			<path d="m17 0v5.5h5.5v-5.5z" fill="var(--sticker-67)" />
			<path d="m0 5.5v6h5.5v-6z" fill="var(--sticker-68)" />
			<path d="m5.5 5.5v6h6v-6z" fill="var(--sticker-69)" />
			<path d="m11.5 5.5v6h5.5v-6z" fill="var(--sticker-70)" />
			<path d="m17 5.5v6h5.5v-6z" fill="var(--sticker-71)" />
			<path d="m0 11.5v5.5h5.5v-5.5z" fill="var(--sticker-72)" />
			<path d="m5.5 11.5v5.5h6v-5.5z" fill="var(--sticker-73)" />
			<path d="m11.5 11.5v5.5h5.5v-5.5z" fill="var(--sticker-74)" />
			<path d="m17 11.5v5.5h5.5v-5.5z" fill="var(--sticker-75)" />
			<path d="m0 17v5.5h5.5v-5.5z" fill="var(--sticker-76)" />
			<path d="m5.5 17v5.5h6v-5.5z" fill="var(--sticker-77)" />
			<path d="m11.5 17v5.5h5.5v-5.5z" fill="var(--sticker-78)" />
			<path d="m17 17v5.5h5.5v-5.5z" fill="var(--sticker-79)" />
		</g>
		<g fill="var(--colors-white-main)" transform="translate(75.25 25.25)">
			<path d="m0 0v5.5h5.5v-5.5z" fill="var(--sticker-35)" />
			<path d="m5.5 0v5.5h6v-5.5z" fill="var(--sticker-34)" />
			<path d="m11.5 0v5.5h5.5v-5.5z" fill="var(--sticker-33)" />
			<path d="m17 0v5.5h5.5v-5.5z" fill="var(--sticker-32)" />
			<path d="m0 5.5v6h5.5v-6z" fill="var(--sticker-39)" />
			<path d="m5.5 5.5v6h6v-6z" fill="var(--sticker-38)" />
			<path d="m11.5 5.5v6h5.5v-6z" fill="var(--sticker-37)" />
			<path d="m17 5.5v6h5.5v-6z" fill="var(--sticker-36)" />
			<path d="m0 11.5v5.5h5.5v-5.5z" fill="var(--sticker-43)" />
			<path d="m5.5 11.5v5.5h6v-5.5z" fill="var(--sticker-42)" />
			<path d="m11.5 11.5v5.5h5.5v-5.5z" fill="var(--sticker-41)" />
			<path d="m17 11.5v5.5h5.5v-5.5z" fill="var(--sticker-40)" />
			<path d="m0 17v5.5h5.5v-5.5z" fill="var(--sticker-47)" />
			<path d="m5.5 17v5.5h6v-5.5z" fill="var(--sticker-46)" />
			<path d="m11.5 17v5.5h5.5v-5.5z" fill="var(--sticker-45)" />
			<path d="m17 17v5.5h5.5v-5.5z" fill="var(--sticker-44)" />
		</g>
		<g fill="var(--colors-blue-main)" transform="translate(25.25 50.25)">
			<path d="m0 0v5.5h5.5v-5.5z" fill="var(--sticker-12)" />
			<path d="m5.5 0v5.5h5.5v-5.5z" fill="var(--sticker-13)" />
			<path d="m11 0v5.5h6v-5.5z" fill="var(--sticker-14)" />
			<path d="m17 0v5.5h5.5v-5.5z" fill="var(--sticker-15)" />
			<path d="m0 5.5v6h5.5v-6z" fill="var(--sticker-8)" />
			<path d="m5.5 5.5v6h5.5v-6z" fill="var(--sticker-9)" />
			<path d="m11 5.5v6h6v-6z" fill="var(--sticker-10)" />
			<path d="m17 5.5v6h5.5v-6z" fill="var(--sticker-11)" />
			<path d="m0 11.5v5.5h5.5v-5.5z" fill="var(--sticker-4)" />
			<path d="m5.5 11.5v5.5h5.5v-5.5z" fill="var(--sticker-5)" />
			<path d="m11 11.5v5.5h6v-5.5z" fill="var(--sticker-6)" />
			<path d="m17 11.5v5.5h5.5v-5.5z" fill="var(--sticker-7)" />
			<path d="m0 17v5.5h5.5v-5.5z" fill="var(--sticker-0)" />
			<path d="m5.5 17v5.5h5.5v-5.5z" fill="var(--sticker-1)" />
			<path d="m11 17v5.5h6v-5.5z" fill="var(--sticker-2)" />
			<path d="m17 17v5.5h5.5v-5.5z" fill="var(--sticker-3)" />
		</g>
	</g>
</svg>
