<svg height="469" viewBox="0 0 962 469" width="962" xmlns="http://www.w3.org/2000/svg">
	<g fill="none" fill-rule="evenodd">
		<g transform="translate(0 .017241)">
			<path d="m234 2.5c42.067358 0 81.514325 11.2198118 115.510615 30.8318096.248996.1436425.497749.2877636.746324.4296178.278865-.0407945.55766-.0799437.836375-.117454 3.238621-.4358644 6.546331-.6612148 9.906686-.6612148 20.296465 0 38.671465 8.2267677 51.972348 21.5276516 13.300884 13.3008839 21.527652 31.6758839 21.527652 51.9723488 0 3.259545-.212035 6.469556-.623204 9.616973-.03649.279318-.074621.558709-.112855.84435.144301.245662.288133.491567.431496.737713 19.905618 34.1768 31.304563 73.916391 31.304563 116.318205 0 41.916944-11.139714 81.232204-30.621761 115.14574-.148636.25874-.297788.517219-.443835.775289.049329.287755.096899.575491.142716.863192.606359 3.807507.92288 7.716053.92288 11.698538 0 20.296464-8.226768 38.671464-21.527652 51.972348-13.300883 13.300884-31.675883 21.527652-51.972348 21.527652-4.078239 0-8.078935-.331933-11.976502-.970502-.288083-.047199-.576166-.096165-.87028-.146554l-.7714.441414c-33.736484 19.218811-72.777654 30.192883-114.381818 30.192883-41.516925 0-80.481589-10.928093-114.173343-30.066283-.254991-.144845-.509733-.29019-.759955-.432417-.283771.046596-.567497.091487-.851165.134681-3.653775.556353-7.400735.846778-11.215537.846778-20.2964646 0-38.6714646-8.226768-51.9723484-21.527652-13.3008839-13.300884-21.5276516-31.675884-21.5276516-51.972348 0-3.521239.2474499-6.984671.7260807-10.373828.0401391-.284223.0819851-.568497.1239718-.858709-.1472381-.250104-.2939904-.50046-.4402566-.751067-19.9702112-34.216205-31.4097959-74.021823-31.4097959-116.499155 0-41.8332 11.0952428-81.075102 30.5050938-114.942413.145716-.254253.2919303-.508254.4349882-.762424-.0454271-.282869-.089164-.565691-.1312184-.848452-.5316498-3.574659-.8088636-7.236928-.8088636-10.963952 0-20.2964649 8.2267677-38.6714649 21.5276516-51.9723488 13.3008838-13.3008839 31.6758838-21.5276516 51.9723484-21.5276516 3.629327 0 7.197243.2628754 10.685718.7708098.284035.0413565.568111.0844203.85819.1278706l.753411-.4375238c34.038982-19.6815711 73.55567-30.9439152 115.702681-30.9439152z" fill="var(--colors-blue-light)" stroke="var(--colors-grey-main)" stroke-width="5" />
			<g transform="translate(40 40.982759)">
				<g fill="var(--colors-blue-main)">
					<circle cx="67.5" cy="4.5" r="4.5" />
					<circle cx="130.5" cy="67.5" r="4.5" />
					<circle cx="67.5" cy="130.5" r="4.5" />
					<circle cx="4.5" cy="67.517241" r="4.5" />
					<circle cx="36" cy="12.9404" r="4.5" transform="matrix(.8660254 -.5 .5 .8660254 -1.647115 19.733685)" />
					<circle cx="122.0596" cy="36" r="4.5" transform="matrix(.8660254 -.5 .5 .8660254 -1.647114 65.852885)" />
					<circle cx="99" cy="122.0596" r="4.5" transform="matrix(.8660254 -.5 .5 .8660254 -47.766315 65.852886)" />
					<circle cx="12.94902" cy="99.014932" r="4.5" transform="matrix(.8660254 -.5 .5 .8660254 -47.772626 19.739995)" />
					<circle cx="12.9404" cy="36" r="4.5" transform="matrix(.5 -.8660254 .8660254 .5 -24.706715 29.206715)" />
					<circle cx="99" cy="12.9404" r="4.5" transform="matrix(.5 -.8660254 .8660254 .5 38.293285 92.206715)" />
					<circle cx="122.0596" cy="99" r="4.5" transform="matrix(.5 -.8660254 .8660254 .5 -24.706715 155.206714)" />
					<circle cx="36.014932" cy="122.068221" r="4.5" transform="matrix(.5 -.8660254 .8660254 .5 -87.706715 92.223956)" />
				</g>
				<g class="clock-0" transform="translate(67.5, 67.5) rotate(0) translate(-67.5, -67.5) translate(14 14)">
					<circle cx="53.5" cy="53.5" fill="var(--colors-blue-main)" r="51" stroke="var(--colors-grey-main)" stroke-width="5" />
					<path d="m53.1824573 18.5406357c.2519519-.113019.5258615-.1132149.7650379-.0221681.2391764.0910469.4436196.2733364.5562038.5243183l.2858889.6382356c8.0630036 18.027703 12.2104121 29.3656084 12.2104121 34.0320922 0 3.3253355-1.6483455 6.3327401-4.028038 8.5675943-2.5935217 2.4356689-6.0836395 3.9890091-9.471962 3.9890091-3.2841352 0-6.4451528-1.4763554-8.7690161-3.8092904-2.2538241-2.2626223-3.7309839-5.3482199-3.7309839-8.747313 0-4.7211044 3.9582594-16.2649396 11.6696002-34.6469204.0981164-.2338859.281441-.4217503.5128571-.5255576z" fill="var(--colors-yellow-main)" stroke="var(--colors-red-main)" stroke-width="4" />
				</g>
			</g>
			<g transform="translate(166 40.982759)">
				<g fill="var(--colors-blue-main)">
					<circle cx="67.5" cy="4.5" r="4.5" />
					<circle cx="130.5" cy="67.5" r="4.5" />
					<circle cx="67.5" cy="130.5" r="4.5" />
					<circle cx="4.5" cy="67.517241" r="4.5" />
					<circle cx="36" cy="12.9404" r="4.5" transform="matrix(.8660254 -.5 .5 .8660254 -1.647115 19.733685)" />
					<circle cx="122.0596" cy="36" r="4.5" transform="matrix(.8660254 -.5 .5 .8660254 -1.647114 65.852885)" />
					<circle cx="99" cy="122.0596" r="4.5" transform="matrix(.8660254 -.5 .5 .8660254 -47.766315 65.852886)" />
					<circle cx="12.94902" cy="99.014932" r="4.5" transform="matrix(.8660254 -.5 .5 .8660254 -47.772626 19.739995)" />
					<circle cx="12.9404" cy="36" r="4.5" transform="matrix(.5 -.8660254 .8660254 .5 -24.706715 29.206715)" />
					<circle cx="99" cy="12.9404" r="4.5" transform="matrix(.5 -.8660254 .8660254 .5 38.293285 92.206715)" />
					<circle cx="122.0596" cy="99" r="4.5" transform="matrix(.5 -.8660254 .8660254 .5 -24.706715 155.206714)" />
					<circle cx="36.014932" cy="122.068221" r="4.5" transform="matrix(.5 -.8660254 .8660254 .5 -87.706715 92.223956)" />
				</g>
				<g class="clock-1" transform="translate(67.5, 67.5) rotate(0) translate(-67.5, -67.5) translate(14 14)">
					<circle cx="53.5" cy="53.5" fill="var(--colors-blue-main)" r="51" stroke="var(--colors-grey-main)" stroke-width="5" />
					<path d="m53.1824573 18.5406357c.2519519-.113019.5258615-.1132149.7650379-.0221681.2391764.0910469.4436196.2733364.5562038.5243183l.2858889.6382356c8.0630036 18.027703 12.2104121 29.3656084 12.2104121 34.0320922 0 3.3253355-1.6483455 6.3327401-4.028038 8.5675943-2.5935217 2.4356689-6.0836395 3.9890091-9.471962 3.9890091-3.2841352 0-6.4451528-1.4763554-8.7690161-3.8092904-2.2538241-2.2626223-3.7309839-5.3482199-3.7309839-8.747313 0-4.7211044 3.9582594-16.2649396 11.6696002-34.6469204.0981164-.2338859.281441-.4217503.5128571-.5255576z" fill="var(--colors-yellow-main)" stroke="var(--colors-red-main)" stroke-width="4" />
				</g>
			</g>
			<g transform="translate(292 40.982759)">
				<g fill="var(--colors-blue-main)">
					<circle cx="67.5" cy="4.5" r="4.5" />
					<circle cx="130.5" cy="67.5" r="4.5" />
					<circle cx="67.5" cy="130.5" r="4.5" />
					<circle cx="4.5" cy="67.517241" r="4.5" />
					<circle cx="36" cy="12.9404" r="4.5" transform="matrix(.8660254 -.5 .5 .8660254 -1.647115 19.733685)" />
					<circle cx="122.0596" cy="36" r="4.5" transform="matrix(.8660254 -.5 .5 .8660254 -1.647114 65.852885)" />
					<circle cx="99" cy="122.0596" r="4.5" transform="matrix(.8660254 -.5 .5 .8660254 -47.766315 65.852886)" />
					<circle cx="12.94902" cy="99.014932" r="4.5" transform="matrix(.8660254 -.5 .5 .8660254 -47.772626 19.739995)" />
					<circle cx="12.9404" cy="36" r="4.5" transform="matrix(.5 -.8660254 .8660254 .5 -24.706715 29.206715)" />
					<circle cx="99" cy="12.9404" r="4.5" transform="matrix(.5 -.8660254 .8660254 .5 38.293285 92.206715)" />
					<circle cx="122.0596" cy="99" r="4.5" transform="matrix(.5 -.8660254 .8660254 .5 -24.706715 155.206714)" />
					<circle cx="36.014932" cy="122.068221" r="4.5" transform="matrix(.5 -.8660254 .8660254 .5 -87.706715 92.223956)" />
				</g>
				<g class="clock-2" transform="translate(67.5, 67.5) rotate(0) translate(-67.5, -67.5) translate(14 14)">
					<circle cx="53.5" cy="53.5" fill="var(--colors-blue-main)" r="51" stroke="var(--colors-grey-main)" stroke-width="5" />
					<path d="m53.1824573 18.5406357c.2519519-.113019.5258615-.1132149.7650379-.0221681.2391764.0910469.4436196.2733364.5562038.5243183l.2858889.6382356c8.0630036 18.027703 12.2104121 29.3656084 12.2104121 34.0320922 0 3.3253355-1.6483455 6.3327401-4.028038 8.5675943-2.5935217 2.4356689-6.0836395 3.9890091-9.471962 3.9890091-3.2841352 0-6.4451528-1.4763554-8.7690161-3.8092904-2.2538241-2.2626223-3.7309839-5.3482199-3.7309839-8.747313 0-4.7211044 3.9582594-16.2649396 11.6696002-34.6469204.0981164-.2338859.281441-.4217503.5128571-.5255576z" fill="var(--colors-yellow-main)" stroke="var(--colors-red-main)" stroke-width="4" />
				</g>
			</g>
			<g transform="translate(40 166.982759)">
				<g fill="var(--colors-blue-main)">
					<circle cx="67.5" cy="4.5" r="4.5" />
					<circle cx="130.5" cy="67.5" r="4.5" />
					<circle cx="67.5" cy="130.5" r="4.5" />
					<circle cx="4.5" cy="67.517241" r="4.5" />
					<circle cx="36" cy="12.9404" r="4.5" transform="matrix(.8660254 -.5 .5 .8660254 -1.647115 19.733685)" />
					<circle cx="122.0596" cy="36" r="4.5" transform="matrix(.8660254 -.5 .5 .8660254 -1.647114 65.852885)" />
					<circle cx="99" cy="122.0596" r="4.5" transform="matrix(.8660254 -.5 .5 .8660254 -47.766315 65.852886)" />
					<circle cx="12.94902" cy="99.014932" r="4.5" transform="matrix(.8660254 -.5 .5 .8660254 -47.772626 19.739995)" />
					<circle cx="12.9404" cy="36" r="4.5" transform="matrix(.5 -.8660254 .8660254 .5 -24.706715 29.206715)" />
					<circle cx="99" cy="12.9404" r="4.5" transform="matrix(.5 -.8660254 .8660254 .5 38.293285 92.206715)" />
					<circle cx="122.0596" cy="99" r="4.5" transform="matrix(.5 -.8660254 .8660254 .5 -24.706715 155.206714)" />
					<circle cx="36.014932" cy="122.068221" r="4.5" transform="matrix(.5 -.8660254 .8660254 .5 -87.706715 92.223956)" />
				</g>
				<g class="clock-3" transform="translate(67.5, 67.5) rotate(0) translate(-67.5, -67.5) translate(14 14)">
					<circle cx="53.5" cy="53.5" fill="var(--colors-blue-main)" r="51" stroke="var(--colors-grey-main)" stroke-width="5" />
					<path d="m53.1824573 18.5406357c.2519519-.113019.5258615-.1132149.7650379-.0221681.2391764.0910469.4436196.2733364.5562038.5243183l.2858889.6382356c8.0630036 18.027703 12.2104121 29.3656084 12.2104121 34.0320922 0 3.3253355-1.6483455 6.3327401-4.028038 8.5675943-2.5935217 2.4356689-6.0836395 3.9890091-9.471962 3.9890091-3.2841352 0-6.4451528-1.4763554-8.7690161-3.8092904-2.2538241-2.2626223-3.7309839-5.3482199-3.7309839-8.747313 0-4.7211044 3.9582594-16.2649396 11.6696002-34.6469204.0981164-.2338859.281441-.4217503.5128571-.5255576z" fill="var(--colors-yellow-main)" stroke="var(--colors-red-main)" stroke-width="4" />
				</g>
			</g>
			<g transform="translate(166 166.982759)">
				<g fill="var(--colors-blue-main)">
					<circle cx="67.5" cy="4.5" r="4.5" />
					<circle cx="130.5" cy="67.5" r="4.5" />
					<circle cx="67.5" cy="130.5" r="4.5" />
					<circle cx="4.5" cy="67.517241" r="4.5" />
					<circle cx="36" cy="12.9404" r="4.5" transform="matrix(.8660254 -.5 .5 .8660254 -1.647115 19.733685)" />
					<circle cx="122.0596" cy="36" r="4.5" transform="matrix(.8660254 -.5 .5 .8660254 -1.647114 65.852885)" />
					<circle cx="99" cy="122.0596" r="4.5" transform="matrix(.8660254 -.5 .5 .8660254 -47.766315 65.852886)" />
					<circle cx="12.94902" cy="99.014932" r="4.5" transform="matrix(.8660254 -.5 .5 .8660254 -47.772626 19.739995)" />
					<circle cx="12.9404" cy="36" r="4.5" transform="matrix(.5 -.8660254 .8660254 .5 -24.706715 29.206715)" />
					<circle cx="99" cy="12.9404" r="4.5" transform="matrix(.5 -.8660254 .8660254 .5 38.293285 92.206715)" />
					<circle cx="122.0596" cy="99" r="4.5" transform="matrix(.5 -.8660254 .8660254 .5 -24.706715 155.206714)" />
					<circle cx="36.014932" cy="122.068221" r="4.5" transform="matrix(.5 -.8660254 .8660254 .5 -87.706715 92.223956)" />
				</g>
				<g class="clock-4" transform="translate(67.5, 67.5) rotate(0) translate(-67.5, -67.5) translate(14 14)">
					<circle cx="53.5" cy="53.5" fill="var(--colors-blue-main)" r="51" stroke="var(--colors-grey-main)" stroke-width="5" />
					<path d="m53.1824573 18.5406357c.2519519-.113019.5258615-.1132149.7650379-.0221681.2391764.0910469.4436196.2733364.5562038.5243183l.2858889.6382356c8.0630036 18.027703 12.2104121 29.3656084 12.2104121 34.0320922 0 3.3253355-1.6483455 6.3327401-4.028038 8.5675943-2.5935217 2.4356689-6.0836395 3.9890091-9.471962 3.9890091-3.2841352 0-6.4451528-1.4763554-8.7690161-3.8092904-2.2538241-2.2626223-3.7309839-5.3482199-3.7309839-8.747313 0-4.7211044 3.9582594-16.2649396 11.6696002-34.6469204.0981164-.2338859.281441-.4217503.5128571-.5255576z" fill="var(--colors-yellow-main)" stroke="var(--colors-red-main)" stroke-width="4" />
				</g>
			</g>
			<g transform="translate(292 166.982759)">
				<g fill="var(--colors-blue-main)">
					<circle cx="67.5" cy="4.5" r="4.5" />
					<circle cx="130.5" cy="67.5" r="4.5" />
					<circle cx="67.5" cy="130.5" r="4.5" />
					<circle cx="4.5" cy="67.517241" r="4.5" />
					<circle cx="36" cy="12.9404" r="4.5" transform="matrix(.8660254 -.5 .5 .8660254 -1.647115 19.733685)" />
					<circle cx="122.0596" cy="36" r="4.5" transform="matrix(.8660254 -.5 .5 .8660254 -1.647114 65.852885)" />
					<circle cx="99" cy="122.0596" r="4.5" transform="matrix(.8660254 -.5 .5 .8660254 -47.766315 65.852886)" />
					<circle cx="12.94902" cy="99.014932" r="4.5" transform="matrix(.8660254 -.5 .5 .8660254 -47.772626 19.739995)" />
					<circle cx="12.9404" cy="36" r="4.5" transform="matrix(.5 -.8660254 .8660254 .5 -24.706715 29.206715)" />
					<circle cx="99" cy="12.9404" r="4.5" transform="matrix(.5 -.8660254 .8660254 .5 38.293285 92.206715)" />
					<circle cx="122.0596" cy="99" r="4.5" transform="matrix(.5 -.8660254 .8660254 .5 -24.706715 155.206714)" />
					<circle cx="36.014932" cy="122.068221" r="4.5" transform="matrix(.5 -.8660254 .8660254 .5 -87.706715 92.223956)" />
				</g>
				<g class="clock-5" transform="translate(67.5, 67.5) rotate(0) translate(-67.5, -67.5) translate(14 14)">
					<circle cx="53.5" cy="53.5" fill="var(--colors-blue-main)" r="51" stroke="var(--colors-grey-main)" stroke-width="5" />
					<path d="m53.1824573 18.5406357c.2519519-.113019.5258615-.1132149.7650379-.0221681.2391764.0910469.4436196.2733364.5562038.5243183l.2858889.6382356c8.0630036 18.027703 12.2104121 29.3656084 12.2104121 34.0320922 0 3.3253355-1.6483455 6.3327401-4.028038 8.5675943-2.5935217 2.4356689-6.0836395 3.9890091-9.471962 3.9890091-3.2841352 0-6.4451528-1.4763554-8.7690161-3.8092904-2.2538241-2.2626223-3.7309839-5.3482199-3.7309839-8.747313 0-4.7211044 3.9582594-16.2649396 11.6696002-34.6469204.0981164-.2338859.281441-.4217503.5128571-.5255576z" fill="var(--colors-yellow-main)" stroke="var(--colors-red-main)" stroke-width="4" />
				</g>
			</g>
			<g transform="translate(40 292.982759)">
				<g fill="var(--colors-blue-main)">
					<circle cx="67.5" cy="4.5" r="4.5" />
					<circle cx="130.5" cy="67.5" r="4.5" />
					<circle cx="67.5" cy="130.5" r="4.5" />
					<circle cx="4.5" cy="67.517241" r="4.5" />
					<circle cx="36" cy="12.9404" r="4.5" transform="matrix(.8660254 -.5 .5 .8660254 -1.647115 19.733685)" />
					<circle cx="122.0596" cy="36" r="4.5" transform="matrix(.8660254 -.5 .5 .8660254 -1.647114 65.852885)" />
					<circle cx="99" cy="122.0596" r="4.5" transform="matrix(.8660254 -.5 .5 .8660254 -47.766315 65.852886)" />
					<circle cx="12.94902" cy="99.014932" r="4.5" transform="matrix(.8660254 -.5 .5 .8660254 -47.772626 19.739995)" />
					<circle cx="12.9404" cy="36" r="4.5" transform="matrix(.5 -.8660254 .8660254 .5 -24.706715 29.206715)" />
					<circle cx="99" cy="12.9404" r="4.5" transform="matrix(.5 -.8660254 .8660254 .5 38.293285 92.206715)" />
					<circle cx="122.0596" cy="99" r="4.5" transform="matrix(.5 -.8660254 .8660254 .5 -24.706715 155.206714)" />
					<circle cx="36.014932" cy="122.068221" r="4.5" transform="matrix(.5 -.8660254 .8660254 .5 -87.706715 92.223956)" />
				</g>
				<g class="clock-6" transform="translate(67.5, 67.5) rotate(0) translate(-67.5, -67.5) translate(14 14)">
					<circle cx="53.5" cy="53.5" fill="var(--colors-blue-main)" r="51" stroke="var(--colors-grey-main)" stroke-width="5" />
					<path d="m53.1824573 18.5406357c.2519519-.113019.5258615-.1132149.7650379-.0221681.2391764.0910469.4436196.2733364.5562038.5243183l.2858889.6382356c8.0630036 18.027703 12.2104121 29.3656084 12.2104121 34.0320922 0 3.3253355-1.6483455 6.3327401-4.028038 8.5675943-2.5935217 2.4356689-6.0836395 3.9890091-9.471962 3.9890091-3.2841352 0-6.4451528-1.4763554-8.7690161-3.8092904-2.2538241-2.2626223-3.7309839-5.3482199-3.7309839-8.747313 0-4.7211044 3.9582594-16.2649396 11.6696002-34.6469204.0981164-.2338859.281441-.4217503.5128571-.5255576z" fill="var(--colors-yellow-main)" stroke="var(--colors-red-main)" stroke-width="4" />
				</g>
			</g>
			<g transform="translate(166 292.982759)">
				<g fill="var(--colors-blue-main)">
					<circle cx="67.5" cy="4.5" r="4.5" />
					<circle cx="130.5" cy="67.5" r="4.5" />
					<circle cx="67.5" cy="130.5" r="4.5" />
					<circle cx="4.5" cy="67.517241" r="4.5" />
					<circle cx="36" cy="12.9404" r="4.5" transform="matrix(.8660254 -.5 .5 .8660254 -1.647115 19.733685)" />
					<circle cx="122.0596" cy="36" r="4.5" transform="matrix(.8660254 -.5 .5 .8660254 -1.647114 65.852885)" />
					<circle cx="99" cy="122.0596" r="4.5" transform="matrix(.8660254 -.5 .5 .8660254 -47.766315 65.852886)" />
					<circle cx="12.94902" cy="99.014932" r="4.5" transform="matrix(.8660254 -.5 .5 .8660254 -47.772626 19.739995)" />
					<circle cx="12.9404" cy="36" r="4.5" transform="matrix(.5 -.8660254 .8660254 .5 -24.706715 29.206715)" />
					<circle cx="99" cy="12.9404" r="4.5" transform="matrix(.5 -.8660254 .8660254 .5 38.293285 92.206715)" />
					<circle cx="122.0596" cy="99" r="4.5" transform="matrix(.5 -.8660254 .8660254 .5 -24.706715 155.206714)" />
					<circle cx="36.014932" cy="122.068221" r="4.5" transform="matrix(.5 -.8660254 .8660254 .5 -87.706715 92.223956)" />
				</g>
				<g class="clock-7" transform="translate(67.5, 67.5) rotate(0) translate(-67.5, -67.5) translate(14 14)">
					<circle cx="53.5" cy="53.5" fill="var(--colors-blue-main)" r="51" stroke="var(--colors-grey-main)" stroke-width="5" />
					<path d="m53.1824573 18.5406357c.2519519-.113019.5258615-.1132149.7650379-.0221681.2391764.0910469.4436196.2733364.5562038.5243183l.2858889.6382356c8.0630036 18.027703 12.2104121 29.3656084 12.2104121 34.0320922 0 3.3253355-1.6483455 6.3327401-4.028038 8.5675943-2.5935217 2.4356689-6.0836395 3.9890091-9.471962 3.9890091-3.2841352 0-6.4451528-1.4763554-8.7690161-3.8092904-2.2538241-2.2626223-3.7309839-5.3482199-3.7309839-8.747313 0-4.7211044 3.9582594-16.2649396 11.6696002-34.6469204.0981164-.2338859.281441-.4217503.5128571-.5255576z" fill="var(--colors-yellow-main)" stroke="var(--colors-red-main)" stroke-width="4" />
				</g>
			</g>
			<g transform="translate(292 292.982759)">
				<g fill="var(--colors-blue-main)">
					<circle cx="67.5" cy="4.5" r="4.5" />
					<circle cx="130.5" cy="67.5" r="4.5" />
					<circle cx="67.5" cy="130.5" r="4.5" />
					<circle cx="4.5" cy="67.517241" r="4.5" />
					<circle cx="36" cy="12.9404" r="4.5" transform="matrix(.8660254 -.5 .5 .8660254 -1.647115 19.733685)" />
					<circle cx="122.0596" cy="36" r="4.5" transform="matrix(.8660254 -.5 .5 .8660254 -1.647114 65.852885)" />
					<circle cx="99" cy="122.0596" r="4.5" transform="matrix(.8660254 -.5 .5 .8660254 -47.766315 65.852886)" />
					<circle cx="12.94902" cy="99.014932" r="4.5" transform="matrix(.8660254 -.5 .5 .8660254 -47.772626 19.739995)" />
					<circle cx="12.9404" cy="36" r="4.5" transform="matrix(.5 -.8660254 .8660254 .5 -24.706715 29.206715)" />
					<circle cx="99" cy="12.9404" r="4.5" transform="matrix(.5 -.8660254 .8660254 .5 38.293285 92.206715)" />
					<circle cx="122.0596" cy="99" r="4.5" transform="matrix(.5 -.8660254 .8660254 .5 -24.706715 155.206714)" />
					<circle cx="36.014932" cy="122.068221" r="4.5" transform="matrix(.5 -.8660254 .8660254 .5 -87.706715 92.223956)" />
				</g>
				<g class="clock-8" transform="translate(67.5, 67.5) rotate(0) translate(-67.5, -67.5) translate(14 14)">
					<circle cx="53.5" cy="53.5" fill="var(--colors-blue-main)" r="51" stroke="var(--colors-grey-main)" stroke-width="5" />
					<path d="m53.1824573 18.5406357c.2519519-.113019.5258615-.1132149.7650379-.0221681.2391764.0910469.4436196.2733364.5562038.5243183l.2858889.6382356c8.0630036 18.027703 12.2104121 29.3656084 12.2104121 34.0320922 0 3.3253355-1.6483455 6.3327401-4.028038 8.5675943-2.5935217 2.4356689-6.0836395 3.9890091-9.471962 3.9890091-3.2841352 0-6.4451528-1.4763554-8.7690161-3.8092904-2.2538241-2.2626223-3.7309839-5.3482199-3.7309839-8.747313 0-4.7211044 3.9582594-16.2649396 11.6696002-34.6469204.0981164-.2338859.281441-.4217503.5128571-.5255576z" fill="var(--colors-yellow-main)" stroke="var(--colors-red-main)" stroke-width="4" />
				</g>
			</g>
			<g fill="var(--colors-yellow-main)" stroke="var(--colors-grey-main)" stroke-width="3">
				<circle fill="var(--pegs-front-0)" cx="170.5" cy="171.482759" r="16" />
				<circle fill="var(--pegs-front-1)" cx="296.5" cy="171.482759" r="16" transform="matrix(.9998477 -.01745241 .01745241 .9998477 -2.947628 5.200756)" />
				<circle fill="var(--pegs-front-2)" cx="170.5" cy="297.482759" r="16" />
				<circle fill="var(--pegs-front-3)" cx="296.5" cy="297.482759" r="16" />
			</g>
		</g>
		<g transform="translate(494 .017241)">
			<path d="m234 2.5c42.067358 0 81.514325 11.2198118 115.510615 30.8318096.248996.1436425.497749.2877636.746324.4296178.278865-.0407945.55766-.0799437.836375-.117454 3.238621-.4358644 6.546331-.6612148 9.906686-.6612148 20.296465 0 38.671465 8.2267677 51.972348 21.5276516 13.300884 13.3008839 21.527652 31.6758839 21.527652 51.9723488 0 3.259545-.212035 6.469556-.623204 9.616973-.03649.279318-.074621.558709-.112855.84435.144301.245662.288133.491567.431496.737713 19.905618 34.1768 31.304563 73.916391 31.304563 116.318205 0 41.916944-11.139714 81.232204-30.621761 115.14574-.148636.25874-.297788.517219-.443835.775289.049329.287755.096899.575491.142716.863192.606359 3.807507.92288 7.716053.92288 11.698538 0 20.296464-8.226768 38.671464-21.527652 51.972348-13.300883 13.300884-31.675883 21.527652-51.972348 21.527652-4.078239 0-8.078935-.331933-11.976502-.970502-.288083-.047199-.576166-.096165-.87028-.146554l-.7714.441414c-33.736484 19.218811-72.777654 30.192883-114.381818 30.192883-41.516925 0-80.481589-10.928093-114.173343-30.066283-.254991-.144845-.509733-.29019-.759955-.432417-.283771.046596-.567497.091487-.851165.134681-3.653775.556353-7.400735.846778-11.215537.846778-20.2964646 0-38.6714646-8.226768-51.9723484-21.527652-13.3008839-13.300884-21.5276516-31.675884-21.5276516-51.972348 0-3.521239.2474499-6.984671.7260807-10.373828.0401391-.284223.0819851-.568497.1239718-.858709-.1472381-.250104-.2939904-.50046-.4402566-.751067-19.9702112-34.216205-31.4097959-74.021823-31.4097959-116.499155 0-41.8332 11.0952428-81.075102 30.5050938-114.942413.145716-.254253.2919303-.508254.4349882-.762424-.0454271-.282869-.089164-.565691-.1312184-.848452-.5316498-3.574659-.8088636-7.236928-.8088636-10.963952 0-20.2964649 8.2267677-38.6714649 21.5276516-51.9723488 13.3008838-13.3008839 31.6758838-21.5276516 51.9723484-21.5276516 3.629327 0 7.197243.2628754 10.685718.7708098.284035.0413565.568111.0844203.85819.1278706l.753411-.4375238c34.038982-19.6815711 73.55567-30.9439152 115.702681-30.9439152z" fill="var(--colors-blue-main)" stroke="var(--colors-grey-main)" stroke-width="5" />
			<g transform="translate(40 40.982759)">
				<g fill="var(--colors-blue-light)">
					<circle cx="67.5" cy="4.5" r="4.5" />
					<circle cx="130.5" cy="67.5" r="4.5" />
					<circle cx="67.5" cy="130.5" r="4.5" />
					<circle cx="4.5" cy="67.517241" r="4.5" />
					<circle cx="36" cy="12.9404" r="4.5" transform="matrix(.8660254 -.5 .5 .8660254 -1.647115 19.733685)" />
					<circle cx="122.0596" cy="36" r="4.5" transform="matrix(.8660254 -.5 .5 .8660254 -1.647114 65.852885)" />
					<circle cx="99" cy="122.0596" r="4.5" transform="matrix(.8660254 -.5 .5 .8660254 -47.766315 65.852886)" />
					<circle cx="12.94902" cy="99.014932" r="4.5" transform="matrix(.8660254 -.5 .5 .8660254 -47.772626 19.739995)" />
					<circle cx="12.9404" cy="36" r="4.5" transform="matrix(.5 -.8660254 .8660254 .5 -24.706715 29.206715)" />
					<circle cx="99" cy="12.9404" r="4.5" transform="matrix(.5 -.8660254 .8660254 .5 38.293285 92.206715)" />
					<circle cx="122.0596" cy="99" r="4.5" transform="matrix(.5 -.8660254 .8660254 .5 -24.706715 155.206714)" />
					<circle cx="36.014932" cy="122.068221" r="4.5" transform="matrix(.5 -.8660254 .8660254 .5 -87.706715 92.223956)" />
				</g>
				<g class="clock-9" transform="translate(67.5, 67.5) rotate(0) translate(-67.5, -67.5) translate(14 14)">
					<circle cx="53.5" cy="53.5" fill="var(--colors-blue-light)" r="51" stroke="var(--colors-grey-main)" stroke-width="5" />
					<path d="m53.1824573 18.5406357c.2519519-.113019.5258615-.1132149.7650379-.0221681.2391764.0910469.4436196.2733364.5562038.5243183l.2858889.6382356c8.0630036 18.027703 12.2104121 29.3656084 12.2104121 34.0320922 0 3.3253355-1.6483455 6.3327401-4.028038 8.5675943-2.5935217 2.4356689-6.0836395 3.9890091-9.471962 3.9890091-3.2841352 0-6.4451528-1.4763554-8.7690161-3.8092904-2.2538241-2.2626223-3.7309839-5.3482199-3.7309839-8.747313 0-4.7211044 3.9582594-16.2649396 11.6696002-34.6469204.0981164-.2338859.281441-.4217503.5128571-.5255576z" fill="var(--colors-yellow-main)" stroke="var(--colors-red-main)" stroke-width="4" />
				</g>
			</g>
			<g transform="translate(166 40.982759)">
				<g fill="var(--colors-blue-light)">
					<circle cx="67.5" cy="4.5" r="4.5" />
					<circle cx="130.5" cy="67.5" r="4.5" />
					<circle cx="67.5" cy="130.5" r="4.5" />
					<circle cx="4.5" cy="67.517241" r="4.5" />
					<circle cx="36" cy="12.9404" r="4.5" transform="matrix(.8660254 -.5 .5 .8660254 -1.647115 19.733685)" />
					<circle cx="122.0596" cy="36" r="4.5" transform="matrix(.8660254 -.5 .5 .8660254 -1.647114 65.852885)" />
					<circle cx="99" cy="122.0596" r="4.5" transform="matrix(.8660254 -.5 .5 .8660254 -47.766315 65.852886)" />
					<circle cx="12.94902" cy="99.014932" r="4.5" transform="matrix(.8660254 -.5 .5 .8660254 -47.772626 19.739995)" />
					<circle cx="12.9404" cy="36" r="4.5" transform="matrix(.5 -.8660254 .8660254 .5 -24.706715 29.206715)" />
					<circle cx="99" cy="12.9404" r="4.5" transform="matrix(.5 -.8660254 .8660254 .5 38.293285 92.206715)" />
					<circle cx="122.0596" cy="99" r="4.5" transform="matrix(.5 -.8660254 .8660254 .5 -24.706715 155.206714)" />
					<circle cx="36.014932" cy="122.068221" r="4.5" transform="matrix(.5 -.8660254 .8660254 .5 -87.706715 92.223956)" />
				</g>
				<g class="clock-10" transform="translate(67.5, 67.5) rotate(0) translate(-67.5, -67.5) translate(14 14)">
					<circle cx="53.5" cy="53.5" fill="var(--colors-blue-light)" r="51" stroke="var(--colors-grey-main)" stroke-width="5" />
					<path d="m53.1824573 18.5406357c.2519519-.113019.5258615-.1132149.7650379-.0221681.2391764.0910469.4436196.2733364.5562038.5243183l.2858889.6382356c8.0630036 18.027703 12.2104121 29.3656084 12.2104121 34.0320922 0 3.3253355-1.6483455 6.3327401-4.028038 8.5675943-2.5935217 2.4356689-6.0836395 3.9890091-9.471962 3.9890091-3.2841352 0-6.4451528-1.4763554-8.7690161-3.8092904-2.2538241-2.2626223-3.7309839-5.3482199-3.7309839-8.747313 0-4.7211044 3.9582594-16.2649396 11.6696002-34.6469204.0981164-.2338859.281441-.4217503.5128571-.5255576z" fill="var(--colors-yellow-main)" stroke="var(--colors-red-main)" stroke-width="4" />
				</g>
			</g>
			<g transform="translate(292 40.982759)">
				<g fill="var(--colors-blue-light)">
					<circle cx="67.5" cy="4.5" r="4.5" />
					<circle cx="130.5" cy="67.5" r="4.5" />
					<circle cx="67.5" cy="130.5" r="4.5" />
					<circle cx="4.5" cy="67.517241" r="4.5" />
					<circle cx="36" cy="12.9404" r="4.5" transform="matrix(.8660254 -.5 .5 .8660254 -1.647115 19.733685)" />
					<circle cx="122.0596" cy="36" r="4.5" transform="matrix(.8660254 -.5 .5 .8660254 -1.647114 65.852885)" />
					<circle cx="99" cy="122.0596" r="4.5" transform="matrix(.8660254 -.5 .5 .8660254 -47.766315 65.852886)" />
					<circle cx="12.94902" cy="99.014932" r="4.5" transform="matrix(.8660254 -.5 .5 .8660254 -47.772626 19.739995)" />
					<circle cx="12.9404" cy="36" r="4.5" transform="matrix(.5 -.8660254 .8660254 .5 -24.706715 29.206715)" />
					<circle cx="99" cy="12.9404" r="4.5" transform="matrix(.5 -.8660254 .8660254 .5 38.293285 92.206715)" />
					<circle cx="122.0596" cy="99" r="4.5" transform="matrix(.5 -.8660254 .8660254 .5 -24.706715 155.206714)" />
					<circle cx="36.014932" cy="122.068221" r="4.5" transform="matrix(.5 -.8660254 .8660254 .5 -87.706715 92.223956)" />
				</g>
				<g class="clock-11" transform="translate(67.5, 67.5) rotate(0) translate(-67.5, -67.5) translate(14 14)">
					<circle cx="53.5" cy="53.5" fill="var(--colors-blue-light)" r="51" stroke="var(--colors-grey-main)" stroke-width="5" />
					<path d="m53.1824573 18.5406357c.2519519-.113019.5258615-.1132149.7650379-.0221681.2391764.0910469.4436196.2733364.5562038.5243183l.2858889.6382356c8.0630036 18.027703 12.2104121 29.3656084 12.2104121 34.0320922 0 3.3253355-1.6483455 6.3327401-4.028038 8.5675943-2.5935217 2.4356689-6.0836395 3.9890091-9.471962 3.9890091-3.2841352 0-6.4451528-1.4763554-8.7690161-3.8092904-2.2538241-2.2626223-3.7309839-5.3482199-3.7309839-8.747313 0-4.7211044 3.9582594-16.2649396 11.6696002-34.6469204.0981164-.2338859.281441-.4217503.5128571-.5255576z" fill="var(--colors-yellow-main)" stroke="var(--colors-red-main)" stroke-width="4" />
				</g>
			</g>
			<g transform="translate(40 166.982759)">
				<g fill="var(--colors-blue-light)">
					<circle cx="67.5" cy="4.5" r="4.5" />
					<circle cx="130.5" cy="67.5" r="4.5" />
					<circle cx="67.5" cy="130.5" r="4.5" />
					<circle cx="4.5" cy="67.517241" r="4.5" />
					<circle cx="36" cy="12.9404" r="4.5" transform="matrix(.8660254 -.5 .5 .8660254 -1.647115 19.733685)" />
					<circle cx="122.0596" cy="36" r="4.5" transform="matrix(.8660254 -.5 .5 .8660254 -1.647114 65.852885)" />
					<circle cx="99" cy="122.0596" r="4.5" transform="matrix(.8660254 -.5 .5 .8660254 -47.766315 65.852886)" />
					<circle cx="12.94902" cy="99.014932" r="4.5" transform="matrix(.8660254 -.5 .5 .8660254 -47.772626 19.739995)" />
					<circle cx="12.9404" cy="36" r="4.5" transform="matrix(.5 -.8660254 .8660254 .5 -24.706715 29.206715)" />
					<circle cx="99" cy="12.9404" r="4.5" transform="matrix(.5 -.8660254 .8660254 .5 38.293285 92.206715)" />
					<circle cx="122.0596" cy="99" r="4.5" transform="matrix(.5 -.8660254 .8660254 .5 -24.706715 155.206714)" />
					<circle cx="36.014932" cy="122.068221" r="4.5" transform="matrix(.5 -.8660254 .8660254 .5 -87.706715 92.223956)" />
				</g>
				<g class="clock-12" transform="translate(67.5, 67.5) rotate(0) translate(-67.5, -67.5) translate(14 14)">
					<circle cx="53.5" cy="53.5" fill="var(--colors-blue-light)" r="51" stroke="var(--colors-grey-main)" stroke-width="5" />
					<path d="m53.1824573 18.5406357c.2519519-.113019.5258615-.1132149.7650379-.0221681.2391764.0910469.4436196.2733364.5562038.5243183l.2858889.6382356c8.0630036 18.027703 12.2104121 29.3656084 12.2104121 34.0320922 0 3.3253355-1.6483455 6.3327401-4.028038 8.5675943-2.5935217 2.4356689-6.0836395 3.9890091-9.471962 3.9890091-3.2841352 0-6.4451528-1.4763554-8.7690161-3.8092904-2.2538241-2.2626223-3.7309839-5.3482199-3.7309839-8.747313 0-4.7211044 3.9582594-16.2649396 11.6696002-34.6469204.0981164-.2338859.281441-.4217503.5128571-.5255576z" fill="var(--colors-yellow-main)" stroke="var(--colors-red-main)" stroke-width="4" />
				</g>
			</g>
			<g transform="translate(166 166.982759)">
				<g fill="var(--colors-blue-light)">
					<circle cx="67.5" cy="4.5" r="4.5" />
					<circle cx="130.5" cy="67.5" r="4.5" />
					<circle cx="67.5" cy="130.5" r="4.5" />
					<circle cx="4.5" cy="67.517241" r="4.5" />
					<circle cx="36" cy="12.9404" r="4.5" transform="matrix(.8660254 -.5 .5 .8660254 -1.647115 19.733685)" />
					<circle cx="122.0596" cy="36" r="4.5" transform="matrix(.8660254 -.5 .5 .8660254 -1.647114 65.852885)" />
					<circle cx="99" cy="122.0596" r="4.5" transform="matrix(.8660254 -.5 .5 .8660254 -47.766315 65.852886)" />
					<circle cx="12.94902" cy="99.014932" r="4.5" transform="matrix(.8660254 -.5 .5 .8660254 -47.772626 19.739995)" />
					<circle cx="12.9404" cy="36" r="4.5" transform="matrix(.5 -.8660254 .8660254 .5 -24.706715 29.206715)" />
					<circle cx="99" cy="12.9404" r="4.5" transform="matrix(.5 -.8660254 .8660254 .5 38.293285 92.206715)" />
					<circle cx="122.0596" cy="99" r="4.5" transform="matrix(.5 -.8660254 .8660254 .5 -24.706715 155.206714)" />
					<circle cx="36.014932" cy="122.068221" r="4.5" transform="matrix(.5 -.8660254 .8660254 .5 -87.706715 92.223956)" />
				</g>
				<g class="clock-13" transform="translate(67.5, 67.5) rotate(0) translate(-67.5, -67.5) translate(14 14)">
					<circle cx="53.5" cy="53.5" fill="var(--colors-blue-light)" r="51" stroke="var(--colors-grey-main)" stroke-width="5" />
					<path d="m53.1824573 18.5406357c.2519519-.113019.5258615-.1132149.7650379-.0221681.2391764.0910469.4436196.2733364.5562038.5243183l.2858889.6382356c8.0630036 18.027703 12.2104121 29.3656084 12.2104121 34.0320922 0 3.3253355-1.6483455 6.3327401-4.028038 8.5675943-2.5935217 2.4356689-6.0836395 3.9890091-9.471962 3.9890091-3.2841352 0-6.4451528-1.4763554-8.7690161-3.8092904-2.2538241-2.2626223-3.7309839-5.3482199-3.7309839-8.747313 0-4.7211044 3.9582594-16.2649396 11.6696002-34.6469204.0981164-.2338859.281441-.4217503.5128571-.5255576z" fill="var(--colors-yellow-main)" stroke="var(--colors-red-main)" stroke-width="4" />
				</g>
			</g>
			<g transform="translate(292 166.982759)">
				<g fill="var(--colors-blue-light)">
					<circle cx="67.5" cy="4.5" r="4.5" />
					<circle cx="130.5" cy="67.5" r="4.5" />
					<circle cx="67.5" cy="130.5" r="4.5" />
					<circle cx="4.5" cy="67.517241" r="4.5" />
					<circle cx="36" cy="12.9404" r="4.5" transform="matrix(.8660254 -.5 .5 .8660254 -1.647115 19.733685)" />
					<circle cx="122.0596" cy="36" r="4.5" transform="matrix(.8660254 -.5 .5 .8660254 -1.647114 65.852885)" />
					<circle cx="99" cy="122.0596" r="4.5" transform="matrix(.8660254 -.5 .5 .8660254 -47.766315 65.852886)" />
					<circle cx="12.94902" cy="99.014932" r="4.5" transform="matrix(.8660254 -.5 .5 .8660254 -47.772626 19.739995)" />
					<circle cx="12.9404" cy="36" r="4.5" transform="matrix(.5 -.8660254 .8660254 .5 -24.706715 29.206715)" />
					<circle cx="99" cy="12.9404" r="4.5" transform="matrix(.5 -.8660254 .8660254 .5 38.293285 92.206715)" />
					<circle cx="122.0596" cy="99" r="4.5" transform="matrix(.5 -.8660254 .8660254 .5 -24.706715 155.206714)" />
					<circle cx="36.014932" cy="122.068221" r="4.5" transform="matrix(.5 -.8660254 .8660254 .5 -87.706715 92.223956)" />
				</g>
				<g class="clock-14" transform="translate(67.5, 67.5) rotate(0) translate(-67.5, -67.5) translate(14 14)">
					<circle cx="53.5" cy="53.5" fill="var(--colors-blue-light)" r="51" stroke="var(--colors-grey-main)" stroke-width="5" />
					<path d="m53.1824573 18.5406357c.2519519-.113019.5258615-.1132149.7650379-.0221681.2391764.0910469.4436196.2733364.5562038.5243183l.2858889.6382356c8.0630036 18.027703 12.2104121 29.3656084 12.2104121 34.0320922 0 3.3253355-1.6483455 6.3327401-4.028038 8.5675943-2.5935217 2.4356689-6.0836395 3.9890091-9.471962 3.9890091-3.2841352 0-6.4451528-1.4763554-8.7690161-3.8092904-2.2538241-2.2626223-3.7309839-5.3482199-3.7309839-8.747313 0-4.7211044 3.9582594-16.2649396 11.6696002-34.6469204.0981164-.2338859.281441-.4217503.5128571-.5255576z" fill="var(--colors-yellow-main)" stroke="var(--colors-red-main)" stroke-width="4" />
				</g>
			</g>
			<g transform="translate(40 292.982759)">
				<g fill="var(--colors-blue-light)">
					<circle cx="67.5" cy="4.5" r="4.5" />
					<circle cx="130.5" cy="67.5" r="4.5" />
					<circle cx="67.5" cy="130.5" r="4.5" />
					<circle cx="4.5" cy="67.517241" r="4.5" />
					<circle cx="36" cy="12.9404" r="4.5" transform="matrix(.8660254 -.5 .5 .8660254 -1.647115 19.733685)" />
					<circle cx="122.0596" cy="36" r="4.5" transform="matrix(.8660254 -.5 .5 .8660254 -1.647114 65.852885)" />
					<circle cx="99" cy="122.0596" r="4.5" transform="matrix(.8660254 -.5 .5 .8660254 -47.766315 65.852886)" />
					<circle cx="12.94902" cy="99.014932" r="4.5" transform="matrix(.8660254 -.5 .5 .8660254 -47.772626 19.739995)" />
					<circle cx="12.9404" cy="36" r="4.5" transform="matrix(.5 -.8660254 .8660254 .5 -24.706715 29.206715)" />
					<circle cx="99" cy="12.9404" r="4.5" transform="matrix(.5 -.8660254 .8660254 .5 38.293285 92.206715)" />
					<circle cx="122.0596" cy="99" r="4.5" transform="matrix(.5 -.8660254 .8660254 .5 -24.706715 155.206714)" />
					<circle cx="36.014932" cy="122.068221" r="4.5" transform="matrix(.5 -.8660254 .8660254 .5 -87.706715 92.223956)" />
				</g>
				<g class="clock-15" transform="translate(67.5, 67.5) rotate(0) translate(-67.5, -67.5) translate(14 14)">
					<circle cx="53.5" cy="53.5" fill="var(--colors-blue-light)" r="51" stroke="var(--colors-grey-main)" stroke-width="5" />
					<path d="m53.1824573 18.5406357c.2519519-.113019.5258615-.1132149.7650379-.0221681.2391764.0910469.4436196.2733364.5562038.5243183l.2858889.6382356c8.0630036 18.027703 12.2104121 29.3656084 12.2104121 34.0320922 0 3.3253355-1.6483455 6.3327401-4.028038 8.5675943-2.5935217 2.4356689-6.0836395 3.9890091-9.471962 3.9890091-3.2841352 0-6.4451528-1.4763554-8.7690161-3.8092904-2.2538241-2.2626223-3.7309839-5.3482199-3.7309839-8.747313 0-4.7211044 3.9582594-16.2649396 11.6696002-34.6469204.0981164-.2338859.281441-.4217503.5128571-.5255576z" fill="var(--colors-yellow-main)" stroke="var(--colors-red-main)" stroke-width="4" />
				</g>
			</g>
			<g transform="translate(166 292.982759)">
				<g fill="var(--colors-blue-light)">
					<circle cx="67.5" cy="4.5" r="4.5" />
					<circle cx="130.5" cy="67.5" r="4.5" />
					<circle cx="67.5" cy="130.5" r="4.5" />
					<circle cx="4.5" cy="67.517241" r="4.5" />
					<circle cx="36" cy="12.9404" r="4.5" transform="matrix(.8660254 -.5 .5 .8660254 -1.647115 19.733685)" />
					<circle cx="122.0596" cy="36" r="4.5" transform="matrix(.8660254 -.5 .5 .8660254 -1.647114 65.852885)" />
					<circle cx="99" cy="122.0596" r="4.5" transform="matrix(.8660254 -.5 .5 .8660254 -47.766315 65.852886)" />
					<circle cx="12.94902" cy="99.014932" r="4.5" transform="matrix(.8660254 -.5 .5 .8660254 -47.772626 19.739995)" />
					<circle cx="12.9404" cy="36" r="4.5" transform="matrix(.5 -.8660254 .8660254 .5 -24.706715 29.206715)" />
					<circle cx="99" cy="12.9404" r="4.5" transform="matrix(.5 -.8660254 .8660254 .5 38.293285 92.206715)" />
					<circle cx="122.0596" cy="99" r="4.5" transform="matrix(.5 -.8660254 .8660254 .5 -24.706715 155.206714)" />
					<circle cx="36.014932" cy="122.068221" r="4.5" transform="matrix(.5 -.8660254 .8660254 .5 -87.706715 92.223956)" />
				</g>
				<g class="clock-16" transform="translate(67.5, 67.5) rotate(0) translate(-67.5, -67.5) translate(14 14)">
					<circle cx="53.5" cy="53.5" fill="var(--colors-blue-light)" r="51" stroke="var(--colors-grey-main)" stroke-width="5" />
					<path d="m53.1824573 18.5406357c.2519519-.113019.5258615-.1132149.7650379-.0221681.2391764.0910469.4436196.2733364.5562038.5243183l.2858889.6382356c8.0630036 18.027703 12.2104121 29.3656084 12.2104121 34.0320922 0 3.3253355-1.6483455 6.3327401-4.028038 8.5675943-2.5935217 2.4356689-6.0836395 3.9890091-9.471962 3.9890091-3.2841352 0-6.4451528-1.4763554-8.7690161-3.8092904-2.2538241-2.2626223-3.7309839-5.3482199-3.7309839-8.747313 0-4.7211044 3.9582594-16.2649396 11.6696002-34.6469204.0981164-.2338859.281441-.4217503.5128571-.5255576z" fill="var(--colors-yellow-main)" stroke="var(--colors-red-main)" stroke-width="4" />
				</g>
			</g>
			<g transform="translate(292 292.982759)">
				<g fill="var(--colors-blue-light)">
					<circle cx="67.5" cy="4.5" r="4.5" />
					<circle cx="130.5" cy="67.5" r="4.5" />
					<circle cx="67.5" cy="130.5" r="4.5" />
					<circle cx="4.5" cy="67.517241" r="4.5" />
					<circle cx="36" cy="12.9404" r="4.5" transform="matrix(.8660254 -.5 .5 .8660254 -1.647115 19.733685)" />
					<circle cx="122.0596" cy="36" r="4.5" transform="matrix(.8660254 -.5 .5 .8660254 -1.647114 65.852885)" />
					<circle cx="99" cy="122.0596" r="4.5" transform="matrix(.8660254 -.5 .5 .8660254 -47.766315 65.852886)" />
					<circle cx="12.94902" cy="99.014932" r="4.5" transform="matrix(.8660254 -.5 .5 .8660254 -47.772626 19.739995)" />
					<circle cx="12.9404" cy="36" r="4.5" transform="matrix(.5 -.8660254 .8660254 .5 -24.706715 29.206715)" />
					<circle cx="99" cy="12.9404" r="4.5" transform="matrix(.5 -.8660254 .8660254 .5 38.293285 92.206715)" />
					<circle cx="122.0596" cy="99" r="4.5" transform="matrix(.5 -.8660254 .8660254 .5 -24.706715 155.206714)" />
					<circle cx="36.014932" cy="122.068221" r="4.5" transform="matrix(.5 -.8660254 .8660254 .5 -87.706715 92.223956)" />
				</g>
				<g class="clock-17" transform="translate(67.5, 67.5) rotate(0) translate(-67.5, -67.5) translate(14 14)">
					<circle cx="53.5" cy="53.5" fill="var(--colors-blue-light)" r="51" stroke="var(--colors-grey-main)" stroke-width="5" />
					<path d="m53.1824573 18.5406357c.2519519-.113019.5258615-.1132149.7650379-.0221681.2391764.0910469.4436196.2733364.5562038.5243183l.2858889.6382356c8.0630036 18.027703 12.2104121 29.3656084 12.2104121 34.0320922 0 3.3253355-1.6483455 6.3327401-4.028038 8.5675943-2.5935217 2.4356689-6.0836395 3.9890091-9.471962 3.9890091-3.2841352 0-6.4451528-1.4763554-8.7690161-3.8092904-2.2538241-2.2626223-3.7309839-5.3482199-3.7309839-8.747313 0-4.7211044 3.9582594-16.2649396 11.6696002-34.6469204.0981164-.2338859.281441-.4217503.5128571-.5255576z" fill="var(--colors-yellow-main)" stroke="var(--colors-red-main)" stroke-width="4" />
				</g>
			</g>
			<g fill="var(--colors-yellow-dark)" stroke="var(--colors-grey-main)" stroke-width="3">
				<circle fill="var(--pegs-back-1)" cx="170.5" cy="171.482759" r="16" />
				<circle fill="var(--pegs-back-0)" cx="296.5" cy="171.482759" r="16" transform="matrix(.9998477 -.01745241 .01745241 .9998477 -2.947628 5.200756)" />
				<circle fill="var(--pegs-back-3)" cx="170.5" cy="297.482759" r="16" />
				<circle fill="var(--pegs-back-2)" cx="296.5" cy="297.482759" r="16" />
			</g>
		</g>
	</g>
</svg>
